<svg width="72" height="72" viewBox="0 0 72 72" fill="none" xmlns="http://www.w3.org/2000/svg">
<path d="M36 0C16.128 0 0 16.128 0 36C0 55.872 16.128 72 36 72C55.872 72 72 55.872 72 36C72 16.128 55.872 0 36 0V0ZM48.996 22.824C52.848 22.824 55.944 25.92 55.944 29.772C55.944 33.624 52.848 36.72 48.996 36.72C45.144 36.72 42.048 33.624 42.048 29.772C42.012 25.92 45.144 22.824 48.996 22.824V22.824ZM27.396 17.136C32.076 17.136 35.892 20.952 35.892 25.632C35.892 30.312 32.076 34.128 27.396 34.128C22.716 34.128 18.9 30.312 18.9 25.632C18.9 20.916 22.68 17.136 27.396 17.136ZM27.396 50.004V63.504C18.756 60.804 11.916 54.144 8.892 45.648C12.672 41.616 22.104 39.564 27.396 39.564C29.304 39.564 31.716 39.852 34.236 40.356C28.332 43.488 27.396 47.628 27.396 50.004ZM36 64.8C35.028 64.8 34.092 64.764 33.156 64.656V50.004C33.156 44.892 43.74 42.336 48.996 42.336C52.848 42.336 59.508 43.74 62.82 46.476C58.608 57.168 48.204 64.8 36 64.8V64.8Z" fill="#397CE1"/>
</svg>
