<svg width="76" height="68" viewBox="0 0 76 68" fill="none" xmlns="http://www.w3.org/2000/svg">
<path d="M37.7778 15.1111V0H0V68H75.5556V15.1111H37.7778ZM15.1111 60.4444H7.55556V52.8889H15.1111V60.4444ZM15.1111 45.3333H7.55556V37.7778H15.1111V45.3333ZM15.1111 30.2222H7.55556V22.6667H15.1111V30.2222ZM15.1111 15.1111H7.55556V7.55556H15.1111V15.1111ZM30.2222 60.4444H22.6667V52.8889H30.2222V60.4444ZM30.2222 45.3333H22.6667V37.7778H30.2222V45.3333ZM30.2222 30.2222H22.6667V22.6667H30.2222V30.2222ZM30.2222 15.1111H22.6667V7.55556H30.2222V15.1111ZM68 60.4444H37.7778V52.8889H45.3333V45.3333H37.7778V37.7778H45.3333V30.2222H37.7778V22.6667H68V60.4444ZM60.4444 30.2222H52.8889V37.7778H60.4444V30.2222ZM60.4444 45.3333H52.8889V52.8889H60.4444V45.3333Z" fill="white"/>
</svg>
