<svg width="297" height="222" viewBox="0 0 297 222" fill="none" xmlns="http://www.w3.org/2000/svg">
<path d="M185.425 174.675L185.026 174.252C183.74 174.354 182.446 174.211 181.213 173.832L180.867 173.343C180.551 172.896 181.024 172.464 181.015 171.914C181.182 171.685 181.392 171.492 181.635 171.347C181.878 171.202 182.148 171.108 182.429 171.07C182.807 171.033 182.913 170.728 182.988 170.415C183.428 170.194 183.914 170.081 184.407 170.083C184.899 170.086 185.384 170.205 185.821 170.43C186.078 170.612 186.295 170.845 186.457 171.114C186.62 171.384 186.726 171.684 186.767 171.995C186.531 172.384 186.493 172.973 186.132 173.416C186.349 173.678 186.839 173.263 186.901 173.679C187.952 173.305 188.925 172.742 189.771 172.016C191.099 171.225 192.372 170.347 193.582 169.385C194.609 168.448 195.732 167.623 196.933 166.922C197.155 166.747 197.361 166.554 197.549 166.343C197.932 166.009 198.36 165.694 198.706 165.359C199.634 164.527 200.392 163.523 200.941 162.404C201.352 161.611 201.687 160.782 201.941 159.926V158.063C201.253 157.561 200.396 157.314 199.717 156.766C199.494 156.586 199.209 156.64 198.956 156.544C197.127 155.855 195.258 155.271 193.419 154.606C192.907 154.421 192.358 154.558 191.84 154.291C191.573 154.138 191.32 153.963 191.081 153.769C190.189 153.848 189.295 153.63 188.539 153.148C188.155 152.985 187.749 152.881 187.334 152.84C186.406 152.625 185.529 152.24 184.597 152.078C184.196 151.99 183.817 151.818 183.486 151.573C182.805 151.779 182.141 151.112 181.43 151.354C181.186 151.249 181.262 151.055 181.192 150.925C179.861 150.644 178.561 150.235 177.309 149.704C176.421 149.362 175.502 149.161 174.601 148.882C173.269 148.6 171.956 148.228 170.674 147.769C169.958 147.519 169.222 147.33 168.474 147.205C167.729 147.065 167.001 146.846 166.302 146.552C165.84 146.37 165.354 146.257 164.859 146.216C163.451 146.069 162.062 145.77 160.718 145.323C160.248 145.137 159.763 145.32 159.118 145.157C158.655 144.843 158.1 144.695 157.542 144.736C156.736 144.707 155.94 144.553 155.181 144.28C154.372 144.041 153.544 143.87 152.706 143.768C151.953 143.641 151.209 143.464 150.479 143.238C150.027 143.141 149.569 143.076 149.108 143.043C148.87 143.029 148.584 143.094 148.404 142.985C147.877 142.667 147.136 142.902 146.745 142.304L146.406 142.617C146.097 142.241 145.654 142.312 145.225 142.312C144.778 142.312 144.205 142.483 143.915 142.27C143.527 141.984 143.083 142.631 142.841 142.08C142.396 142.076 141.951 142.07 141.505 142.068C141.058 142.067 140.611 142.061 140.164 142.071C140.008 142.071 139.857 142.017 139.737 141.917C139.671 141.871 139.596 141.839 139.517 141.822C139.439 141.806 139.357 141.806 139.278 141.821C139.199 141.837 139.124 141.868 139.058 141.913C138.991 141.958 138.934 142.015 138.89 142.083C138.562 142.028 138.293 141.802 137.907 141.807C135.186 141.84 132.463 141.836 129.741 141.811C129.398 141.849 129.063 141.935 128.744 142.066C127.683 142.335 126.667 142.755 125.61 143.029C124.976 143.193 124.489 143.625 123.859 143.82C123.265 143.997 122.727 144.324 122.297 144.77C121.735 145.226 121.108 145.593 120.435 145.859C119.545 146.375 118.688 146.947 117.871 147.572C117.216 148.058 116.349 148.169 115.824 148.835C115.129 148.833 114.494 149.305 113.646 149.057C114.031 148.687 114.442 148.346 114.878 148.037C115.972 147.297 117.024 146.495 118.027 145.635C118.922 144.915 119.898 144.301 120.936 143.808C121.454 143.548 121.93 143.209 122.345 142.804C123.279 142.974 123.737 142.053 124.848 141.865C125.473 141.855 126.082 141.666 126.603 141.321C127.077 141.082 127.593 140.937 128.122 140.895C129.374 140.59 130.652 140.405 131.939 140.343C133.233 140.43 134.542 140.298 135.836 140.388C136.49 140.434 137.133 140.634 137.81 140.623C138.116 140.618 138.302 140.415 138.562 140.361C138.823 140.409 138.999 140.647 139.315 140.618C139.839 140.571 140.38 140.669 140.896 140.59C141.555 140.489 142.111 140.89 142.748 140.856C143.351 140.76 143.965 140.769 144.565 140.885C145.275 141.116 146 140.937 146.662 141.12C147.844 141.239 149.013 141.47 150.152 141.81C150.488 141.973 150.954 141.644 151.292 141.997C152.288 142.095 153.27 142.301 154.221 142.612C155.522 142.727 156.811 142.948 158.076 143.274C158.355 143.322 158.641 143.326 158.922 143.287L159.355 143.72C159.388 143.738 159.421 143.771 159.454 143.772C159.921 143.787 160.387 143.939 160.819 143.972C162.069 144.066 163.259 144.493 164.514 144.521C164.889 144.57 165.253 144.679 165.594 144.843C166.658 145.273 167.796 145.489 168.943 145.478L169.334 146.01C170.298 145.757 171.049 146.302 171.856 146.509C172.754 146.827 173.676 147.068 174.614 147.229C175.46 147.407 176.284 147.673 177.075 148.021C177.578 148.197 178.097 148.32 178.625 148.389C179.115 148.457 179.592 148.598 180.041 148.807C180.738 149.174 181.466 149.48 182.217 149.72C183.299 149.949 184.222 150.728 185.393 150.599C186.458 151.217 187.799 150.996 188.825 151.732C189.598 151.771 190.271 152.253 191.026 152.281C191.53 152.377 192.018 152.541 192.477 152.771C193.272 152.566 194.087 153.201 195.008 153.282C196.284 153.936 197.635 154.429 199.032 154.751C199.604 154.97 200.11 155.395 200.753 155.211C201.273 155.619 201.84 155.963 202.442 156.236C203.043 156.42 203.154 157.311 203.881 157.432C204.002 158.84 203.735 160.256 203.109 161.523C202.741 162.436 202.285 163.312 201.749 164.137C201.252 164.842 200.679 165.489 200.04 166.068C199.28 166.829 198.476 167.545 197.631 168.211C196.508 168.962 195.548 169.918 194.378 170.634C193.56 171.083 192.794 171.619 192.091 172.232C191.398 172.833 190.628 173.339 189.8 173.736C189.332 173.938 188.911 174.236 188.565 174.611C188.95 175.022 189.448 175.309 189.996 175.437C191.395 175.984 192.798 176.519 194.197 177.067C194.598 177.298 195.054 177.416 195.517 177.409C196.003 177.334 196.373 177.742 196.882 177.677C197.112 177.608 197.354 177.591 197.591 177.627C197.828 177.662 198.054 177.75 198.253 177.884C198.373 177.984 198.647 177.899 198.85 177.899C199.5 177.899 200.152 177.924 200.8 177.892C201.514 177.986 202.24 177.942 202.937 177.76C203.558 177.479 204.293 177.908 204.865 177.412C205.661 177.633 206.264 177.04 206.958 176.857C207.511 176.712 208.204 176.744 208.636 176.217C209.258 176.309 209.723 175.861 210.236 175.662C211.176 175.258 212.065 174.742 212.881 174.125C213.164 173.925 213.479 173.774 213.755 173.558C214.248 173.175 214.967 173.11 215.21 172.364C215.285 172.133 215.693 172.015 215.942 171.836C216.172 171.67 216.189 171.373 216.356 171.15C217.262 170.108 218.025 168.951 218.627 167.709C218.854 167.271 219.107 166.846 219.386 166.439C219.621 166.011 219.68 165.517 219.959 165.085C220.114 164.846 220.407 164.51 220.252 164.117C220.673 163.692 220.341 162.913 220.973 162.588C220.903 162.078 221.396 161.765 221.441 161.325C221.466 160.862 221.552 160.404 221.696 159.963C221.81 159.326 221.961 158.697 222.148 158.078C221.656 157.568 222.246 157.093 222.254 156.593C222.244 156.059 222.384 155.532 222.658 155.074C222.859 154.771 222.48 154.375 222.638 153.935C222.712 153.728 222.738 153.508 222.713 153.29C222.688 153.072 222.614 152.863 222.495 152.679C222.244 152.286 222.603 151.659 222.134 151.283L222.433 150.962C222.306 150.875 222.2 150.76 222.123 150.626C222.046 150.493 222 150.344 221.987 150.19C221.998 149.546 221.486 148.996 221.721 148.395C221.621 148.065 221.291 147.991 221.21 147.691C220.898 146.632 220.384 145.643 219.698 144.778C219.29 144.232 218.992 143.597 218.543 143.066C218.483 142.995 218.535 142.829 218.535 142.68C217.855 142.154 217.327 141.457 217.005 140.66C216.273 140.138 215.853 139.319 215.154 138.742C214.74 138.426 214.36 138.067 214.021 137.671C213.721 137.288 213.247 137.115 212.979 136.666C212.676 136.16 212.002 136.027 211.624 135.542C211.286 135.053 210.795 134.692 210.228 134.516C209.967 134.448 209.852 134.227 209.685 134.065C209.299 133.622 208.819 133.271 208.279 133.039C207.812 132.875 207.585 132.387 207.182 132.081H206.703C205.73 131.137 204.641 130.32 203.462 129.651C202.879 129.342 202.352 128.939 201.901 128.457C201.61 128.03 200.996 128.357 200.793 127.866C199.574 127.258 198.672 126.209 197.506 125.513C196.996 125.248 196.503 124.951 196.03 124.624C195.6 124.29 195.383 123.697 194.791 123.574C194.184 123.447 193.932 122.815 193.361 122.611C192.795 122.408 192.457 121.85 191.976 121.527C191.508 121.237 191.086 120.877 190.724 120.462C190.365 120.043 189.917 119.709 189.414 119.483C188.782 119.16 188.211 118.731 187.724 118.214L187.176 118.153C186.613 117.437 185.835 116.919 184.956 116.676C184.936 116.499 184.87 116.33 184.766 116.185C184.661 116.04 184.522 115.925 184.36 115.849C182.639 115.064 181.418 113.519 179.654 112.792C179.48 112.73 179.328 112.619 179.217 112.471C179.105 112.324 179.038 112.148 179.024 111.964C177.936 111.478 177.007 110.694 176.345 109.703C175.668 108.962 175.067 108.155 174.551 107.295C174.172 106.81 173.945 106.224 173.899 105.611C173.227 104.984 173.183 104.035 172.711 103.297C172.357 102.74 172.414 102.704 172.697 102.045C172.686 102.009 172.685 101.964 172.661 101.939C172.521 101.792 172.376 101.65 172.248 101.522C172.072 100.739 172.465 99.9084 171.966 99.1795C171.989 99.108 172.015 99.0376 172.045 98.9688C172.325 98.3989 172.153 97.5879 172.941 97.2891C173.21 96.6637 173.532 96.0625 173.903 95.4921C174.049 95.2082 174.27 94.9693 174.541 94.8009C175.047 94.516 175.488 94.1182 175.983 93.8667C176.503 93.6119 176.984 93.2843 177.411 92.894C177.616 92.725 177.868 92.6228 178.133 92.601C178.521 92.5499 178.884 92.3776 179.169 92.1084C179.791 92.1469 180.416 92.0706 181.011 91.8832C181.473 91.6576 181.992 92.0301 182.422 92.2379C182.72 92.3818 182.981 92.2206 183.256 92.3595C183.771 92.8795 184.164 93.5074 184.406 94.1978C184.648 94.8882 184.734 95.6238 184.658 96.3514C184.343 96.5808 184.151 96.8863 183.708 97.0196C183.187 97.1176 182.675 97.2556 182.176 97.4324C181.78 97.5218 181.371 97.5319 180.971 97.4623C180.322 97.4928 179.671 97.4878 179.022 97.4471C178.33 97.3705 177.563 97.4339 177.213 96.528C177.039 96.0785 176.412 95.8786 176.283 95.304C175.838 95.4567 175.446 95.7321 175.151 96.0985C174.857 96.4649 174.672 96.9073 174.618 97.3743L173.723 98.182C173.53 99.678 173.805 101.197 174.511 102.53C174.754 103.025 174.482 103.484 174.763 104.037C174.803 104.077 175.052 104.206 175.074 104.366C175.383 105.468 175.93 106.488 176.676 107.356C177.109 108.053 177.504 108.908 178.437 109.172C178.765 109.684 179.186 110.13 179.679 110.486C180.509 111.292 181.545 111.789 182.38 112.579C183.148 113.215 183.969 113.783 184.834 114.278C185.438 114.677 186.035 115.085 186.654 115.465C187.564 116.047 188.443 116.675 189.288 117.348C190.073 118.035 190.923 118.645 191.826 119.168C192.066 119.322 192.272 119.523 192.434 119.758C192.957 120.285 193.598 120.681 194.304 120.912C194.597 120.297 193.942 119.83 194.153 119.288C193.714 118.945 193.981 118.464 193.909 118.049C193.824 117.555 194.036 117.058 193.693 116.547C193.39 116.098 193.903 115.598 193.937 115.084C193.969 114.609 193.31 114.22 193.858 113.661C193.916 113.588 193.958 113.503 193.981 113.413C194.004 113.322 194.007 113.228 193.991 113.136C193.974 113.044 193.938 112.957 193.885 112.88C193.832 112.803 193.763 112.738 193.683 112.69C193.632 112.381 193.901 112.329 193.899 112.196C194.026 110.866 194.338 109.56 194.827 108.316C194.982 107.74 195.025 107.103 195.22 106.523C195.6 105.661 196.029 104.822 196.504 104.009C197.208 102.691 198.142 101.51 199.262 100.52C200.132 100.258 200.699 99.3207 201.728 99.4121C202.515 98.7869 203.578 99.0115 204.414 98.5391C204.479 98.5022 204.549 98.4396 204.615 98.4418C205.582 98.4076 206.539 98.2448 207.463 97.9576C207.61 97.9244 207.762 97.9217 207.91 97.9496L211.316 96.6587L212.383 95.5943L211.063 94.9618C210.746 94.1402 209.882 93.7377 209.278 92.8701C209.075 92.2626 208.985 91.6231 209.011 90.9831C208.987 90.2631 209.492 89.6229 209.245 88.9208C209.74 88.2928 209.993 87.4886 211.163 87.2344H213.79C214.168 87.7361 214.706 88.0925 215.316 88.2437C215.352 88.6961 215.464 89.1392 215.647 89.5547C215.807 90.2027 215.877 90.8698 215.855 91.537C215.868 91.9617 215.733 92.4189 216.097 92.7766C216.08 93.6217 215.823 94.4447 215.356 95.1492C214.324 96.2225 213.151 97.1511 211.87 97.9096C211.063 97.8885 210.546 98.6536 209.752 98.6852C209.02 98.7143 208.403 99.1662 207.64 99.2106C206.989 99.2484 206.363 99.6515 205.674 99.7365C205.556 99.7511 205.439 99.9092 205.259 99.9037C204.117 100.009 202.99 100.244 201.9 100.603C201.387 100.759 200.914 101.022 200.509 101.373C199.623 101.923 198.878 102.672 198.332 103.561C197.877 104.297 197.472 105.064 197.122 105.856C196.557 107.248 196.112 108.688 195.616 110.108C195.797 110.914 195.222 111.644 195.377 112.443C195.406 112.767 195.308 113.091 195.104 113.344L195.372 113.703C195.127 114.414 195.043 115.171 195.125 115.918C195.02 117.078 195.559 118.188 195.372 119.352C195.621 119.847 195.705 120.41 195.613 120.957C195.615 121.493 196.184 121.774 196.106 122.385C196.55 122.058 196.162 121.615 196.505 121.32C196.701 121.793 196.505 122.282 196.657 122.823C198.052 123.408 199.088 124.691 200.812 125.48C201.79 126.314 202.841 127.058 203.953 127.701C204.333 127.966 204.823 128.157 205.001 128.661C205.164 128.661 205.326 128.661 205.494 128.661C206.212 129.307 206.985 129.889 207.805 130.4C208.664 130.9 209.494 131.449 210.291 132.044C211.589 133.021 212.826 134.076 213.995 135.205C214.293 135.567 214.8 135.674 215.104 136.063C215.378 136.413 215.846 136.65 216.014 137.031C216.225 137.512 216.693 137.605 216.996 137.934C218.036 139 218.963 140.17 219.764 141.426C219.974 141.71 220.214 141.97 220.479 142.203C220.441 142.857 220.836 143.132 221.445 143.365C221.524 143.725 221.367 144.224 221.854 144.582C222.149 144.877 222.347 145.256 222.421 145.666C222.646 146.266 222.923 146.846 223.248 147.398C223.419 147.774 223.564 148.162 223.681 148.558C224.079 149.47 224.32 150.443 224.393 151.435C224.362 152.45 224.404 153.466 224.377 154.481C224.445 154.874 224.374 155.278 224.177 155.624C223.967 155.917 224.289 156.401 224.171 156.867C223.809 158.306 223.658 159.798 223.163 161.207C222.752 162.375 222.312 163.535 221.867 164.691C221.636 165.291 221.29 165.846 221.023 166.416C220.771 166.956 220.488 167.494 220.261 168.047C220.107 168.527 219.828 168.957 219.452 169.292C219.208 169.484 219.28 169.719 219.266 169.947C218.33 170.933 217.521 172.024 216.537 172.97C214.728 174.759 212.535 176.111 210.124 176.924C209.716 177.438 208.94 177.26 208.526 177.781C208.291 178.078 207.927 177.832 207.623 177.946C206.348 178.419 204.986 178.608 203.72 179.118C202.756 178.945 201.855 179.489 200.895 179.364C200.735 179.344 200.504 179.43 200.42 179.349C200.117 179.057 199.607 178.981 199.446 179.151C199.18 179.432 198.906 179.02 198.703 179.297C198.64 179.383 198.388 179.399 198.255 179.353C197.404 179.114 196.537 178.936 195.66 178.823C195.156 178.725 194.496 178.798 194.074 178.227C193.869 177.949 193.282 178.312 193.007 177.899C192.197 177.945 191.585 177.403 190.866 177.186C189.614 176.779 188.431 176.186 187.357 175.426C186.103 176.271 184.863 177.04 183.7 177.911C182.441 178.855 181.021 179.532 179.734 180.434C178.797 180.992 177.797 181.435 176.755 181.752C175.513 182.226 174.159 182.301 172.91 182.77C172.831 182.79 172.748 182.79 172.668 182.773C172.057 182.695 171.407 182.972 170.833 182.566C170.578 182.728 170.288 182.828 169.986 182.858C169.685 182.888 169.381 182.846 169.099 182.736C168.07 182.524 167.025 182.68 166.031 182.488C165.216 182.353 164.391 182.286 163.564 182.287C163.175 182.276 162.867 182.001 162.445 182.019C162.015 182.115 161.566 182.071 161.162 181.893C160.782 181.776 160.381 181.745 159.987 181.802C159.774 181.796 159.732 181.463 159.398 181.607L159.081 181.809C158.802 181.621 158.431 181.594 158.194 181.315C156.958 181.413 155.766 180.993 154.519 181.026C153.729 180.936 152.954 180.745 152.213 180.458C151.476 180.177 150.687 180.06 149.901 180.115L149.478 179.61C148.003 179.499 146.557 179.138 145.202 178.543C144.512 178.375 143.824 178.16 143.143 177.937C142.77 177.883 142.409 177.765 142.076 177.588C141.76 177.323 141.455 177.505 141.02 177.313L140.681 176.882C139.785 177.138 139.026 176.501 138.216 176.694C138.058 176.51 137.856 176.367 137.629 176.281C137.402 176.194 137.156 176.166 136.915 176.199C136.607 176.247 136.405 175.985 136.161 175.968C135.708 175.906 135.271 175.756 134.876 175.527C134.466 175.329 133.975 175.705 133.633 175.286C132.858 175.382 132.326 174.736 131.574 174.633C130.865 174.527 130.176 174.32 129.525 174.02C128.594 173.728 127.679 173.388 126.782 173.002C126.294 172.792 125.78 172.648 125.254 172.573C124.67 172.421 124.096 172.229 123.537 172C122.743 171.56 121.886 171.244 120.996 171.065C120.86 171.049 120.739 170.909 120.608 170.831C119.242 170.114 117.8 169.55 116.309 169.149C115.853 168.974 115.407 168.772 114.974 168.545C114.512 168.329 114 168.404 113.553 168.145C112.712 167.64 111.845 167.181 110.955 166.769C109.48 166.12 108.115 165.244 106.912 164.172C106.681 163.965 106.332 163.961 106.14 163.662C105.991 163.428 105.733 163.072 105.55 163.087C105.077 163.126 105.186 162.675 104.945 162.514C104.356 161.988 103.991 161.257 103.923 160.471C103.892 160.153 104.198 159.853 104.058 159.655C103.856 159.367 104.051 159.097 103.854 158.793C104.545 158.503 104.294 157.625 104.916 157.297C104.842 156.988 105.098 156.859 105.269 156.716C106.04 155.964 106.752 155.154 107.397 154.293C107.696 153.954 108.059 153.709 108.357 153.383C108.713 152.994 109.085 152.616 109.478 152.264C109.805 151.93 110.179 151.645 110.589 151.418C111 151.228 111.19 150.833 111.57 150.612C111.931 150.402 112.319 150.245 112.671 150.027C113.4 149.537 114.291 149.35 115.156 149.503L115.156 149.786C114.217 150.069 113.331 150.505 112.533 151.077C112.048 151.514 111.469 151.844 110.953 152.25C110.395 152.688 110.038 153.361 109.329 153.631C109.272 153.654 109.22 153.688 109.177 153.732C109.133 153.775 109.099 153.828 109.077 153.885C108.852 154.418 108.511 154.893 108.078 155.276C107.698 155.742 107.262 156.163 106.841 156.595C106.13 157.488 105.57 158.492 105.182 159.566C105.102 159.922 105.095 160.292 105.16 160.651C105.628 161.335 106.156 161.975 106.739 162.564C107.233 163.076 107.793 163.518 108.406 163.879C108.93 164.195 109.389 164.749 110.113 164.753C110.376 164.754 110.54 165.078 110.75 165.243C111.769 165.896 112.863 166.423 114.009 166.813C114.565 167.068 115.236 167.184 115.804 167.475C116.345 167.752 117.021 167.637 117.495 168.131C117.611 168.253 117.963 168.149 118.213 168.149C118.706 168.697 119.39 169.035 120.125 169.093C120.788 169.248 121.432 169.476 122.044 169.773C123.016 170.288 124.058 170.655 125.138 170.864C125.801 171.002 126.435 171.254 127.012 171.608C127.598 171.94 128.269 172.088 128.94 172.035L129.327 172.509C130.521 172.584 131.683 172.927 132.726 173.512C133.048 173.451 133.379 173.462 133.696 173.547C134.013 173.631 134.306 173.786 134.555 173.999C135.708 174.08 136.725 174.828 137.907 174.714C138.241 174.681 138.406 174.915 138.652 175C139.771 175.213 140.848 175.607 141.841 176.165C142.191 176.155 142.54 176.187 142.882 176.262C144.402 176.548 145.882 177.016 147.29 177.657C147.762 177.617 148.236 177.696 148.669 177.889C149.315 178.247 150.112 178.078 150.774 178.394C151.413 178.644 152.078 178.823 152.756 178.93C153.21 179.019 153.669 179.083 154.131 179.121C154.401 179.132 154.67 179.17 154.933 179.235C155.81 179.496 156.704 179.699 157.608 179.842C158.555 180.01 159.517 180.054 160.46 180.31C161.046 180.468 161.72 180.237 162.302 180.58C163.414 180.581 164.526 180.662 165.626 180.826C166.236 180.818 166.845 180.824 167.455 180.824C167.829 181.379 168.58 180.771 168.959 181.312C169.795 181.396 170.64 181.35 171.462 181.174C171.769 181.045 171.906 181.562 172.143 181.251C172.361 180.963 172.659 181.07 172.922 181.074C173.848 181.034 174.764 180.86 175.639 180.556C176.729 180.363 177.75 179.891 178.603 179.186C179.664 178.876 180.645 178.338 181.476 177.609C182.312 177.194 183.081 176.655 183.756 176.01C184.087 175.688 184.47 175.424 184.889 175.231C185.128 175.114 185.318 174.917 185.425 174.675Z" fill="#222323"/>
<path d="M84.023 86.7527C82.99 86.6628 82.8639 85.6904 82.2464 85.1641V84.1836L81.7657 83.7031C81.6997 82.8647 81.5365 82.0369 81.2793 81.2362C81.1353 80.4279 81.4534 79.5652 81.0605 78.7776C80.916 78.4981 81.3126 78.4271 81.2716 78.1496C81.2858 77.1503 81.4922 76.163 81.8794 75.2417C82.0481 74.6224 82.2537 74.0137 82.495 73.4189C82.7025 72.7682 83.0366 72.1649 83.4781 71.6438C83.9195 71.1227 84.4597 70.694 85.0674 70.3824C85.8404 69.991 86.5944 69.56 87.3793 69.1948C88.3283 68.8312 89.2951 68.5158 90.276 68.2497C91.1962 67.9298 92.1844 67.7639 93.1402 67.5247C93.8022 67.359 94.4662 67.2126 95.1298 67.0236C96.0765 66.7454 96.9723 66.3171 97.7832 65.755C98.0215 65.6398 98.2345 65.4785 98.4101 65.2804C98.5856 65.0824 98.7202 64.8515 98.806 64.6011C98.8803 64.2781 99.1371 64.1639 99.3071 63.9541C99.6072 63.4418 99.7975 62.8727 99.8659 62.2829C100.095 61.4286 99.9239 60.5701 100.115 59.7358C100.13 59.6687 100.224 59.6196 100.281 59.5625C100.2 59.4755 100.118 59.3882 100.034 59.297C100.008 58.844 100.517 58.7893 100.601 58.4914C101.124 58.4347 101.654 58.5037 102.146 58.6926C102.625 58.823 103.129 58.6353 103.644 58.9167C104.051 59.1391 104.669 58.7825 105.109 59.1942C105.918 59.2061 106.718 59.3645 107.471 59.6618C108.226 59.808 108.901 60.1624 109.626 60.3468C111.065 60.6704 112.479 61.0934 113.858 61.6129C114.217 61.6835 114.586 61.6899 114.948 61.6317C115.261 61.8437 115.688 61.8871 115.882 62.2764C115.392 62.9634 114.785 63.56 114.09 64.0395C113.822 64.2042 114.025 64.5021 113.908 64.6937C113.771 64.8704 113.614 65.0315 113.442 65.1745C113.531 65.6741 113.298 66.2353 113.586 66.7646C113.585 68.5865 113.184 70.386 112.411 72.0356C111.961 72.7136 111.476 73.3675 110.957 73.9948C110.474 74.5649 109.917 75.0688 109.301 75.4934C108.603 76.0352 107.853 76.5055 107.061 76.8974C106.435 77.166 105.785 77.3741 105.119 77.5189C104.125 77.7986 103.047 77.5614 102.094 78.1651C101.692 78.4197 101.053 78.2066 100.503 78.4231C99.5103 78.7266 98.6077 79.2698 97.8747 80.0048C97.7363 80.4125 98.0371 80.8924 97.622 81.2574C97.5812 81.327 97.559 81.406 97.5574 81.4867C97.5559 81.5674 97.5752 81.6471 97.6134 81.7182C98.037 82.2052 97.9537 82.8727 98.2698 83.4036C98.639 84.0398 99.0803 84.6314 99.5848 85.1666C99.845 85.5204 100.179 85.8131 100.564 86.0242C100.906 86.1653 100.864 86.7042 101.281 86.8144L100.918 87.265C101.663 87.1254 102.301 87.4596 102.874 86.9868C102.923 86.9469 103.034 86.9708 103.114 86.9831C104.156 87.1452 105.141 86.5752 106.181 86.7412C106.557 86.8011 106.776 86.4052 107.182 86.4721C107.503 86.5251 107.897 86.6326 108.197 86.2852C108.269 86.2019 108.502 86.2528 108.662 86.2513C109.027 86.2479 109.394 86.2666 109.758 86.2453C110.075 86.2268 110.45 86.3889 110.696 86.1747C111.075 85.8464 111.261 86.3647 111.636 86.2834C112.925 86.1404 114.229 86.3101 115.438 86.7781C116.507 87.0152 117.56 87.3191 118.59 87.688C119.695 88.0065 120.709 88.5786 121.554 89.3587C121.85 89.668 122.203 89.9184 122.592 90.0968C123.354 90.5748 124.065 91.1297 124.713 91.7526C125.759 92.6569 126.655 93.7215 127.367 94.9067C127.578 95.2088 127.801 95.4471 127.638 95.8524C127.605 95.9351 127.738 96.1249 127.839 96.2146C128.339 96.6566 128.262 97.3404 128.556 97.8723C128.845 98.3957 128.86 99.0482 129.283 99.5195C129.307 100.61 129.994 101.586 129.8 102.726C129.752 103.252 129.747 103.781 129.785 104.307C129.785 104.998 129.746 105.691 129.796 106.378C129.846 107.061 129.357 107.651 129.539 108.242C128.752 109.869 127.696 111.352 126.416 112.628C126.394 112.713 126.38 112.799 126.374 112.886C126.407 113.633 125.777 114.324 126.337 115.143C126.647 115.782 126.924 116.437 127.167 117.104C127.271 117.298 127.258 117.576 127.466 117.698C128.341 118.233 129.289 118.638 130.28 118.901C130.397 118.95 130.482 119.081 130.568 119.076C131.715 119.011 132.72 119.738 133.873 119.652C134.294 119.621 134.754 119.527 135.113 119.888C135.389 119.886 135.545 119.613 135.866 119.629C137.588 119.566 139.261 119.031 140.701 118.084C141.036 117.909 141.278 117.558 141.748 117.714C141.674 117.441 141.448 117.404 141.489 117.207C141.486 116.9 141.827 116.914 141.849 116.752C142.193 116.637 142.222 117.011 142.448 116.965C142.524 116.936 142.614 116.929 142.662 116.881C143.07 116.396 143.564 115.991 144.119 115.685C144.572 115.444 144.975 115.12 145.306 114.728C146.243 113.851 147.279 113.084 148.391 112.443C148.993 112.135 149.61 111.857 150.24 111.612C150.768 111.8 151.374 111.475 151.94 111.307C152.552 111.172 153.177 111.107 153.804 111.113C154.43 111.113 155.054 111.049 155.667 110.92C156.284 110.755 156.939 110.806 157.523 111.064C158.141 111.198 158.779 111.214 159.403 111.112C159.554 111.197 159.67 111.332 159.73 111.494C159.791 111.656 159.792 111.834 159.733 111.997C159.515 112.336 158.936 112.583 158.865 113.201C158.695 113.857 159.009 114.597 158.569 115.26C158.509 115.35 158.552 115.545 158.625 115.711C158.837 116.191 158.86 116.814 159.188 117.167C159.58 117.589 159.428 118.289 160.018 118.546C160.437 119.527 160.685 120.574 160.751 121.639C160.466 122.238 160 122.02 159.631 122.102C159.488 122.247 159.344 122.39 159.142 122.592L158.901 122.034C157.201 122.121 155.515 122.379 153.867 122.805C152.992 123.081 152.185 123.539 151.499 124.148C150.886 124.635 150.348 125.226 149.704 125.663C149.037 126.116 148.543 126.755 147.908 127.214C146.824 128.194 145.605 129.012 144.287 129.643C143.725 130.225 143.006 130.631 142.218 130.812C141.535 131.137 140.833 131.42 140.116 131.659C139.412 131.835 138.7 131.97 137.981 132.064C136.844 132.103 135.705 132.103 134.569 132.061C134.073 132.043 133.578 132.223 133.061 131.867C132.68 131.606 132.028 132.068 131.601 131.587C130.701 131.6 129.862 131.203 128.997 131.141C128.236 131.043 127.492 130.848 126.781 130.561C126.11 130.443 125.456 130.242 124.834 129.964C124.258 129.574 123.575 129.375 122.881 129.393C122.078 128.734 120.996 128.584 120.193 127.947C119.707 127.561 119.18 127.253 118.676 126.905C118.279 126.63 117.923 126.3 117.618 125.926C117.144 125.455 116.641 125.015 116.111 124.609C115.404 123.942 114.732 123.238 114.08 122.584C113.84 122.532 113.639 122.635 113.46 122.464C113.047 122.068 112.404 122.235 111.983 121.927C111.563 121.673 111.12 121.46 110.66 121.291C110.215 121.075 109.804 121.214 109.418 121.084C109.228 120.913 109.005 120.783 108.763 120.702C108.52 120.621 108.264 120.591 108.01 120.613C107.321 120.567 106.629 120.575 105.942 120.638C103.584 120.862 101.216 120.944 98.8486 120.882C98.149 120.935 97.5454 120.57 96.8763 120.623C96.2703 120.558 95.6738 120.425 95.0981 120.224C93.9502 120.072 92.9036 119.554 91.7709 119.426C91.3734 119.381 91.0857 118.975 90.6559 119.156C90.1692 118.526 89.1903 118.897 88.7319 118.21C87.9991 118.288 87.6291 117.588 86.989 117.407C86.1793 117.205 85.4803 116.695 85.0407 115.986C85.0005 115.918 84.9195 115.814 84.8719 115.821C84.1078 115.937 83.9216 115.173 83.4785 114.841C82.9832 114.47 82.4827 114.074 81.9933 113.681C81.2255 113.211 80.5814 112.564 80.1148 111.794C80.0224 111.593 79.7979 111.591 79.6215 111.575C79.4531 111.144 79.7804 110.633 79.1829 110.385C79.5161 109.949 79.3523 109.325 80.0541 109.374C79.8558 109.026 79.6832 108.664 79.5377 108.291C79.4755 107.795 79.2707 107.328 78.9483 106.947C78.6585 106.683 78.7838 106.367 79.0619 106.125C78.7287 105.698 78.554 105.168 78.5676 104.626C78.5595 103.564 78.6689 102.506 78.8939 101.469C79.3092 100.644 79.8019 99.8611 80.3654 99.1298C80.8933 98.486 81.2874 97.7433 81.5243 96.9452C81.677 96.5482 81.8694 96.1677 82.0984 95.8093C82.3309 95.7677 82.5395 95.6411 82.6837 95.4541C82.8499 94.9071 82.4984 94.3567 82.958 93.8974C83.003 93.8059 83.0267 93.7053 83.0273 93.6033C83.0278 93.5013 83.0051 93.4005 82.961 93.3085C82.8005 93.0412 82.7119 92.7368 82.7039 92.425C82.696 92.1133 82.7689 91.8048 82.9155 91.5296C82.9992 91.3815 82.7579 91.2411 82.709 91.052C82.6217 90.3708 82.4733 89.6989 82.2655 89.0444C82.0797 88.6354 82.4032 88.2134 82.6803 87.9012C83.0403 87.4263 83.4983 87.0344 84.0232 86.7523C84.2693 86.7325 84.5111 86.6764 84.7406 86.5856C85.7864 86.1171 86.9097 85.8458 88.0541 85.7855C89.0671 85.7257 90.0825 85.7175 91.0963 85.7609C91.7876 85.7556 92.4673 85.9386 93.0624 86.2904C93.6383 86.5681 94.2283 86.8156 94.8299 87.032C95.4641 87.3402 96.2042 86.9081 96.6657 87.5292C96.8571 87.3285 97.1082 87.1951 97.3816 87.1489C97.655 87.1027 97.936 87.1463 98.1827 87.273C98.8317 87.5852 99.4073 87.3698 100.245 87.5196C99.4018 86.9623 98.6093 86.3321 97.8765 85.6365C97.3293 84.8107 96.8305 83.9539 96.3827 83.0703C96.3827 82.8901 96.512 82.463 96.354 82.2664C96.0795 81.9246 96.1893 81.589 96.1331 81.2494C96.0898 80.9872 96.438 80.7979 96.1754 80.4488C96.0467 80.2777 96.467 79.8658 96.4243 79.5714C97.0189 78.6745 98.0076 78.3673 98.7587 77.7462C98.8504 77.6453 98.9643 77.5669 99.0913 77.5173C99.2183 77.4677 99.3551 77.4482 99.491 77.4602C99.9601 77.5513 100.347 77.1901 100.789 77.085C101.154 76.9983 101.501 76.8337 101.866 76.7512C102.276 76.6587 102.693 76.839 103.127 76.5331C103.427 76.321 103.989 76.6395 104.342 76.2567C105.581 76.2534 106.782 75.8306 107.749 75.0573C107.898 74.9495 108.122 74.9808 108.077 74.6658C107.534 74.2791 106.952 73.9521 106.339 73.6906C105.285 73.3588 104.383 72.7268 103.36 72.3476C103.081 72.2442 102.847 71.9035 102.583 71.8935C101.907 71.7781 101.267 71.5073 100.713 71.1023C100.081 70.845 99.467 70.5466 98.8742 70.209C98.4197 69.8084 97.8668 69.5359 97.2722 69.4196L96.3401 68.4718C96.4157 68.4672 96.4891 68.4446 96.5541 68.4058C96.6192 68.3671 96.6741 68.3133 96.7141 68.249C97.2735 68.5449 97.8697 68.7654 98.487 68.9048C99.6547 69.5952 100.906 70.1329 102.211 70.5049C103.121 71.0368 104.078 71.4822 105.071 71.8354C106.136 72.4775 107.274 72.9888 108.462 73.3581C108.754 73.4123 108.794 73.8066 108.942 74.0709C109.323 73.6454 109.651 73.2603 109.963 72.8573C110.225 72.4501 110.547 72.0838 110.916 71.7702C111.237 71.5364 111.281 70.9229 111.448 70.4805C110.994 70.0678 110.373 70.3073 109.897 70.1102C109.116 69.7872 108.274 69.7511 107.493 69.4444C106.693 69.2354 105.908 68.9739 105.143 68.6617C104.646 68.3832 104.157 68.5669 103.684 68.3449C102.1 67.619 100.438 67.0756 98.7309 66.7251C98.1911 67.3794 97.3306 67.4889 96.6903 67.9692C96.48 67.9213 96.2612 67.9258 96.0531 67.9823C95.845 68.0389 95.654 68.1457 95.4968 68.2934C95.1251 68.6239 94.5678 68.1982 94.3126 68.6981C93.4611 68.7304 92.7313 69.3783 91.8358 69.1879C91.255 69.6877 90.503 69.376 89.8279 69.6289C88.5945 70.0909 87.3809 70.5788 86.1819 71.1241C85.2971 71.5231 84.5843 72.2256 84.1724 73.1045C83.7562 73.92 83.5698 74.8053 83.2112 75.6306C82.8643 76.1907 82.6962 76.8431 82.7291 77.5011C82.7282 78.8811 82.7666 80.2626 82.7135 81.6406C82.6856 82.364 83.1033 83.0018 83.0018 83.72C83.3314 83.8843 83.14 84.23 83.2611 84.4649C83.7111 85.1476 83.9738 85.9365 84.023 86.7527ZM84.0386 88.1711C83.8191 88.786 84.1892 89.1717 84.1624 89.5689C84.1318 90.024 84.6448 90.3466 84.3947 90.7924C84.1666 91.1989 84.5699 91.5462 84.4473 91.9527C84.3267 92.3527 84.6251 92.8435 84.1984 93.1909C84.6784 93.6205 84.3212 94.1802 84.4789 94.7296L83.9516 95.1178C83.9947 95.498 83.8961 95.8807 83.6746 96.1928C83.2397 96.7208 82.8822 97.3082 82.613 97.9371C82.0687 98.9486 81.4324 99.9078 80.7121 100.803C80.3487 101.34 80.1208 101.957 80.0478 102.601C80.0443 103.372 80.079 104.146 80.0389 104.915C80.0453 105.884 80.2027 106.847 80.5054 107.767C80.6328 108.256 80.8971 108.698 81.2672 109.041C81.2522 109.428 81.3683 109.843 80.8845 110.153C81.3956 110.51 81.5796 111.006 82.0424 111.314C82.5066 111.622 82.7956 112.238 83.2802 112.461C83.7934 112.697 84.0679 113.178 84.5958 113.399C85.0465 113.587 85.3126 114.177 85.7448 114.461C86.209 114.725 86.6535 115.022 87.0747 115.35C87.4855 115.697 87.9354 115.995 88.4153 116.238C88.9036 116.442 89.3771 116.679 89.8327 116.948C90.2824 117.232 90.7529 117.481 91.2402 117.694C91.5912 117.694 92.0838 117.547 92.2925 117.728C92.6018 117.996 92.9936 117.802 93.2607 118.09C93.5111 118.359 93.9063 118.155 94.2571 118.324C95.0662 118.713 95.9921 118.801 96.8478 119.122C97.4039 119.25 97.9809 119.258 98.5402 119.145C99.1474 119.087 99.6535 119.472 100.27 119.415C101.654 119.289 103.039 119.397 104.44 119.209C106.141 119.083 107.848 119.063 109.551 119.15C109.811 119.148 109.991 119.339 110.186 119.377C111.428 119.617 112.454 120.394 113.657 120.725C113.809 120.766 113.899 121.032 113.934 121.08C114.727 121.148 115.376 120.984 115.955 121.35C117.05 121.248 118.159 121.219 119.236 121.021C119.971 120.788 120.732 120.651 121.502 120.615C122.08 120.649 122.656 120.513 123.159 120.226C123.497 120.031 123.901 120.002 124.186 119.749C124.519 119.453 124.822 119.122 125.068 118.876C125.472 117.659 124.684 116.903 124.178 116.057C124.252 115.614 124.241 115.161 124.144 114.723C123.926 114.241 124.339 113.886 124.193 113.443C124.148 113.232 124.163 113.013 124.237 112.81C124.311 112.607 124.44 112.429 124.61 112.296C125.247 111.688 125.621 110.863 126.315 110.31C126.435 110.215 126.612 110.061 126.6 109.951C126.534 109.345 127.087 109.166 127.36 108.755C127.161 108.33 127.683 107.869 127.347 107.409C127.688 107.093 127.461 106.621 127.62 106.306C127.821 105.907 127.56 105.613 127.594 105.275C127.609 105.123 127.533 104.963 127.666 104.817C127.723 104.763 127.768 104.698 127.798 104.626C127.829 104.554 127.845 104.477 127.845 104.399C127.846 104.321 127.83 104.243 127.799 104.171C127.769 104.099 127.724 104.034 127.667 103.98C127.466 103.71 127.578 103.35 127.603 103.041C127.704 102.323 127.591 101.59 127.278 100.936C127.069 100.532 126.915 100.101 126.821 99.6558C126.75 99.0885 126.522 98.5522 126.163 98.1071C126.183 97.759 126.133 97.4105 126.015 97.0824C125.897 96.7543 125.714 96.4533 125.477 96.1974C125.397 96.0737 125.374 95.9133 125.3 95.7848C124.539 94.108 123.251 92.7261 121.632 91.85C121.494 91.7654 121.375 91.6525 121.283 91.5188C120.706 90.8887 119.986 90.4058 119.184 90.1103C118.932 90.0191 118.696 89.8897 118.483 89.7265C117.712 89.256 116.876 88.8992 116.002 88.667C115.363 88.457 114.618 88.5153 114.072 87.9697C113.025 88.0471 111.966 87.3155 110.858 87.9209C110.806 87.8729 110.719 87.7257 110.629 87.7235C109.862 87.6386 109.087 87.646 108.322 87.7456C107.334 87.9684 106.318 87.9739 105.355 88.228C104.698 88.2807 104.044 88.3694 103.397 88.4937C102.875 88.6732 102.32 88.7322 101.772 88.6661C101.166 88.6459 100.666 89.0378 100.042 88.9512C99.3963 88.863 98.7421 88.8626 98.0968 88.95C97.3969 89.0455 96.7937 88.6461 96.1236 88.6899C94.84 88.7887 93.5607 88.4514 92.4926 87.7327C92.2984 87.6214 92.0975 87.5224 91.891 87.4362C91.4281 87.2185 90.8778 87.3801 90.4686 87.0409C89.9551 87.526 89.487 86.9091 88.9885 86.9779C88.8291 86.9999 88.6027 86.9125 88.512 86.9932C88.0917 87.367 87.5999 87.2158 87.1401 87.2174C86.0474 87.2965 84.9869 87.6226 84.0386 88.1711ZM146.322 126.378L145.775 125.27C145.245 125.33 145.279 124.815 145.177 124.565C145.044 124.238 144.397 124.233 144.658 123.705C143.77 122.948 143.857 121.644 143.052 120.841C143.106 120.285 142.483 120.017 142.471 119.501C142.464 119.151 142.253 119.022 141.897 118.865C141.774 119.23 141.376 119.248 141.08 119.368C140.489 119.608 139.958 119.965 139.337 120.163C138.735 120.355 138.134 120.585 137.53 120.791C136.905 121.005 136.194 120.687 135.584 121.095C135.511 121.133 135.43 121.153 135.348 121.153C135.267 121.153 135.186 121.133 135.113 121.094C134.69 120.75 134.206 120.868 133.744 120.87C133.486 120.897 133.225 120.865 132.981 120.777C132.737 120.688 132.516 120.546 132.335 120.36C131.364 120.57 130.628 119.851 129.746 119.637C128.918 119.403 128.118 119.081 127.359 118.676C126.33 119.148 126.302 120.31 125.494 120.862C125.377 120.862 125.229 120.817 125.138 120.87C124.433 121.225 123.7 121.521 122.946 121.754C121.513 122.196 120.03 122.458 118.532 122.532C117.64 122.587 116.756 122.721 115.889 122.935C116.751 123.279 117.218 124.117 117.991 124.602C118.636 125.007 119.218 125.544 119.858 125.986C120.423 126.439 121.05 126.807 121.721 127.079C122.43 127.314 122.914 128.106 123.803 127.939C123.85 127.931 123.923 128.037 123.976 128.097C124.38 128.46 124.906 128.656 125.449 128.646C126.183 128.747 126.889 128.997 127.524 129.381C128.281 129.363 129.034 129.494 129.741 129.764C130.474 130.023 131.247 130.146 132.024 130.127C132.348 130.116 132.747 130.006 132.981 130.152C133.147 130.258 133.332 130.33 133.526 130.364C133.72 130.398 133.918 130.393 134.11 130.35C134.591 130.247 134.927 130.578 135.352 130.619C136.835 130.765 138.275 130.21 139.757 130.365C139.833 130.368 139.908 130.344 139.97 130.298C140.685 129.881 141.442 129.54 142.229 129.283C143.179 128.793 144.083 128.216 144.928 127.562C145.44 127.196 146.054 126.971 146.322 126.378ZM104.782 60.6537C104.046 59.7465 102.889 60.5292 102.075 59.8572C102.032 60.2589 101.68 60.4984 101.947 60.8219C101.563 61.144 101.734 61.5867 101.769 61.9543C101.807 62.3489 101.534 62.6074 101.483 62.9615C101.831 63.0323 102.047 63.3629 102.427 63.3415C103.039 63.3752 103.642 63.5085 104.211 63.7363C104.793 63.8941 105.473 63.7199 105.951 64.2433C105.995 64.2912 106.09 64.2975 106.164 64.312C107.505 64.5763 108.881 64.5302 110.229 64.7756C110.692 64.8232 111.139 64.9757 111.534 65.2215C111.392 65.4601 111.64 65.7678 111.386 66.0109C111.234 65.9926 111.08 66.0059 110.933 66.05C110.786 66.094 110.65 66.1679 110.533 66.267C110.262 66.2058 110.082 65.9583 109.767 66.0089C109.492 66.0815 109.202 66.0738 108.931 65.9867C108.046 65.6395 107.121 65.4006 106.178 65.2751C105.861 65.1406 105.523 65.0607 105.179 65.0387C103.747 65.0106 102.334 64.6976 101.024 64.118C100.775 64.5406 100.53 65.0187 100.221 65.4503C100.1 65.6184 99.6084 65.514 99.8956 66.0244C100.873 66.0726 101.835 66.2875 102.74 66.6599C103.215 66.7541 103.772 66.7245 104.089 67.2331C104.112 67.2696 104.248 67.2213 104.324 67.2404C105.611 67.562 106.915 67.8327 108.175 68.2388C108.7 68.4579 109.247 68.6201 109.806 68.7228C110.089 68.7524 110.367 69.0796 110.676 68.9322C111.091 68.7339 111.278 69.3481 111.741 69.1118C111.627 68.5722 112.064 68.1787 112.231 67.6757C112.084 67.5197 111.994 67.3191 111.974 67.1058C111.954 66.8924 112.006 66.6785 112.121 66.4981C112.169 66.4471 112.205 66.3871 112.229 66.3218C112.252 66.2565 112.262 66.1871 112.259 66.1178C112.255 66.0484 112.237 65.9805 112.207 65.9181C112.176 65.8557 112.134 65.8001 112.081 65.7544C112.023 65.6977 111.984 65.6245 111.969 65.5447C111.954 65.4649 111.964 65.3824 111.997 65.3084C112.33 64.464 112.554 63.5305 113.488 63.1021C113.756 62.9793 113.728 62.8474 113.6 62.5954C112.544 62.7244 111.478 62.4687 110.595 61.875C109.916 61.9052 109.242 61.7464 108.648 61.4163C108.442 61.3085 108.244 61.0906 107.909 61.1281C106.866 61.2452 105.961 60.6275 104.959 60.4929L104.782 60.6537ZM150.98 112.86C151.154 113.041 151.252 113.282 151.253 113.534C151.237 113.762 151.148 114.022 151.317 114.231C151.858 114.962 152.245 115.796 152.452 116.682C152.468 116.796 152.522 116.903 152.606 116.983C152.928 117.234 152.981 117.644 153.194 117.957C153.643 118.616 153.646 119.539 154.411 120.01C154.36 120.355 154.755 120.516 154.753 120.822C155.29 121.061 155.709 120.57 156.229 120.608C156.834 120.653 157.445 120.621 158.054 120.615C158.136 120.6 158.215 120.573 158.289 120.535V119.739C157.669 119.053 157.269 118.196 157.141 117.28C157.007 116.929 156.822 116.599 156.591 116.302C157.131 115.352 156.666 114.32 156.905 113.375C157.072 113.151 157.399 113.043 157.325 112.665C156.988 112.556 156.631 112.526 156.281 112.579C155.917 112.56 155.551 112.575 155.186 112.575C154.82 112.575 154.455 112.568 154.09 112.577C153.732 112.586 153.277 112.481 153.04 112.66C152.71 112.907 152.46 112.275 152.144 112.724C151.945 113.007 151.46 112.761 150.98 112.86ZM149.999 123.17C149.846 122.92 149.65 122.751 149.51 122.498C148.436 120.559 147.734 118.443 146.626 116.521C146.479 116.266 146.395 116.041 146.008 115.969C145.745 116.431 145.149 116.52 144.78 116.948C144.595 117.221 144.357 117.454 144.08 117.635C143.804 117.816 143.495 117.94 143.17 118.002C143.24 118.261 143.092 118.493 143.292 118.639C143.747 119.06 144.098 119.58 144.318 120.159C144.479 120.587 144.709 120.985 145 121.338C145.273 121.652 145.465 122.028 145.56 122.434C145.695 122.852 146.294 123.009 146.121 123.541C146.651 124.131 146.775 125.008 147.509 125.491C148.175 124.561 149.269 124.116 149.999 123.17L149.999 123.17ZM150.509 115.753C150.724 114.898 150.171 114.026 150.239 113.144C149.051 113.616 147.962 114.305 147.027 115.177C147.306 115.775 147.624 116.353 147.981 116.908C148.257 117.358 148.488 117.85 148.796 118.283C149.081 118.729 149.328 119.198 149.534 119.685C150.002 120.651 150.465 121.619 150.969 122.669C151.668 122.058 152.654 122.013 153.115 121.309C152.945 120.551 152.649 119.826 152.239 119.166C152.104 118.868 151.785 118.754 151.718 118.406C151.416 117.479 151.01 116.589 150.509 115.753H150.509Z" fill="#222323"/>
<path d="M142.368 145.758C143.459 145.725 144.552 145.795 145.63 145.968C146.241 146.268 146.938 146.346 147.6 146.188C148.064 146.166 148.393 146.48 148.841 146.477C149.255 146.474 149.713 146.276 150.112 146.641C150.227 146.746 150.493 146.693 150.69 146.698C152.039 146.764 153.373 147.001 154.661 147.405C155.235 147.559 155.75 147.877 156.145 148.321C155.953 149.09 155.635 149.822 155.204 150.487C154.715 151.203 153.902 151.646 153.611 152.497C152.748 152.843 152.357 153.811 151.482 154.124C151.156 154.259 150.867 154.469 150.64 154.738C149.705 155.762 148.645 156.665 147.485 157.425C146.729 158.712 145.218 158.802 144.098 159.513C143.468 159.771 142.808 159.949 142.133 160.042C141.331 160.289 140.507 160.46 139.673 160.552C138.866 160.731 138.044 160.832 137.217 160.854C135.988 160.655 134.744 160.568 133.499 160.593C133.047 160.346 132.523 160.262 132.016 160.354C131.517 160.287 131.023 160.19 130.536 160.065C129.923 160.006 129.315 159.858 128.683 159.852C128.063 159.8 127.447 159.705 126.841 159.569C126.132 159.448 125.433 159.273 124.751 159.045C124.504 158.939 124.237 158.889 123.969 158.9C123.387 158.896 122.811 158.777 122.276 158.548C122.147 158.519 122.026 158.371 121.853 158.4C120.824 158.426 119.795 158.333 118.787 158.124C118.048 157.976 117.318 157.783 116.603 157.546C115.69 157.261 114.754 157.052 113.806 156.924C113.609 156.727 113.408 156.526 113.207 156.325L113.207 155.575C113.634 155.384 113.677 154.886 113.975 154.568C114.463 154.109 114.989 153.691 115.546 153.319C116.05 152.912 116.51 152.452 116.918 151.949C117.498 151.14 118.149 150.384 118.863 149.69C119.028 149.527 119.23 149.405 119.452 149.336C119.836 149.243 120.006 148.82 120.36 148.644C120.768 148.44 121.222 148.386 121.643 148.206C122.014 148.027 122.397 147.873 122.79 147.747C124.257 147.23 125.638 146.496 126.886 145.568C127.795 145.108 128.749 144.747 129.734 144.488C131.236 144.279 132.752 144.198 134.268 144.244C134.889 144.188 135.378 144.608 135.999 144.524C136.595 144.383 137.216 144.393 137.806 144.552C138.39 144.724 138.987 144.85 139.59 144.93C140.178 145.145 140.799 145.259 141.425 145.267C141.609 145.273 141.789 145.321 141.952 145.406C142.115 145.491 142.257 145.611 142.368 145.758Z" fill="#212222"/>
<path d="M170.804 49.9316L171.18 49.6827C171.847 49.993 172.57 50.1669 173.306 50.1944C174.143 50.2768 174.969 50.4551 175.766 50.7258C176.63 50.8455 177.475 51.073 178.282 51.4029C179.043 51.7732 179.935 51.6754 180.665 52.1253C182.126 52.3632 183.559 52.7452 184.945 53.266C185.992 53.4371 187.002 53.7907 187.927 54.3106C188.643 54.0239 189.037 54.7596 189.652 54.8851C190.23 54.9909 190.75 55.3037 191.114 55.7649C191.169 55.8416 191.423 55.7755 191.559 55.7755C191.963 56.0385 192.142 56.6112 192.744 56.5128C193.231 57.0553 194.08 57.2684 194.172 58.1826C194.276 58.5396 194.434 58.8785 194.641 59.1877C194.607 59.8412 194.613 60.4962 194.659 61.149C194.703 61.6954 194.59 62.2429 194.335 62.7278C194.003 63.414 193.783 64.1287 193.524 64.832C193.277 65.5037 192.716 66.0405 192.69 66.8027C191.838 67.7388 191.945 69.0927 191.244 70.1085C191.051 70.525 190.8 70.912 190.499 71.2579C190.245 71.4954 190.081 71.8124 190.033 72.1561C189.99 72.4957 189.844 72.8137 189.613 73.0669C189.292 73.4064 189.102 73.8498 189.079 74.3168C188.944 75.0257 188.698 75.7088 188.351 76.3411C188.297 76.5179 188.272 76.7022 188.277 76.887L187.528 77.5134C187.743 78.2137 187.326 78.7318 187.256 79.3145C187.191 79.5557 187.074 79.7799 186.914 79.9717C186.754 80.1635 186.554 80.3183 186.328 80.4256C185.263 81.0082 184.045 81.2511 182.838 81.1216C182.744 81.1151 182.659 80.9719 182.571 80.8936L182.312 81.1344C181.547 80.8402 180.706 80.81 179.921 81.0486C179.308 81.3089 178.642 81.4238 177.977 81.3845C177.715 81.3379 177.428 81.5316 177.216 81.5541C176.845 81.5933 176.591 81.8717 176.23 81.8693C175.886 81.867 175.497 81.7412 175.234 82.1063C174.07 81.9066 173.071 82.7351 171.898 82.6236C171.43 82.5791 170.942 82.9437 170.417 82.8374C169.984 83.2922 169.428 83 168.933 83.0811C168.517 83.1494 168.059 82.9088 167.677 83.3097C167.587 83.358 167.487 83.3834 167.385 83.3837C167.283 83.3839 167.183 83.359 167.093 83.3111C166.5 82.9216 165.853 83.1445 165.234 83.0806C163.85 82.9809 162.478 82.7455 161.14 82.3778C160.788 82.2697 160.631 82.0272 160.368 81.8594C158.826 81.8724 157.3 81.5392 155.904 80.8843C155.111 80.5401 154.252 80.3753 153.388 80.4017C152.397 79.7919 151.295 79.386 150.145 79.208C149.886 79.1475 149.639 79.0415 149.416 78.8948C147.683 78.06 145.862 77.4206 143.987 76.9885C143.948 76.9795 143.897 77.0031 143.867 76.9851C142.692 76.2822 141.318 76.0417 140.126 75.4309C139.407 75.0622 138.63 74.8539 137.964 74.4786C137.274 74.0898 136.558 73.7334 135.87 73.3335C135.841 73.3169 135.792 73.3356 135.725 73.3393C135.585 73.6555 135.949 73.6803 136.049 73.8492C136.172 74.0127 136.315 74.1606 136.474 74.2895C137.252 74.2108 137.741 74.808 138.288 75.1756C138.98 75.4905 139.656 75.8403 140.313 76.2234C140.473 76.355 140.837 76.3845 140.983 76.618C141.199 76.9007 141.504 77.1014 141.849 77.187C142.572 77.5183 143.262 77.9177 143.909 78.3798C144.229 78.5797 144.58 78.7275 144.947 78.8178C146.145 79.0575 147.184 79.7662 148.402 79.9123C148.769 80.3704 149.562 79.9116 149.833 80.5766C150.364 80.6217 150.886 80.7485 151.378 80.9526C151.841 81.2326 152.355 81.0602 152.809 81.3507C153.286 81.5745 153.785 81.747 154.298 81.8654C155.119 82.2697 156.009 82.5167 156.921 82.5935C157.555 83.3626 158.559 83.1342 159.357 83.4829C160.148 83.8402 160.981 84.0954 161.836 84.2421C162.762 84.4415 163.678 84.689 164.579 84.9837C165.176 85.1544 165.794 85.2423 166.416 85.245C167.16 85.2866 167.9 85.3907 168.627 85.556C169.854 85.7741 171.109 85.7721 172.336 85.55C173.139 85.4274 173.909 85.2323 174.693 85.0479C175.581 84.8391 176.423 84.5113 177.28 84.2232C178.298 83.8112 179.36 83.5161 180.445 83.3436C181.082 83.2813 181.537 82.8435 182.154 82.7276C182.754 82.603 183.313 82.3281 183.777 81.9285C184.393 81.5674 185.066 81.3125 185.767 81.1746C186.096 81.1011 186.416 80.988 186.718 80.8377C187.021 80.6621 187.376 80.6017 187.72 80.6677C188.24 81.3897 188.182 81.5868 187.458 81.8693C186.995 82.1177 186.518 82.3381 186.028 82.5293C184.944 82.9619 183.888 83.4635 182.868 84.0311C182.144 84.3448 181.388 84.5813 180.614 84.7367C179.389 85.0016 178.188 85.3616 177.019 85.8134C175.976 86.1466 174.896 86.3405 173.865 86.7185C173.193 86.9648 172.45 86.988 171.748 87.1942C171.383 87.3015 170.856 87.4402 170.59 86.9355C170.139 87.2071 169.753 87.3786 169.316 87.1327C169.281 87.1135 169.257 87.0514 169.229 87.0514C168.134 87.0523 167.105 86.6115 166.042 86.5307C165.011 86.4026 163.992 86.1932 162.993 85.9045C161.302 85.5053 159.675 84.8473 157.954 84.5443C157.837 84.5437 157.723 84.5185 157.617 84.4704C156.498 83.915 155.309 83.515 154.082 83.2815C153.385 82.9941 152.669 82.7548 151.939 82.5653C151.206 82.4642 150.585 81.9193 149.83 81.7851C149.765 81.7734 149.703 81.6188 149.658 81.6272C148.688 81.8087 147.993 81.127 147.175 80.8405C146.324 80.5425 145.496 80.1659 144.629 79.9333C144.099 79.7914 143.716 79.4169 143.193 79.2625C142.701 79.0568 142.237 78.7895 141.812 78.467C140.963 78.0098 140.174 77.4473 139.466 76.7931C138.876 76.9111 138.61 76.3352 138.136 76.1745C136.856 75.4823 135.639 74.68 134.498 73.7769C134.391 73.2895 133.953 72.9945 133.857 72.4491C133.726 71.7079 133.511 70.9821 133.442 70.313C133.596 70.1159 133.795 69.9589 134.022 69.8552C134.249 69.7514 134.498 69.7041 134.748 69.7173C135.923 69.5269 137.112 69.4262 138.303 69.416C139.153 69.4942 140.009 69.4912 140.859 69.4071C141.303 69.3634 141.558 69.7543 141.982 69.6867C142.343 69.6543 142.707 69.6504 143.07 69.675C143.198 69.7686 143.263 69.9525 143.525 69.9082L143.85 69.6752C144.885 70.1347 146.009 69.7041 147.03 69.9599C147.759 70.1308 148.508 70.1925 149.255 70.1429C149.826 70.1164 150.279 70.5185 150.864 70.4237C151.387 70.3346 151.921 70.3355 152.443 70.4265C153.027 70.5373 153.571 70.8517 154.154 70.989C155.297 71.2586 156.326 71.8758 157.474 72.0846C157.883 72.1591 157.96 72.6794 158.362 72.5914C158.883 72.4775 158.985 73.2667 159.502 73.0847C160.017 72.9036 160.197 73.4117 160.506 73.5983C161.413 73.9731 162.345 74.2831 163.296 74.5261C163.567 74.6425 163.929 74.5482 164.128 74.8756C164.168 74.9409 164.244 75.0307 164.303 75.0305C165.323 75.1717 166.324 75.4272 167.286 75.792C168.294 75.9594 169.273 76.2734 170.19 76.7239C170.882 77.0481 171.63 77.235 172.393 77.2743L172.747 77.7775C173.554 77.5105 174.205 77.9903 174.916 77.9624C175.844 78.484 176.865 78.8188 177.922 78.948C178.092 79.0032 178.191 79.2115 178.434 79.187C179.59 79.0707 180.69 79.7204 181.686 79.396C182.613 79.9292 183.672 80.1912 184.741 80.152C185.058 79.9289 185.278 79.5941 185.358 79.2148C185.445 78.73 185.566 78.2519 185.72 77.7839C186.017 77.386 186.242 76.9388 186.383 76.4628C186.456 76.0833 187.04 75.7548 187.029 75.4158C187.004 74.6642 187.514 74.1302 187.62 73.4396C187.733 72.9217 187.973 72.4399 188.318 72.037C188.709 71.5421 188.698 70.8972 189.115 70.3999C189.483 69.918 189.738 69.3585 189.859 68.7638C189.948 68.5138 190.074 68.2784 190.232 68.0655C190.605 67.4535 190.885 66.79 191.065 66.0963C191.369 65.1982 191.837 64.3644 192.446 63.6372C192.364 62.8556 192.538 62.0683 192.942 61.3942C193.121 61.0927 193.205 60.7435 193.18 60.3934C193.169 59.9487 193.178 59.5035 193.178 59.1782C192.838 58.5337 192.344 57.9832 191.74 57.5756C190.914 57.0261 190.055 56.5302 189.165 56.0911C188.323 55.6835 187.458 55.3217 186.576 55.0075C185.774 54.6259 184.891 54.5771 184.117 54.1671C183.71 53.951 183.249 54.1304 182.8 54.0598L182.335 53.5949C181.851 53.6065 181.369 53.5282 180.914 53.3643C179.962 53.0033 178.989 52.7025 177.999 52.4638C177.035 52.1406 176.001 52.0276 175.035 51.6704C174.839 51.6301 174.638 51.6191 174.438 51.6379C173.957 51.6649 173.485 51.5044 173.12 51.19C172.517 51.0391 171.958 51.3095 171.415 50.9853C170.9 50.6781 170.26 51.0992 169.688 50.7337C169.239 50.4464 168.574 50.8976 168.141 50.4287C167.869 50.3375 167.822 50.6745 167.601 50.6643C167.36 50.745 167.331 50.3699 167.088 50.4201C166.884 50.2859 166.844 50.8003 166.636 50.5633C166.389 50.2813 166.341 50.6688 166.183 50.6643C165.98 50.6585 165.777 50.6628 165.574 50.6628C164.837 51.1084 164.493 51.9587 163.762 52.4153C163.559 52.542 163.727 52.7954 163.665 52.9844C163.415 53.0506 163.183 53.1708 162.984 53.3365C162.786 53.5023 162.626 53.7096 162.516 53.9438C162.137 54.9878 161.228 55.5297 160.578 56.3544C160.449 56.9437 160.149 57.482 159.716 57.9021C159.235 58.3059 158.901 58.8575 158.765 59.471C158.644 59.8784 158.401 60.2393 158.07 60.5056C157.848 60.7194 157.69 60.9917 157.616 61.2911C157.323 62.5823 156.933 63.8498 156.451 65.0831C156.298 65.5948 156.28 66.1345 156.145 66.6589C155.905 67.2422 155.81 67.8745 155.867 68.5024C155.946 68.8724 155.574 69.1027 155.505 69.4263H154.987C154.618 68.1151 155.303 66.8672 155.135 65.5995L155.548 65.4917C155.576 65.4218 155.63 65.3504 155.626 65.282C155.626 64.5081 155.759 63.74 156.02 63.0115C156.215 62.2022 156.452 61.4037 156.73 60.6191C157.174 59.6992 157.672 58.8069 158.224 57.9472C158.91 57.0757 159.516 56.1432 160.032 55.1613C160.044 55.1268 160.085 55.0989 160.117 55.075C160.979 54.2102 161.75 53.2592 162.418 52.2368C162.889 51.7137 163.332 51.1553 163.818 50.6368C164.223 50.2765 164.666 49.9609 165.139 49.6955C165.389 49.5092 165.697 49.4154 166.008 49.4299C166.9 49.4728 167.808 49.3533 168.686 49.4729C169.412 49.5075 170.128 49.6625 170.804 49.9316ZM162.877 76.2766C162.575 76.1032 162.448 75.819 162.072 75.7411C161.415 75.5812 160.777 75.3506 160.169 75.0533C159.553 74.7761 158.939 74.4901 158.333 74.1935C156.84 73.3953 155.279 72.7336 153.667 72.2165C152.455 71.8749 151.188 71.7889 149.992 71.3814C149.532 71.7544 149.079 71.1995 148.608 71.3756C148.116 71.5595 147.607 71.0521 147.106 71.3814C146.283 70.9089 145.387 71.1918 144.525 71.154C144.116 71.1644 143.711 71.0631 143.354 70.8612C143.182 71.021 143.095 71.1749 142.897 71.1356C142.772 71.0565 142.633 70.8928 142.516 70.907C141.528 70.8954 140.543 70.8113 139.568 70.6553C138.553 70.6327 137.537 70.6671 136.522 70.6431C136.285 70.6126 136.043 70.6336 135.814 70.7047C135.585 70.7758 135.374 70.8953 135.196 71.0552C135.833 71.7328 136.607 72.2679 137.466 72.6255C138.063 72.847 138.64 73.1163 139.193 73.4308C139.955 73.8483 140.748 74.2082 141.564 74.5075C143.081 75.1644 144.633 75.7361 146.213 76.2201C147.779 76.7579 149.376 77.2095 150.923 77.7958C151.636 78.0662 152.385 78.1745 153.088 78.4496C153.703 78.7295 154.336 78.9689 154.982 79.1662C156.123 79.4464 157.234 79.8391 158.38 80.079C159.055 80.2202 159.687 80.5326 160.348 80.6057C160.82 80.6579 161.252 80.9458 161.702 80.8687C162.251 80.7745 162.686 81.0848 163.187 81.1402C164.034 81.3843 164.9 81.554 165.777 81.6473C166.265 82.2142 166.921 81.4944 167.435 81.8626C167.78 81.4342 168.257 81.6788 168.675 81.6189C169.137 81.5527 169.618 81.746 170.071 81.455C170.464 81.203 171.035 81.5806 171.397 81.1313C172.298 81.0738 173.167 80.7801 174.044 80.6897C174.784 80.4665 175.555 80.3684 176.327 80.3993L176.364 79.9638C175.897 80.0312 175.527 79.7445 175.078 79.6466C174.01 79.4139 172.97 79.0556 171.913 78.7667C170.818 78.4868 169.739 78.1437 168.683 77.7391C168.04 77.3827 167.313 77.2072 166.578 77.2313C166.143 76.8283 165.362 77.1791 165.043 76.5257C164.348 76.2847 163.608 76.1997 162.877 76.2766Z" fill="#242424"/>
<path d="M243.156 108.027V110.284C242.354 111.871 241 113.112 239.349 113.774H238.154L237.635 114.446C237.62 114.418 237.659 114.471 237.679 114.531C237.988 115.462 238.643 116.255 238.864 117.204C239.212 118.055 239.432 118.953 239.516 119.869C239.507 120.031 239.675 120.202 239.756 120.36C238.819 122.081 238.819 122.081 236.757 122.081C235.527 121.456 234.388 120.665 233.373 119.73C232.395 119.395 231.948 118.303 230.932 118.022C230.672 117.579 230.25 117.693 229.856 117.71C229.492 117.921 229.486 118.384 229.177 118.654C228.923 118.895 228.698 119.165 228.506 119.458C227.497 120.801 226.09 121.792 224.485 122.289C223.799 122.409 223.099 122.421 222.409 122.324C222.153 122.115 221.758 122.109 221.545 121.8C221.507 121.735 221.48 121.665 221.464 121.591C221.455 121.307 221.485 121.02 221.456 120.739C221.467 119.699 221.713 118.676 222.178 117.746C222.413 117.072 222.865 116.496 223.464 116.107C223.874 115.811 224.263 115.486 224.628 115.135V114.372C224.016 113.91 223.25 113.701 222.488 113.788L219.226 112.401L218.779 111.883C218.688 111.232 218.794 110.568 219.084 109.978C219.911 109.467 220.851 109.167 221.822 109.105C222.831 108.887 223.876 108.903 224.878 109.152C224.858 108.573 224.791 107.997 224.676 107.43C224.464 106.46 224.583 105.448 225.014 104.555C225.184 104.189 224.9 103.745 225.317 103.447C225.424 103.37 225.399 103.057 225.591 102.968C226.374 102.607 226.552 101.593 227.444 101.307C227.69 101.205 227.951 101.143 228.216 101.12C228.826 101.115 229.435 101.119 230.066 101.119C230.553 101.414 230.846 101.955 231.419 102.211C231.966 102.456 232.18 103.097 232.538 103.562C232.881 104.008 233.091 104.555 233.416 105.019C233.771 105.527 233.605 106.086 233.66 106.614C233.939 106.823 234.147 107.114 234.254 107.446C234.531 107.547 234.613 107.283 234.787 107.212C235.149 107.391 235.547 107.482 235.95 107.477C236.354 107.473 236.75 107.374 237.108 107.187C237.296 107.132 237.371 107.612 237.651 107.452C238.201 107.136 238.726 107.351 239.283 107.436C239.879 107.526 240.509 107.385 241.105 107.475C241.799 107.618 242.484 107.803 243.156 108.027ZM231.245 116.232C231.945 116.688 232.469 117.256 233.077 117.664C234.084 118.323 235.045 119.05 235.955 119.839C236.177 120.085 236.448 120.28 236.751 120.413C237.054 120.546 237.382 120.614 237.713 120.61C237.771 120.423 238.045 120.386 238.043 120.015C237.944 119.853 237.854 119.687 237.774 119.516C237.425 118.247 236.945 117.016 236.342 115.846C235.906 115.196 235.724 114.41 235.829 113.635L236.442 112.795C237.503 112.808 238.555 112.595 239.527 112.169C240.225 111.969 240.83 111.529 241.234 110.925C240.903 110.303 242.055 109.542 241.052 108.918H238.517C237.829 108.24 236.933 109.495 236.318 108.625C236.236 108.72 236.136 108.797 236.023 108.852C235.911 108.907 235.788 108.938 235.663 108.944C235.538 108.95 235.413 108.93 235.296 108.886C235.179 108.842 235.072 108.774 234.982 108.688C234.506 108.921 234.506 108.921 233.274 108.909C232.895 108.513 232.388 108.181 232.259 107.628C232.097 107.004 231.829 106.414 231.467 105.881C231.645 105.085 230.865 104.666 230.722 103.995C230.706 103.944 230.678 103.897 230.641 103.858C229.941 103.616 229.663 102.966 229.155 102.617C228.889 102.551 228.611 102.542 228.341 102.593C228.071 102.644 227.815 102.753 227.591 102.912C227.461 103.396 227.195 103.834 226.824 104.172C226.824 104.463 226.841 104.749 226.819 105.031C226.801 105.262 226.933 105.525 226.727 105.721C226.426 106.007 227.025 106.132 226.829 106.417C226.272 107.227 226.77 107.94 227.064 108.671C227.121 108.811 226.994 108.995 227.147 109.122L227.581 109.235C227.382 109.553 227.666 109.811 227.765 110.131C227.174 110.195 226.599 110.362 226.066 110.624C225.832 110.503 225.598 110.382 225.364 110.26C225.344 110.148 225.414 110.012 225.207 109.891C223.699 109.768 222.18 109.885 220.709 110.24C220.601 110.597 220.028 110.694 219.978 111.26C220.639 111.38 221.034 112.001 221.664 112.158C222.804 112.442 223.9 112.892 225.07 113.063C225.131 113.074 225.192 113.088 225.252 113.105C225.713 113.441 226.077 113.894 226.305 114.417C226.042 116.111 224.682 116.866 223.647 117.793C223.67 118.014 223.642 118.237 223.566 118.445C223.491 118.654 223.369 118.842 223.211 118.997C223.049 119.432 223.319 119.871 222.948 120.286C222.731 120.528 222.992 120.888 223.283 121.095C223.823 121.113 224.361 121.016 224.86 120.81C225.36 120.605 225.811 120.296 226.182 119.904C227.481 118.823 228.323 117.302 229.679 116.231C230.168 116.231 230.696 116.231 231.225 116.231C231.264 116.231 231.304 116.236 231.245 116.232H231.245Z" fill="#232323"/>
<path d="M191.076 158.186C192.614 157.864 194.18 157.7 195.752 157.697C195.852 157.929 196.159 157.854 196.339 158.024C196.424 158.487 195.895 158.542 195.791 158.921C193.68 158.68 191.546 159.119 189.701 160.175C189.213 160.622 188.523 160.884 188.027 161.346C186.787 162.319 185.637 163.403 184.591 164.582C183.705 165.783 182.626 166.827 181.396 167.671C180.856 168.061 180.338 168.481 179.844 168.929C179.266 169.441 178.607 169.854 177.894 170.149C177.794 170.38 177.752 170.732 177.471 170.794C176.836 171.008 176.279 171.402 175.866 171.928C174.621 173.148 172.978 173.877 171.238 173.982C170.892 173.984 170.7 174.272 170.364 174.255C170.063 174.24 169.749 174.147 169.454 174.415C169.189 174.656 168.756 174.24 168.66 174.317C168.426 174.473 168.14 174.533 167.864 174.483C165.71 174.49 163.548 174.604 161.407 174.441C160.169 174.46 158.938 174.253 157.774 173.832C157.397 173.658 156.982 173.8 156.551 173.741C156.169 173.587 155.838 173.208 155.326 173.265C154.863 173.316 154.57 172.935 154.188 172.779C153.645 172.558 153.018 172.652 152.51 172.418C152.182 172.267 151.866 172.414 151.597 172.268C151.356 172.079 151.097 171.912 150.825 171.772C150.001 171.642 149.198 171.408 148.434 171.074C147.432 171.143 146.64 170.49 145.721 170.251C144.921 170.042 144.127 169.772 143.309 169.624C142.845 169.539 142.514 169.219 142.057 169.098C140.737 168.785 139.442 168.375 138.182 167.871C137.271 167.477 136.317 167.272 135.406 166.92C134.497 166.569 133.588 166.166 132.678 165.866C131.105 165.348 129.575 164.704 127.982 164.244C126.887 163.962 125.811 163.612 124.76 163.198C124.354 163.094 123.939 163.028 123.521 163.001L123.166 162.55C121.88 162.424 120.61 162.16 119.38 161.761C119.277 161.742 119.182 161.567 119.097 161.578C118.215 161.692 117.404 161.214 116.514 161.31C115.691 161.399 114.903 160.94 114.055 161.067C113.953 161.08 113.855 161.113 113.766 161.164C113.678 161.215 113.6 161.284 113.537 161.365C113.21 161.15 112.821 161.05 112.43 161.079C111.665 161.251 110.962 160.855 110.216 160.82C110.068 160.814 109.929 160.597 109.635 160.349H110.996C112.702 160.349 114.411 160.405 116.114 160.328C117.101 160.366 118.084 160.475 119.056 160.653C119.86 160.665 120.654 160.825 121.4 161.125C122.09 161.473 122.945 161.248 123.558 161.802C124.762 161.657 125.729 162.578 126.908 162.543C127.71 162.959 128.553 163.29 129.424 163.531C129.56 163.586 129.617 163.789 129.816 163.763C130.875 163.626 131.672 164.423 132.655 164.559C133.099 165.069 133.795 164.911 134.344 165.197C135.006 165.47 135.688 165.69 136.385 165.854C137.062 166.078 137.727 166.385 138.393 166.584C139.625 166.951 140.81 167.433 142.021 167.846C142.409 167.979 142.787 167.871 143.18 167.976C143.845 168.154 144.431 168.501 145.069 168.728C145.434 168.822 145.792 168.944 146.138 169.093C146.423 169.245 146.853 169.124 147.219 169.124C147.726 169.686 148.513 169.523 149.113 169.85C149.208 169.902 149.368 169.847 149.453 169.906C150.594 170.512 151.832 170.912 153.111 171.088C153.724 171.204 154.304 171.45 154.813 171.81C155.303 171.779 155.794 171.857 156.25 172.038C157.635 172.457 159.041 172.801 160.462 173.07C161.32 173.197 162.187 173.265 163.054 173.271C163.472 173.322 163.943 173.081 164.304 173.503C164.356 173.564 164.564 173.557 164.656 173.505C165.395 173.192 166.212 173.118 166.995 173.292C168.326 173.393 169.601 172.938 170.918 173.024C172.23 172.449 173.787 172.387 174.762 171.102C175.12 170.634 175.603 170.276 176.156 170.072C176.727 169.852 177.061 169.244 177.627 168.922C179.567 167.756 181.297 166.27 182.743 164.527C183.789 163.328 185.014 162.334 186.13 161.219C187.33 160.149 188.696 159.28 190.173 158.646C190.477 158.495 190.838 158.459 191.076 158.186Z" fill="#232423"/>
<path d="M96.9909 148.658C95.2724 149.708 93.2454 150.135 91.2495 149.868C90.1319 149.369 88.8406 149.532 87.7375 148.934C87.4888 148.799 87.1046 148.914 86.734 148.914C86.4856 148.324 85.8501 148.352 85.3686 148.202C84.9852 148.147 84.6261 147.981 84.3356 147.724C84.202 147.596 84.0328 147.51 83.85 147.479C83.0545 147.53 82.5816 146.974 82.0109 146.596C81.7915 146.451 81.5488 146.23 81.3185 146.232C80.5374 146.239 80.149 145.662 79.6627 145.227H78.9488C78.8029 145.139 78.8321 145.011 78.8268 144.871C78.3037 144.524 77.6092 144.479 77.1351 144.017C76.3563 143.258 75.3838 142.751 74.5659 142.051C73.7536 141.434 73.186 140.55 72.9633 139.554C72.8873 139.299 72.7527 139.065 72.5705 138.87C72.3798 138.631 72.5953 138.426 72.4707 138.252C72.7334 138.135 72.8912 138.138 72.9736 138.309C73.5646 139.552 74.4275 140.647 75.4986 141.512C76.3249 142.312 77.3193 142.919 78.4095 143.287C79.3158 144.045 80.3438 144.644 81.4499 145.059C82.3211 145.506 83.1771 145.982 84.0484 146.429C84.6967 146.727 85.3703 146.966 86.0612 147.143C86.68 147.331 87.2564 147.61 87.8516 147.832C88.6642 148.176 89.5317 148.374 90.4134 148.414C90.8317 148.418 91.2966 148.24 91.6613 148.641C91.7164 148.701 91.9119 148.687 92.0145 148.643C92.6022 148.39 93.2351 148.861 93.7471 148.615C94.141 148.442 94.5733 148.374 95.0015 148.418C95.2985 148.429 95.4339 148.256 95.6023 148.082C95.0133 147.584 94.2991 147.257 93.5372 147.137C92.7602 146.834 92.0311 146.42 91.3727 145.908C91.1782 145.806 91.0855 145.383 90.8072 145.156V143.861C91.1798 143.824 91.3865 143.516 91.654 143.261C92.5543 143.5 93.4248 143.033 94.3784 143.238C95.3542 143.471 96.3068 143.792 97.2242 144.198C97.6286 144.65 97.9959 145.135 98.3225 145.646V147.11C98.6713 147.179 98.9793 147.381 99.1808 147.674C100.092 147.548 101.021 147.707 101.838 148.13C101.996 147.984 102.196 147.889 102.409 147.858C102.623 147.827 102.841 147.862 103.034 147.957C103.512 148.254 103.962 148.113 104.42 148.153C104.863 148.193 105.312 148.162 105.758 148.162C106.245 148.162 106.869 148.348 107.186 148.116C107.611 147.803 108.155 148.146 108.501 147.692C108.59 147.576 108.961 147.674 109.19 147.674C109.305 147.857 109.545 147.919 109.548 148.041L108.392 149.187C106.767 149.602 105.086 149.756 103.413 149.644C102.904 149.676 102.41 149.293 101.909 149.624C101.544 149.109 100.886 149.632 100.492 149.223C99.341 148.946 98.1706 148.757 96.9909 148.658ZM92.7149 144.872C92.8964 145.055 93.1099 144.995 93.2726 145.153C94.1586 145.86 95.1764 146.384 96.2667 146.694C96.3252 146.721 96.3915 146.726 96.4532 146.707C96.515 146.689 96.5678 146.648 96.6017 146.594V145.664C96.0052 145.809 96.0331 145.051 95.4782 144.973C95.0459 144.912 94.6515 144.603 94.2182 144.523C93.9578 144.459 93.686 144.457 93.4248 144.518C93.1636 144.579 92.9204 144.7 92.7149 144.872Z" fill="#232423"/>
<path d="M176.458 155.233C176.735 155.71 176.883 156.047 177.105 156.368C177.569 156.983 177.819 157.733 177.815 158.504C177.907 159.33 177.826 160.167 177.577 160.96C177.209 161.752 177.07 162.669 176.285 163.226C176.04 163.421 175.858 163.683 175.761 163.981C175.63 164.304 175.218 164.233 174.998 164.492C173.867 165.583 172.487 166.383 170.978 166.822C170.909 166.851 170.837 166.936 170.781 166.924C169.895 166.747 169.081 167.234 168.202 167.185C167.314 167.248 166.421 167.227 165.537 167.124C164.839 166.945 164.137 167.059 163.469 166.846C162.848 166.576 162.213 166.338 161.568 166.133C161.383 166.097 161.211 166.015 161.067 165.894C160.18 165.139 159.351 164.319 158.586 163.441C158.086 162.761 157.864 161.944 157.401 161.249C157.332 161.064 157.31 160.865 157.339 160.67C157.332 160.142 157.334 159.615 157.337 159.088C157.355 158.465 157.421 157.846 157.535 157.234C157.643 156.569 158.337 156.265 158.312 155.597C158.97 154.62 159.848 153.811 160.877 153.237C161.905 152.663 163.055 152.339 164.232 152.291C165.16 152.358 166.097 152.3 167.031 152.307C167.747 152.205 168.476 152.237 169.181 152.402C169.866 152.7 170.587 152.288 171.231 152.766C171.568 153.016 172.187 152.569 172.572 153.034C173.309 152.944 173.688 153.634 174.308 153.845C174.947 154.031 175.514 154.406 175.935 154.92C176.067 155.097 176.197 155.364 176.458 155.233ZM165.413 153.24C165.152 153.442 164.828 153.547 164.498 153.537C163.874 153.522 163.25 153.587 162.642 153.731C161.738 153.928 160.899 154.349 160.2 154.954C159.501 155.56 158.965 156.332 158.642 157.199C158.245 158.507 158.205 159.899 158.528 161.228C158.616 161.624 158.979 161.728 159.067 162.11C159.302 162.893 159.804 163.568 160.486 164.019C161.256 164.65 162.094 165.195 162.984 165.644C163.113 165.705 163.181 165.892 163.271 166.011C164.073 165.753 164.72 166.233 165.435 166.211C165.738 166.201 166.068 166.086 166.361 166.318C166.621 166.523 166.77 166.097 167.065 166.18C167.365 166.266 167.717 166.153 168.032 166.208C168.859 166.201 169.683 166.108 170.49 165.931C170.792 165.923 171.075 165.527 171.388 165.491C171.894 165.448 172.365 165.217 172.708 164.843C172.879 164.661 173.087 164.774 173.381 164.709C173.894 164.125 174.441 163.572 175.02 163.053C175.659 162.533 175.729 161.659 176.352 161.186C176.382 160.755 176.448 160.329 176.548 159.909C176.674 159.17 176.619 158.412 176.388 157.699C176.241 157.141 175.926 156.641 175.487 156.267C175.244 156.057 174.943 155.842 174.679 155.619C174.418 155.425 174.188 155.191 173.998 154.927C173.781 154.577 173.418 154.786 173.134 154.626C172.82 154.45 172.588 154.198 172.288 154.07C170.785 153.702 169.245 153.562 167.631 153.328C167.278 153.48 166.896 153.55 166.512 153.535C166.128 153.52 165.753 153.419 165.413 153.24Z" fill="#252525"/>
<path d="M70.562 131.848V131.172C71.3298 130.486 72.467 130.548 73.1838 129.8C73.9556 129.122 74.6236 128.335 75.1665 127.464C75.2636 126.883 74.8031 126.763 74.4483 126.578V126.183L75.3509 125.174C76.5521 126.037 77.8729 126.719 79.2715 127.2C79.9277 127.2 80.9382 127.208 81.9482 127.195C82.2599 127.219 82.5722 127.156 82.8503 127.013C82.945 126.952 83.0521 126.914 83.1637 126.901C83.2754 126.888 83.3885 126.9 83.4947 126.937C83.6008 126.974 83.6973 127.034 83.7767 127.114C83.8561 127.193 83.9165 127.29 83.9533 127.396C83.9574 127.722 83.6694 127.87 83.4673 128.03C82.447 128.924 81.7461 130.126 81.4705 131.454C81.3092 132.511 81.2412 133.581 81.2673 134.649C81.224 135.235 81.7382 135.751 81.4649 136.374L80.6942 136.75C80.1062 136.169 79.8627 135.313 79.2155 134.727C78.5687 134.14 77.813 133.691 77.225 133.05H76.5115C76.3953 132.934 76.2566 132.688 76.058 132.622C75.7811 132.507 75.4956 132.415 75.2042 132.344C73.6825 131.992 72.1238 131.825 70.562 131.848V131.848ZM79.9946 132.818C80.0987 131.306 80.5177 129.832 81.2248 128.492C80.8988 128.259 80.7943 128.628 80.5908 128.664C80.1605 128.48 79.7525 128.23 79.2838 128.565C79.0349 128.743 78.8168 128.652 78.533 128.519C77.8229 128.189 77.065 127.96 76.2666 127.669C75.4346 128.851 74.4166 129.89 73.2522 130.746C73.3937 130.878 73.4837 131.123 73.7794 131.103C74.3685 131.062 74.8914 131.512 75.5005 131.344C77.2261 131.846 78.8086 132.748 80.1191 133.978C79.9546 133.393 80.2427 132.99 79.9946 132.818Z" fill="#232424"/>
<path d="M162.722 64.123L164.309 62.6447C164.469 62.5482 164.635 62.4629 164.807 62.3895C165.527 62.143 166.273 61.9794 167.031 61.9021C167.413 61.8663 167.787 61.7726 168.14 61.6242C168.898 61.3131 169.734 61.4358 170.498 61.1505C171.497 60.7772 172.594 60.8506 173.615 60.4575C174.169 60.2923 174.744 60.2069 175.323 60.2039C175.993 60.1617 176.6 59.8686 177.264 59.8692C177.383 59.4013 177.692 60.177 177.887 59.7648C177.987 59.5523 178.332 59.7036 178.565 59.6846C179.232 59.7246 179.901 59.6503 180.543 59.4649C181.092 59.2313 181.652 59.6579 182.196 59.7615C182.269 60.1012 181.996 60.3725 181.866 60.3612C181.333 60.3146 180.908 60.7163 180.394 60.6549C179.246 60.5695 178.093 60.6643 176.975 60.936C176.043 61.118 175.099 61.3004 174.168 61.4564C172.864 61.6746 171.589 62.0278 170.261 62.1664C169.16 62.2709 168.07 62.4733 167.004 62.7711C166.319 62.9699 165.604 63.0562 164.912 63.3049C164.465 63.4029 164.05 63.615 163.708 63.9207C163.46 64.1984 163.212 63.9993 162.722 64.123Z" fill="#2F2D2C"/>
<path d="M170.829 64.8033C170.735 64.6093 170.719 64.4994 170.809 64.3766C171.084 64.1656 171.474 64.4506 171.794 64.1499C172.058 63.9017 172.565 64.2239 172.853 63.859C173.066 64.4063 173.406 63.8405 173.71 63.9342C174.009 64.0262 174.395 63.7676 174.774 63.82C175.128 63.8691 175.362 63.4772 175.77 63.5637C176.173 63.6128 176.579 63.6183 176.983 63.5802C177.331 63.5761 177.579 63.2404 177.979 63.3226C178.341 63.3733 178.707 63.3767 179.07 63.3328C179.461 63.3084 179.882 63.4667 180.237 63.2233C180.575 62.9918 180.933 63.1231 181.28 63.1001C181.684 63.0733 182.09 63.0938 182.496 63.0938H183.547L183.757 63.3043L182.974 64.095C182.626 64.1347 181.883 63.8514 181.285 64.1808C180.678 64.5148 179.995 64.0026 179.465 64.4934C178.958 64.1556 178.463 64.54 177.993 64.5161C176.786 64.4547 175.636 64.8583 174.443 64.8033C174.001 64.8451 173.555 64.8345 173.115 64.772C172.735 64.6568 172.504 65.1268 172.066 64.8416C171.76 64.6425 171.219 64.8033 170.829 64.8033Z" fill="#322E2D"/>
<path d="M120.033 103.859C119.791 104.193 119.617 104.57 119.522 104.971C119.382 105.365 119.179 105.733 118.923 106.063C118.769 106.453 118.557 106.817 118.294 107.143C117.961 107.465 117.769 107.947 117.41 108.223C116.561 109.076 115.587 109.795 114.523 110.357C114.101 110.515 113.949 110.977 113.598 111.06C112.296 111.367 111.385 112.594 109.957 112.575C109.139 113.04 108.27 113.41 107.368 113.678C106.936 113.82 106.492 113.92 106.042 113.978C105.563 114.08 105.042 114.179 104.581 114.316C103.852 114.479 103.104 114.552 102.357 114.532C101.938 114.553 101.485 114.363 101.102 114.753C101.012 114.802 100.912 114.827 100.81 114.828C100.708 114.828 100.607 114.803 100.517 114.755C99.9647 114.38 99.3587 114.593 98.7814 114.521C98.1196 114.438 97.4513 114.677 96.7822 114.345C96.2328 114.071 95.5221 114.496 94.9525 114.049C94.852 113.97 94.6353 114.025 94.474 114.039C93.471 114.019 92.4792 113.823 91.5439 113.46C90.5065 113.25 89.5105 112.871 88.5954 112.339C88.5096 112.283 88.3565 112.331 88.1987 112.331C87.8679 111.9 87.4367 111.555 86.9426 111.328C86.48 111.069 86.1077 110.675 85.8759 110.198C85.5565 109.734 85.276 109.245 85.0372 108.734C84.8351 108.238 84.3991 107.795 84.1357 107.281C83.8606 106.744 83.5724 106.213 83.2827 105.684C83.1809 105.525 83.4078 105.536 83.4389 105.418C83.3704 104.989 82.9558 104.528 83.2908 104.125C83.6307 103.716 83.351 103.279 83.5173 102.871C83.744 102.315 83.8432 101.708 84.0534 101.143C84.7363 99.1908 86.0838 97.5406 87.8603 96.4812C88.3524 96.1244 88.9011 95.853 89.4833 95.6784C90.0215 95.5608 90.4379 95.1216 91.0291 94.9938C91.6751 94.8541 92.2291 94.4106 92.8973 94.217C94.5363 93.7893 96.1441 93.2497 97.7093 92.602C98.8203 92.6323 99.9326 92.0546 101.002 92.3842C101.797 92.6425 102.643 92.6971 103.464 92.543C104.849 92.381 106.243 92.3117 107.637 92.3354C108.182 92.2947 108.721 92.6158 109.263 92.3438C109.8 92.7011 110.472 92.4078 110.978 92.6171C112.731 93.0779 114.41 93.7815 115.968 94.7075C116.475 95.1043 116.901 95.5631 117.373 95.9796C117.822 96.3984 118.211 96.8775 118.529 97.4033C118.819 97.8568 119.287 98.1561 119.486 98.7045C119.751 99.2486 119.935 99.8285 120.032 100.426C120.035 101.563 120.033 102.7 120.033 103.859ZM85.1733 106.172C85.4079 106.306 85.6131 106.486 85.7764 106.701C85.9396 106.916 86.0577 107.162 86.1235 107.424C86.4868 108.432 87.0435 109.36 87.7623 110.156C88.2802 110.73 88.9441 111.153 89.6834 111.38C90.9151 111.968 92.2218 112.383 93.5668 112.614C94.1445 112.626 94.7182 112.713 95.2736 112.873C95.7665 113.129 96.2613 112.874 96.6484 113.086C97.1191 113.289 97.6352 113.364 98.1441 113.302C99.4839 113.315 100.828 113.244 102.163 113.328C103.053 113.385 103.869 112.992 104.743 113.062C105.016 112.575 105.536 112.86 105.933 112.702C107.047 112.256 108.18 111.868 109.288 111.389C110.557 110.913 111.786 110.337 112.963 109.666C114.03 109.008 115.018 108.231 115.908 107.349C116.526 106.723 116.954 105.954 117.594 105.367C118.018 101.911 119.015 102.685 116.314 97.5246C116.03 97.4182 115.77 97.253 115.554 97.0397C115.337 96.8264 115.167 96.5699 115.056 96.2868C114.479 96.0126 113.819 95.9757 113.439 95.3904C113.288 95.217 113.079 95.104 112.851 95.0723C111.948 94.8998 111.124 94.3141 110.285 94.5284C109.361 94.0369 108.323 93.799 107.277 93.8389C105.926 93.7427 104.568 93.798 103.228 94.0036C102.017 94.1332 100.797 94.148 99.5828 94.0477C99.4952 94.0338 99.4096 94.0094 99.3277 93.9752L98.9373 93.5475C98.0645 93.6586 97.2085 93.8752 96.3879 94.1923C95.2912 94.458 94.2224 94.828 93.1961 95.2972C92.3707 95.6922 91.4542 95.7934 90.6632 96.2442C90.249 96.5089 89.8201 96.7501 89.3788 96.9666C88.4505 97.4547 87.6011 98.0801 86.8593 98.8216C86.7637 98.8923 86.6868 98.9854 86.6355 99.0927C86.4737 99.4791 86.2666 99.845 86.0187 100.183C85.7774 100.545 85.7188 101.019 85.4985 101.425C85.2763 101.783 85.1711 102.2 85.1976 102.62C85.321 103.303 84.4418 103.952 85.2098 104.557L84.8493 105.047C85.2767 105.314 85.1471 105.732 85.1733 106.172Z" fill="#232323"/>
<path d="M118.019 92.5651C118.512 92.8098 118.999 92.1071 119.421 92.3928C119.9 92.7169 120.359 92.4403 120.96 92.7131L121.71 93.7081V95.4352C121.1 95.9177 120.481 96.2938 119.638 95.7779C119.379 95.6197 118.931 95.8453 118.664 95.5122C118.033 95.6069 117.815 95.0034 117.462 94.7061C117.293 94.5508 117.172 94.3505 117.113 94.1287C117.054 93.9068 117.06 93.6728 117.129 93.4541L118.019 92.5651Z" fill="#292827"/>
<path d="M164.837 161.08C164.107 160.649 163.465 160.084 162.944 159.415C162.864 159.143 163.18 159.064 163.212 158.79C163.224 158.5 163.294 158.215 163.417 157.952C163.54 157.688 163.715 157.452 163.93 157.257C164.145 157.062 164.397 156.912 164.671 156.815C164.945 156.718 165.236 156.677 165.526 156.694C166.012 156.691 166.498 156.686 166.984 156.695C167.439 156.69 167.891 156.774 168.313 156.944C168.735 157.114 169.12 157.365 169.445 157.683C169.788 158.417 169.166 159.01 169.274 159.619L167.831 161.061C167.38 160.885 166.878 161.552 166.373 161.299C165.881 161.12 165.358 161.046 164.837 161.08ZM166.799 160.093C167.126 160.038 167.425 159.878 167.652 159.637C167.879 159.396 168.021 159.087 168.056 158.758C167.418 158.064 166.389 158.081 165.757 157.489C165.223 157.705 164.761 158.068 164.426 158.536V159.526C165.179 159.85 165.981 160.042 166.799 160.093Z" fill="#282726"/>
<path d="M96.606 98.6057C96.6714 98.1606 97.0088 97.9522 97.1293 97.6122V96.5795C97.764 96.1604 97.764 96.1604 98.3282 96.6279C98.346 96.7069 98.3377 96.7895 98.3045 96.8634C98.2713 96.9373 98.2151 96.9983 98.1442 97.0375C98.3406 97.7991 99.0623 98.2715 99.1127 99.1691C99.155 99.923 100.015 100.525 99.7563 101.422L100.803 102.362C100.608 103.033 100.965 103.589 101.065 104.226C101.167 104.374 101.473 104.192 101.564 104.513C101.679 104.385 101.831 104.297 101.998 104.261C102.166 104.225 102.341 104.243 102.498 104.313C103.001 104.554 103.569 104.626 104.116 104.516C105.521 104.404 106.875 104.911 108.283 104.803C108.622 104.777 108.984 105.074 109.399 105.028C109.798 105.003 110.198 105 110.597 105.019L110.984 105.325C111.05 105.639 110.887 105.72 110.801 105.848C110.757 105.944 110.728 106.046 110.718 106.151C110.399 106.279 110.091 106.434 109.799 106.615C109.687 106.701 109.554 106.754 109.415 106.769C109.275 106.784 109.134 106.76 109.006 106.7C108.803 106.574 108.576 106.492 108.339 106.458C108.102 106.425 107.861 106.44 107.63 106.503C107.081 106.583 106.645 106.287 106.145 106.229C105.689 106.176 105.199 106.431 104.772 106.005C104.492 105.724 104.106 106.413 103.767 105.994C102.485 106.165 101.256 105.511 99.9603 105.794C99.5418 105.444 99.2022 105.009 98.9637 104.519C98.7252 104.028 98.5933 103.492 98.5765 102.947C98.2025 102.452 98.3734 101.8 97.9309 101.249C97.393 100.419 96.9486 99.533 96.606 98.6057Z" fill="#232423"/>
<path d="M111.642 98.4374L111.987 98.8305C111.987 99.1425 111.734 99.3756 110.931 99.8654C108.885 99.9724 106.878 100.471 105.02 101.335C104.823 101.112 104.515 100.95 104.405 100.573C105.065 99.9929 105.908 99.6638 106.786 99.6434C107.125 99.6235 107.454 99.5206 107.744 99.3438C108.591 98.8942 109.583 98.9546 110.42 98.4657C110.721 98.2897 111.212 98.4374 111.642 98.4374Z" fill="#2B2A29"/>
<path d="M115.77 101.118C115.885 101.29 116.11 101.36 116.132 101.587C116.108 101.658 116.105 101.767 116.057 101.793C115.617 102.042 115.112 102.15 114.61 102.103C114.416 102.046 114.21 102.039 114.013 102.085C113.816 102.13 113.634 102.225 113.484 102.361C112.854 101.894 112.121 102.169 111.414 102.08C111.18 101.85 110.781 101.837 110.573 101.533C110.848 101.254 111.191 101.049 111.568 100.94C111.944 100.831 112.343 100.82 112.725 100.91C113.325 101.086 113.95 101.155 114.573 101.113C114.972 101.143 115.376 101.118 115.77 101.118Z" fill="#2A2828"/>
<path d="M98.7712 109.064C99.1926 108.954 99.4848 108.53 99.9583 108.705C100.03 108.8 100.068 108.916 100.067 109.035C100.065 109.154 100.023 109.269 99.948 109.361C99.6966 109.594 99.507 109.886 99.3965 110.211C99.2859 110.535 99.2578 110.882 99.3147 111.221L98.9458 111.6H98.1745C98.0669 111.16 98.0649 110.701 98.1686 110.261C98.2723 109.82 98.4788 109.41 98.7712 109.064Z" fill="#302D2C"/>
<path d="M90.79 108.813C90.8735 108.651 91.1113 108.559 91.0178 108.316C91.621 107.933 92.3845 107.817 92.8311 107.213H93.5788L93.9228 107.557C93.8809 107.613 93.851 107.692 93.7947 107.722C93.0922 108.097 92.559 108.71 91.7998 109.032C91.6357 109.132 91.4391 109.165 91.251 109.125C91.0629 109.084 90.8978 108.972 90.79 108.813Z" fill="#34302F"/>
<path d="M87.3691 104.661C88.0557 103.902 88.9253 103.33 89.8951 103.001C90.1307 103.357 90.0068 103.645 90.0436 103.915C88.8735 105.06 88.1606 105.259 87.3691 104.661Z" fill="#34302F"/>
</svg>
