<svg width="172" height="129" viewBox="0 0 172 129" fill="none" xmlns="http://www.w3.org/2000/svg">
<path d="M146.858 79.792C146.994 79.8405 147.114 79.9243 147.207 80.0348C147.3 80.1454 147.361 80.2785 147.385 80.4207C147.414 80.6453 147.509 80.8562 147.659 81.0264C147.723 81.0837 147.698 81.2411 147.713 81.3469C147.995 81.5666 148.216 81.8533 148.359 82.1807C148.214 82.5745 148.29 83.0706 147.991 83.4747C147.68 83.6355 147.379 83.8189 147.056 83.9509C146.711 84.092 146.411 83.7002 146.03 83.8465C146.011 83.9012 146.006 84.0103 145.948 84.0608C145.141 84.366 144.316 84.6205 143.477 84.8229C143.374 85.0145 143.45 85.2294 143.424 85.4281C143.458 85.5029 143.526 85.5035 143.586 85.5317C143.946 85.6712 144.247 85.9322 144.435 86.2697C144.577 86.5144 144.775 86.7225 145.012 86.8773C145.14 86.979 145.256 87.0942 145.359 87.2213C145.583 87.4617 145.653 87.8139 146.027 87.9661C146.311 88.0818 146.512 88.3993 146.764 88.6396L147.086 88.6749C147.054 89.007 147.612 89.0673 147.401 89.4313C147.82 89.9072 148.301 90.3256 148.83 90.6751C148.86 90.8423 148.854 91.014 148.813 91.1788C148.771 91.3435 148.695 91.4976 148.59 91.6308C148.015 92.0192 147.405 92.3518 146.767 92.624C146.128 92.9384 145.452 93.172 144.755 93.3197L144.635 93.2078C144.441 93.4716 144.151 93.2848 143.907 93.3672C143.777 93.5186 143.544 93.5168 143.396 93.6404C143.258 93.7561 142.949 93.6909 142.986 94.0018C142.792 94.0445 142.659 94.231 142.428 94.2077C142.194 94.193 141.96 94.1909 141.726 94.2016C141.063 94.4598 140.617 94.9915 139.938 95.0576C139.473 95.5367 138.799 95.5254 138.25 95.7875C137.594 96.101 136.912 96.341 136.256 96.6414C136.059 96.7316 135.786 96.6734 135.653 96.904C135.1 96.9607 134.564 97.1274 134.076 97.3943C133.085 97.7443 132.09 98.0913 131.112 98.477C129.99 98.9195 128.831 99.2545 127.709 99.7049C127.067 100.002 126.386 100.207 125.686 100.313C125.64 100.317 125.596 100.33 125.556 100.351C125.516 100.373 125.48 100.402 125.451 100.438C125.18 100.67 124.849 100.821 124.496 100.874C123.863 100.994 123.259 101.231 122.715 101.574C122.336 101.799 121.918 101.949 121.484 102.017C120.858 102.152 120.26 102.396 119.718 102.736C119.433 102.857 119.137 102.947 118.833 103.002C118.344 103.194 117.833 103.323 117.348 103.542C117.011 103.721 116.625 103.785 116.248 103.724C115.698 104.073 115.088 104.316 114.449 104.442C114.181 104.474 113.986 104.676 113.718 104.744C113.355 104.837 113.001 104.962 112.632 105.05C112.293 105.131 111.947 105.328 111.59 105.437C111.568 105.443 111.535 105.428 111.52 105.439C111.126 105.683 110.696 105.862 110.245 105.969C109.583 106.201 108.93 106.465 108.258 106.664C107.735 106.812 107.23 107.019 106.753 107.281H106.096C106.043 107.331 106 107.401 105.94 107.423C104.811 107.847 103.687 108.286 102.545 108.668C102.259 108.764 101.92 108.746 101.625 108.856C101.359 108.956 101.108 109.097 100.773 109.257H100.212C99.7808 109.443 99.453 109.76 98.9895 109.704C98.676 109.968 98.251 109.985 97.9105 110.191C97.5886 110.387 97.2278 110.511 96.8532 110.555C96.7648 110.566 96.6794 110.594 96.6014 110.638C96.1708 110.858 95.719 111.034 95.253 111.164C94.8773 111.286 94.5146 111.445 94.1703 111.638C93.75 111.885 93.2895 112.056 92.8099 112.144C92.4654 112.211 92.1308 112.321 91.8142 112.473C90.8808 112.793 89.9688 113.172 89.0838 113.609C88.6791 113.84 88.195 113.83 87.7708 114.048C87.3063 114.293 86.8179 114.49 86.3132 114.636C85.7804 114.781 85.2465 114.933 84.7311 115.122C84.276 115.249 83.8397 115.436 83.4337 115.678C83.0377 115.661 82.6449 115.756 82.3 115.951C81.9684 116.124 81.6131 116.247 81.2456 116.316C80.7604 116.413 80.3983 116.788 79.8921 116.84C79.5609 116.908 79.2335 116.994 78.9111 117.096C78.5551 117.222 78.1915 117.326 77.8224 117.406C77.5325 117.491 77.2598 117.627 77.0164 117.806H76.4991C76.3704 117.976 76.1959 118.105 75.9963 118.179C75.7967 118.252 75.5801 118.267 75.3722 118.222C75.0229 118.563 74.5147 118.475 74.2132 118.807C73.8019 118.787 73.5224 119.085 73.181 119.234C72.3574 119.593 71.5289 119.941 70.716 120.322C70.4135 120.464 70.1982 120.264 69.9027 120.202C69.9518 119.949 69.6837 119.748 69.7338 119.45C69.4564 119.16 69.1017 118.905 69.1585 118.445C69.0377 118.332 68.9122 118.408 68.797 118.374C68.3954 117.472 67.67 116.755 66.7644 116.362C66.7854 116.139 66.7143 115.863 66.5915 115.802C66.3094 115.662 66.1998 115.362 65.9627 115.192C65.9024 115.099 65.8763 114.988 65.8888 114.879C65.9013 114.769 65.9516 114.667 66.0312 114.59L65.7529 114.489V114.027C65.356 113.94 65.3772 113.378 64.915 113.383V112.767C64.4878 112.409 64.1443 111.961 63.9087 111.456C63.7051 111.065 63.3311 110.852 63.0606 110.479C63.1139 110.237 62.8507 110.032 62.8766 109.768C62.4468 109.525 62.0771 109.188 61.7952 108.782C61.5397 108.477 61.3423 108.113 61.0735 107.809C61.0204 107.765 60.9776 107.71 60.9481 107.647C60.9186 107.585 60.9032 107.517 60.9029 107.448C60.9083 107.345 60.5489 106.947 60.4386 106.859C60.3662 106.801 60.2329 106.728 60.2399 106.677C60.306 106.202 59.8227 106.193 59.6329 105.937V105.64C59.1696 105.322 58.9887 104.741 58.5516 104.445C58.4702 104.311 58.6053 104.318 58.5838 104.199L58.2291 103.508C58.1105 103.371 57.9389 103.503 57.8495 103.437C57.7557 103.365 57.6773 103.276 57.619 103.173C57.5607 103.071 57.5237 102.958 57.5102 102.84C57.4595 102.546 57.3028 102.281 57.0697 102.094C56.9857 102.011 56.9067 101.922 56.8175 101.844C56.151 101.211 55.5638 100.5 55.0688 99.726C54.9289 99.5275 54.7142 99.3937 54.6416 99.1286C54.6103 99.0448 54.5523 98.9734 54.4766 98.9258C54.4009 98.8781 54.3115 98.8567 54.2224 98.8648V98.5114C53.7733 98.1255 53.4038 97.6558 53.1343 97.1286C52.982 96.9017 52.8031 96.694 52.6015 96.5096C52.4178 96.3556 52.3996 96.0904 52.1224 95.9879C51.8173 95.8751 51.6613 95.5092 51.5525 95.2428C51.4521 94.9945 51.2897 94.7761 51.0809 94.6085C50.9202 94.4509 50.798 94.2584 50.7237 94.0459C50.4741 93.6533 50.1688 93.2992 49.8172 92.9945V92.7144C49.4076 92.6638 49.545 92.0733 49.1077 92.028V91.5615C48.9668 91.4849 48.8238 91.4771 48.7368 91.3501C48.5984 91.1482 48.6482 90.8026 48.2951 90.7625C48.2583 90.517 48.1448 90.2893 47.9709 90.1123C47.8041 89.9069 47.7045 89.6464 47.5343 89.4447C47.3701 89.2499 47.3284 89.0024 47.1882 88.8033C46.9711 88.462 46.7332 88.1345 46.4758 87.8225C46.2729 87.5994 46.2286 87.2102 45.8393 87.1695C45.9098 86.9827 45.6485 86.9287 45.6801 86.7326C45.7224 86.4691 45.4936 86.4041 45.299 86.3528C45.2561 86.2521 45.3565 86.2425 45.3628 86.2273C45.5027 85.9658 45.1114 85.8482 45.2648 85.6228C45.2553 85.6008 45.2424 85.5806 45.2265 85.5626C44.6859 85.1034 44.2587 84.5254 43.9782 83.8739C43.8419 83.5979 43.4988 83.4268 43.5615 83.0117C42.973 82.8466 43.2155 82.016 42.6203 81.8181C42.4028 81.313 42.153 80.8223 41.8725 80.3493C41.6264 79.8774 41.1634 79.537 41.1193 78.9901C40.9926 78.9769 40.9151 79.0075 40.8603 78.9132V78.3769C40.6027 78.077 40.4254 77.7375 40.2067 77.4277C40.01 77.21 39.8839 76.9376 39.8453 76.6466C39.8257 76.5403 39.7755 76.4421 39.7009 76.3638C39.2135 75.9691 39.1842 75.3304 38.8609 74.8538C38.5613 74.4124 38.4371 73.8599 38.0065 73.501V73.088C37.7596 72.935 37.7168 72.5759 37.443 72.377V71.8472L36.3025 70.239L36.442 70.0803C36.4346 69.6402 35.9542 69.4868 35.8715 69.0983C35.7956 68.7412 35.4394 68.5347 35.3959 68.1806C35.3013 68.1631 35.2196 68.2067 35.1771 68.102L35.2574 68.0081C34.7582 67.0525 34.3237 66.0644 33.957 65.0504L33.4995 64.5931C33.4157 64.2498 33.2858 63.9193 33.1133 63.6108C32.9804 63.4762 32.8789 63.3142 32.8159 63.1359C32.7529 62.9577 32.73 62.7677 32.7488 62.5796C32.5962 62.4093 32.3185 62.2274 32.3419 62.1014C32.4099 61.7357 31.8657 61.6507 32.0584 61.2751C31.5006 60.9671 31.4697 60.3849 31.3343 59.8742C31.2691 59.6281 31.1657 59.5198 30.9554 59.4882C30.8638 59.1907 30.7172 58.913 30.5233 58.6694C30.3082 58.4897 30.4688 58.0881 30.0968 58.0623C30.0774 57.8157 29.9256 57.6121 29.8842 57.3648C29.8119 57.1277 29.6811 56.9126 29.5039 56.7393C29.3665 56.5688 29.3783 56.3173 29.1116 56.1872C28.9909 56.1284 28.9141 55.8601 28.7546 55.7341L28.8741 55.6147C28.5649 55.078 28.2135 54.5665 27.8233 54.0855C27.6974 53.9434 27.8564 53.692 27.6237 53.5987C27.7489 53.308 27.2215 53.4597 27.3312 53.159C27.3982 52.9757 27.0998 52.8686 27.1839 52.6469C27.2008 52.6023 27.0946 52.4942 27.0267 52.4375C26.8522 52.2612 26.7148 52.0516 26.6229 51.8212C26.3479 51.2113 25.9954 50.6395 25.574 50.1199C25.4735 50.0018 25.3968 49.8651 25.3484 49.7177C25.0951 49.006 24.5788 48.4332 24.3064 47.7311C24.2677 47.6314 24.1416 47.5658 24.0524 47.481C24.0901 47.0776 24.0018 46.6726 23.7997 46.3215C23.8446 46.2942 23.8797 46.2533 23.9 46.2049C23.9203 46.1564 23.9248 46.1027 23.9129 46.0516C23.8162 45.8719 23.5253 46.0919 23.39 45.8373C23.3024 45.6721 23.1745 45.5458 23.2168 45.3433C23.441 45.3112 23.5601 45.1293 23.7101 44.9912C23.8522 44.9909 23.9944 44.991 24.133 44.991C24.6534 44.572 25.2642 44.28 25.9171 44.1381C26.4172 43.8155 26.9645 43.5728 27.5394 43.4189C27.9514 43.2464 28.3407 43.0241 28.6986 42.7569C29.123 42.5266 29.5827 42.3686 30.059 42.2891C30.3309 42.2026 30.6024 42.1151 30.8712 42.0289C30.7162 41.4903 30.4891 40.975 30.196 40.4972L30.3049 40.3884C29.9136 39.9559 30.4444 39.5106 30.3062 39.0627C29.8195 38.9554 29.8195 38.9555 29.7558 38.531C29.8035 38.4387 29.8732 38.3595 29.9589 38.3008C30.0445 38.242 30.1434 38.2053 30.2466 38.194C31.125 38.1314 31.9132 37.5451 32.8502 37.7692C32.9277 37.8189 32.9863 37.8932 33.0168 37.9801C33.0472 38.0669 33.0478 38.1614 33.0183 38.2486C32.784 38.4587 32.4864 38.5847 32.1725 38.6068C31.5917 38.6401 31.0183 38.7533 30.4684 38.9433C30.8686 39.4522 31.2219 39.9965 31.5239 40.5691C32.1135 41.2952 32.6183 42.086 33.0285 42.9265V43.2115C33.119 43.378 33.2993 43.4175 33.4529 43.4992L33.2957 43.6563L33.6332 43.875L33.4184 44.1122C33.8032 44.4336 33.8991 44.9354 34.1492 45.3584L34.0644 45.4485C34.0253 45.6439 34.2284 45.5075 34.2729 45.5948C34.3039 45.7021 34.3511 45.804 34.4132 45.8969C34.4759 45.9657 34.4539 46.1118 34.4699 46.2261C34.7251 46.2614 34.8467 46.4766 35.0181 46.6215V47.4429C35.1621 47.7021 35.3014 47.9286 35.417 48.1668C35.5277 48.5044 35.6989 48.8191 35.9224 49.0953C36.1732 49.3364 36.1382 49.7092 36.3552 49.9897C36.4972 50.2839 36.5847 50.6013 36.6136 50.9267L36.9947 51.2813V51.8498C37.2129 52.1123 37.467 52.3538 37.4401 52.7345C37.4295 52.8015 37.4458 52.8699 37.4852 52.925C37.755 53.2253 37.9334 53.5963 37.9996 53.9945C38.1314 54.3538 38.3934 54.6326 38.5432 54.9786C38.6048 55.1208 38.5542 55.1934 38.4388 55.293C38.6941 55.6948 38.9567 56.0967 39.2061 56.5067C39.2981 56.6564 39.3719 56.8166 39.4258 56.9838C39.6224 57.568 39.8787 58.1304 40.1906 58.6621C40.4505 59.0697 40.6633 59.5055 40.825 59.9611C40.9091 60.3426 41.138 60.6766 41.4633 60.8929C41.5535 60.968 41.6398 61.0479 41.6733 61.0775C41.7266 61.5911 41.9153 62.0813 42.2202 62.4981C42.5727 62.8827 42.729 63.3925 43.0708 63.7834C43.2638 64.0041 43.201 64.4261 43.6143 64.4765C43.7173 64.74 43.8433 64.9938 43.9908 65.2352C44.1581 65.4268 44.3449 65.6006 44.5481 65.7535V66.2337C44.6213 66.3556 44.7004 66.315 44.7414 66.3231C45.05 66.6447 44.9651 67.2295 45.535 67.3694C45.4767 67.7459 46.013 67.8293 45.9733 68.2205C46.2613 68.3949 46.2148 68.8918 46.5661 68.9069C47.2908 70.1887 48.1303 71.4021 49.0743 72.5322C49.0866 72.686 49.137 72.8345 49.2209 72.9639C49.3048 73.0934 49.4195 73.1999 49.5548 73.274C49.7579 73.3958 49.7471 73.6725 49.9253 73.707C50.1973 73.7597 50.1786 74.0006 50.3081 74.1385C50.445 74.2621 50.5299 74.4331 50.5455 74.6169C50.5945 74.8132 50.7062 74.9884 50.8636 75.1157C51.3024 75.5115 51.6415 76.0053 51.8533 76.5569C51.9315 76.7793 52.2186 76.8082 52.2245 77.0285C52.2302 77.241 52.4366 77.375 52.3979 77.613C52.3875 77.6773 52.6896 77.7528 52.7025 77.9594C53.0929 78.0279 53.1425 78.3597 53.2251 78.6546C53.2805 78.8524 53.3724 78.9825 53.6081 78.9908C53.8063 79.7018 54.578 80.1051 54.6789 80.9299C54.9087 81.1816 55.2308 81.4126 55.2441 81.8692C55.2469 81.9646 55.5041 82.2136 55.6049 82.229C55.7187 82.2526 55.8213 82.314 55.8959 82.4032C55.9706 82.4923 56.013 82.604 56.0164 82.7202C56.0982 83.1352 56.4365 83.398 56.5497 83.7851C56.5807 83.8518 56.6317 83.9071 56.6956 83.9434C56.7595 83.9798 56.8331 83.9953 56.9063 83.9878C56.946 84.4128 57.2942 84.7205 57.3793 85.1643C57.8534 85.7324 58.2174 86.4215 58.748 86.9908C58.7953 87.103 58.6002 87.0915 58.6462 87.2058C58.7338 87.4073 58.78 87.6573 59.0586 87.7247V88.0325C59.1955 88.1875 59.3479 88.3282 59.5134 88.4524C59.664 88.5464 59.5538 88.8731 59.8516 88.8044C59.9446 89.0033 60.0102 89.2138 60.0466 89.4304C60.0465 89.6026 60.089 89.7722 60.1703 89.924C60.2516 90.0759 60.3691 90.2052 60.5125 90.3007C60.8186 90.5059 61.0176 90.8218 61.3304 91.0044L61.1908 91.1652L61.4663 91.2631V91.6642C61.8905 92.1905 62.2481 92.748 62.703 93.2327C62.8262 93.3884 62.9128 93.5699 62.9561 93.7636C63.0891 94.0968 63.2952 94.3957 63.5592 94.6386C63.6779 94.747 63.7525 94.8953 63.7691 95.0552C63.7874 95.3085 64.0115 95.3576 64.254 95.338C64.4912 95.7045 64.5024 96.1729 64.8731 96.6157L65.2926 96.8067C65.3465 96.8858 65.2266 96.8904 65.2114 96.9496C65.4315 97.4816 65.8221 97.9254 66.3218 98.2114V98.6934C66.4996 98.7807 66.6569 98.9049 66.7833 99.0575C66.9097 99.2101 67.0023 99.3877 67.055 99.5788C67.274 99.6165 67.4786 99.7131 67.6469 99.8582C67.8152 100.003 67.9409 100.191 68.0104 100.402C68.0571 100.556 68.1551 100.689 68.2881 100.78C68.4918 100.909 68.4217 101.11 68.489 101.297C68.9907 101.225 69.0364 101.637 69.2132 101.999C69.3999 102.06 69.7427 101.992 69.7387 102.415C69.7355 102.742 70.1123 102.79 70.2845 102.999C70.4285 103.141 70.5816 103.274 70.7429 103.396C70.9377 103.569 71.1062 103.771 71.3011 103.943C71.4752 104.13 71.6648 104.301 71.8679 104.454C72.0588 104.604 72.2199 104.787 72.3425 104.996C72.4786 105.188 72.7584 105.223 72.8485 105.414C72.9664 105.613 73.1185 105.79 73.2979 105.936C73.4276 106.068 73.4132 106.345 73.6872 106.334C73.6518 106.602 74.0352 106.55 74.0422 106.819C74.0472 107.01 74.3736 106.93 74.4282 107.14C74.4849 107.359 74.7021 107.45 74.8254 107.616C74.932 107.76 74.9964 107.988 75.1345 108.045C75.5584 108.219 75.6743 108.61 75.9004 108.97H76.5142C76.9372 108.705 77.4048 108.518 77.8944 108.42C78.2012 108.359 78.4911 108.232 78.7437 108.047C78.879 107.914 79.1708 107.904 79.3456 107.81C79.6173 107.664 79.9403 107.787 80.1754 107.572C80.4091 107.404 80.6752 107.287 80.9566 107.227C81.4331 107.062 81.8984 106.856 82.3847 106.731C82.6091 106.674 82.7873 106.549 82.9938 106.48C83.327 106.369 83.5972 106.063 83.9948 106.148C84.774 105.737 85.6469 105.568 86.4421 105.185C86.8277 104.976 87.2309 104.801 87.6472 104.662C88.0499 104.55 88.4512 104.431 88.8473 104.297C89.46 104.123 90.0615 103.912 90.6485 103.665C90.9648 103.514 91.3281 103.495 91.6623 103.367C92.2967 103.123 92.9037 102.8 93.5544 102.615C94.4089 102.334 95.2486 102.01 96.0699 101.643C96.4202 101.504 96.7909 101.447 97.1473 101.329C97.7534 101.128 98.314 100.82 98.9264 100.64C99.812 100.38 100.623 99.8996 101.505 99.6646C102.092 99.5084 102.607 99.223 103.166 99.0271C103.91 98.7666 104.645 98.4765 105.383 98.1984C105.997 97.9666 106.642 97.8026 107.272 97.6057C107.877 97.4166 108.445 97.1033 109.054 96.9334C109.863 96.7076 110.609 96.3324 111.395 96.0577C111.484 96.0216 111.566 95.9706 111.637 95.9067C111.972 95.9368 112.308 95.856 112.593 95.6768C113.065 95.3611 113.657 95.2718 114.142 94.9605C114.631 94.9957 114.945 94.611 115.351 94.4443C115.756 94.2777 116.171 94.1021 116.578 93.9809C117.347 93.7518 118.014 93.3174 118.758 93.0536C119.3 92.7631 119.868 92.526 120.456 92.3459C121.152 91.9226 121.902 91.5943 122.685 91.3696C123.073 91.1067 123.527 90.9547 123.995 90.9302C124.101 90.6841 124.417 90.8952 124.533 90.6857C124.645 90.4835 124.882 90.5666 125.013 90.4748C125.568 90.1565 126.172 89.9301 126.8 89.8045C127.127 89.7056 127.39 89.505 127.695 89.3887C127.999 89.3268 128.294 89.2282 128.573 89.0951C128.656 89.0398 128.78 89.0128 128.855 88.926C128.981 88.721 129.156 88.5498 129.364 88.4274C129.571 88.3049 129.806 88.2347 130.046 88.223C130.192 88.1738 130.332 88.1092 130.464 88.0302C130.477 87.9183 130.49 87.8063 130.502 87.6989C130.556 87.6833 130.621 87.6469 130.638 87.6624C131.012 88.0055 131.396 87.7316 131.711 87.6072C132.224 87.4044 132.725 87.2016 133.259 87.0416C133.753 86.8933 134.238 86.6614 134.748 86.5282C134.854 86.5006 134.896 86.4256 134.971 86.3773C135.623 86.0125 136.297 85.6889 136.99 85.4081C137.473 85.1738 138.013 85.0214 138.52 84.8134C138.806 84.696 138.976 84.3549 139.34 84.3877C139.98 84.0425 140.669 83.7953 141.383 83.6542C142.035 83.4453 142.694 83.263 143.357 83.09C143.632 83.0153 143.915 82.9735 144.2 82.9654C144.554 82.6365 145.092 82.7225 145.412 82.3237C145.403 82.0922 145.323 81.8692 145.182 81.6853C145.041 81.5014 144.846 81.3655 144.625 81.2963C144.588 81.0739 144.511 80.8602 144.397 80.6654L144.549 80.4852C144.519 80.3697 144.406 80.4234 144.324 80.384C144.238 80.1999 144.328 79.8949 144.018 79.8398C143.793 79.7999 143.742 79.6463 143.685 79.4611C143.511 79.0827 143.361 78.6936 143.237 78.2961L143.012 78.2375C143.043 78.0153 142.904 77.829 142.831 77.6135C142.511 77.5151 142.237 77.3051 142.059 77.0219C141.881 76.7386 141.811 76.4009 141.861 76.0701C141.727 75.9175 141.548 75.8011 141.508 75.5756C141.473 75.3843 141.174 75.5082 141.128 75.2428C141.099 75.069 140.865 74.9299 140.719 74.7705V74.2133C140.59 74.116 140.534 73.9143 140.309 74.0221L140.292 73.6799C139.883 73.2949 139.589 72.8034 139.442 72.2605C139.064 72.0086 139.228 71.3874 138.731 71.2161C138.494 70.7691 138.277 70.3101 138.013 69.8792C137.777 69.5728 137.63 69.2072 137.589 68.8226L137.043 68.3257C137.06 67.7793 136.587 67.4836 136.508 67.0171C136.431 66.5579 135.94 66.3219 135.824 65.7474L135.455 65.4502V64.8104L135.163 64.707C135.335 64.2759 134.861 63.9949 134.887 63.5456L134.357 63.0685C134.302 62.4061 133.685 62.0408 133.63 61.4719C133.572 60.8641 132.889 60.5188 133.049 59.8836C132.992 59.7558 132.877 59.8023 132.808 59.762C132.595 59.2983 132.627 58.7428 132.247 58.3538C132.166 58.2711 132.198 58.1817 132.187 58.093C132.175 58.0033 132.194 57.8848 132.144 57.829C131.821 57.3269 131.541 56.7987 131.306 56.2502C131.076 55.8313 130.878 55.395 130.716 54.9454H130.549C130.393 54.8066 130.546 54.6245 130.37 54.3494L130.174 54.1966C130.216 53.8135 130.15 53.4261 129.981 53.0794C129.953 53.0442 129.825 53.1209 129.69 53.091C129.434 52.6726 129.316 52.1849 129.351 51.696C128.9 51.5503 128.738 51.1942 128.553 50.8299C128.313 50.3588 128.139 49.8521 127.891 49.4002C127.703 48.9053 127.479 48.4244 127.223 47.9614C127.135 47.8432 127.032 47.876 126.936 47.7763V47.2312C126.678 46.9101 126.667 46.5004 126.369 46.355C126.332 46.1603 126.454 46.1323 126.49 46.0516C126.434 46.0083 126.385 45.9575 126.343 45.9005C126.218 45.6688 125.822 45.7349 125.793 45.4323C125.767 45.1682 125.554 44.9762 125.527 44.7652C125.488 44.5501 125.38 44.3536 125.219 44.2057L125.322 44.1023L124.626 43.4069L124.761 43.2366C124.506 42.7247 124.216 42.231 123.894 41.759C123.728 41.4742 123.599 41.169 123.512 40.851C123.467 40.5838 123.341 40.3372 123.149 40.1452C122.632 39.4682 122.156 38.7603 121.724 38.0256H121.4C121.454 37.6298 121.058 37.3746 121.087 36.9548C120.972 36.9219 120.867 36.8608 120.782 36.7771C120.696 36.6934 120.632 36.5898 120.597 36.4754C120.53 36.2792 120.469 36.0178 120.107 36.0299C120.134 35.9106 120.121 35.786 120.07 35.6747C120.02 35.5633 119.935 35.4713 119.828 35.4121C119.786 35.2054 119.915 35.1824 119.953 35.0644C119.684 35.0356 119.383 35.0276 119.358 34.6546C119.085 34.665 119.109 34.3802 118.966 34.2585C118.823 34.1356 118.622 34.0143 118.576 33.8547C118.438 33.3811 118.112 33.0042 117.929 32.5379C117.715 32.4735 117.533 32.3304 117.42 32.1375C117.064 31.6059 116.592 31.1722 116.215 30.6594C116.098 30.4515 115.934 30.2734 115.736 30.1389C115.467 29.9819 115.338 29.6016 115.109 29.3553C114.922 29.1353 114.754 28.8995 114.608 28.6505C114.398 28.4164 114.228 28.1481 114.108 27.8571C114.077 27.7382 113.92 27.6512 113.818 27.5522C113.368 27.1578 112.99 26.6889 112.7 26.1659C112.635 26.0331 112.426 26.1202 112.428 26.0107C112.434 25.6891 112.041 25.8062 111.981 25.5632C111.927 25.3503 111.857 25.1419 111.771 24.9399C111.545 24.4962 111.241 24.0972 110.873 23.7622C110.692 23.6127 110.713 23.3056 110.466 23.2362C110.213 23.1653 110.235 22.8747 110.032 22.7654C109.822 22.6516 109.849 22.3435 109.628 22.2243C109.553 22.1839 109.587 22.0986 109.563 22.0385C109.477 21.8206 109.489 21.5365 109.306 21.3935C109.126 21.2535 109.077 21.0235 108.883 20.9093C108.611 20.7495 108.559 20.4142 108.332 20.2113C108.097 20.0249 107.904 19.7907 107.766 19.5242C107.735 19.4051 107.715 19.2835 107.707 19.1608C107.155 18.7483 107.006 18.0687 106.662 17.4209C106.599 17.3683 106.414 17.3679 106.339 17.2395C106.363 17.17 106.373 17.0963 106.367 17.0229C106.362 16.9495 106.342 16.8781 106.308 16.8128C106.274 16.7475 106.228 16.6896 106.171 16.643C106.114 16.5963 106.048 16.5618 105.977 16.5413C105.696 16.4279 105.675 16.1213 105.559 15.8871C105.498 15.7711 105.298 15.9183 105.29 15.7359L103.129 16.1721C103.617 16.4759 103.414 17.1049 103.857 17.4453V18.0204L104.297 18.4603L104.11 18.664H103.587C103.54 18.6902 103.495 18.7189 103.451 18.7499C103.149 19.0177 102.775 19.1909 102.376 19.2477C102.107 19.342 101.847 19.4612 101.599 19.6036C101.08 19.7123 100.586 19.9171 100.142 20.2074C99.6629 20.2322 99.2726 20.5725 98.8323 20.6362C98.2024 20.7598 97.5987 20.9916 97.0479 21.3214C96.9297 21.3634 96.8055 21.3867 96.6801 21.3902L96.2499 21.8715C95.0994 22.1065 93.992 22.5175 92.9667 23.0899C92.4164 23.066 91.8716 23.2093 91.4042 23.5008C90.9776 23.7943 90.4705 23.9484 89.9527 23.9417C89.2291 24.1517 88.5284 24.4335 87.8609 24.7829C86.855 24.7669 85.9608 25.4316 84.9726 25.3668C84.2713 25.7326 83.5119 25.9744 82.7282 26.081C82.2932 26.1542 81.8712 26.2906 81.4757 26.4859C81.0733 26.6899 80.6279 26.7944 80.1768 26.7908C79.7855 26.7476 79.4799 27.092 79.0858 27.0706C78.1888 27.5674 77.1278 27.5853 76.2201 28.0511C75.7297 28.0779 75.2516 28.2146 74.8212 28.4512C74.7336 28.4737 74.6441 28.4876 74.5538 28.4925C74.3229 28.4819 74.0915 28.5002 73.8652 28.5471C73.4757 28.6751 73.103 28.8495 72.7549 29.0663C72.347 28.9436 71.9558 29.3225 71.5224 29.1918L71.2243 29.4899C71.0457 29.4587 70.8624 29.4689 70.6884 29.5198C70.5144 29.5706 70.3544 29.6605 70.2206 29.7829C69.911 29.729 69.5922 29.7796 69.3144 29.9265C68.5666 30.1112 67.8308 30.3412 67.1109 30.6153C66.5923 30.5294 66.1658 30.8927 65.6685 30.9109C65.5999 30.9039 65.5312 30.9229 65.476 30.9641C65.0334 31.273 64.4913 31.4054 63.9561 31.3352L63.7564 31.6079C63.1101 31.6537 62.4806 31.8352 61.9092 32.1406C61.5376 32.1985 61.1763 32.3097 60.8364 32.4707C60.5159 32.6963 60.0918 32.5663 59.7427 32.7488C59.6142 32.8159 59.4212 32.7597 59.2901 32.7597C58.8965 33.0743 58.4194 33.2665 57.9177 33.3128C57.6499 33.3429 57.3851 33.3952 57.1261 33.4696C56.333 33.8007 55.5098 34.0547 54.668 34.2282C53.8179 34.3942 53.0275 34.7774 52.1668 34.8856C51.9953 34.9296 51.8324 35.0017 51.6845 35.099C51.3177 35.312 50.9062 35.4363 50.4829 35.4618C50.393 35.4634 50.3051 35.489 50.2284 35.536C49.7209 35.7972 49.1319 35.9187 48.6607 36.2015C48.0246 36.5832 47.2752 36.515 46.6622 36.8842C46.4887 36.8773 46.3162 36.9127 46.1594 36.9873C46.0027 37.0619 45.8664 37.1734 45.7624 37.3123C45.4281 37.3134 45.0981 37.3878 44.7956 37.5301C44.1456 37.8656 43.4386 38.0767 42.7111 38.1528C42.3716 38.1637 42.1751 38.505 41.8334 38.4487C41.064 38.8326 40.2398 39.0951 39.39 39.2268C38.5948 39.5097 37.7771 39.7252 36.9457 39.8709C36.4691 40.1419 35.914 40.2415 35.3729 40.153C35.2116 40.0021 35.0971 39.7925 34.8388 39.8744C34.3075 39.3999 33.8511 38.8475 33.4854 38.2361C33.2868 37.9471 33.139 37.6263 33.0483 37.2876C32.9164 36.8964 32.8575 36.4842 32.8744 36.0717C32.9021 35.7762 32.867 35.4784 32.7715 35.1974C32.6978 35.013 32.6826 34.8102 32.728 34.6169C32.7734 34.4235 32.8773 34.2489 33.0255 34.1167V33.5493C33.3259 33.2101 33.7349 32.9547 33.751 32.4199C33.7559 32.2603 34.0568 32.2011 34.0291 31.9675L34.8159 31.5834C34.9182 31.0979 35.5654 31.1136 35.7085 30.7279C35.8591 30.5442 36.0205 30.6916 36.144 30.5755C36.6191 30.2131 37.1568 29.9414 37.7304 29.7739C37.7506 29.7655 37.778 29.7762 37.8011 29.7723C38.2143 29.7024 38.4625 29.3217 38.8471 29.2086C39.2399 29.1379 39.614 28.987 39.946 28.7656C40.1835 28.5973 40.4653 28.5027 40.7562 28.4938C41.0266 28.4841 41.2858 28.3836 41.492 28.2085L41.9186 28.2084C41.9767 27.9242 42.2324 27.8674 42.4431 27.7874C42.8529 27.6318 43.2506 27.448 43.6639 27.298C44.2994 27.0567 44.9185 26.7741 45.517 26.4519C46.3577 26.0144 47.1796 25.541 48.0059 25.0765C48.1012 25.0104 48.1889 24.9337 48.2673 24.8481C48.5167 24.5759 48.7991 24.3358 49.1078 24.1333C49.3666 23.9923 49.4877 23.6836 49.6758 23.4563C50.056 23.1245 50.3637 22.7179 50.5798 22.2619C50.6189 22.1347 50.7736 22.0779 50.945 22.0561C50.9427 21.7658 50.9891 21.4772 51.0824 21.2023C51.3505 20.6244 51.4004 19.9675 51.6642 19.3817C51.4701 19.0481 51.9151 19.1672 51.9709 18.9485C52.0608 18.596 52.3363 18.2941 52.4544 17.9443C52.5728 17.609 52.746 17.2956 52.967 17.017C53.055 16.9262 53.1235 16.8184 53.1683 16.7001C53.213 16.5819 53.2332 16.4559 53.2274 16.3296C53.4101 16.2118 53.4775 15.9295 53.7569 15.97C53.7906 15.8299 53.8521 15.6979 53.9378 15.582C54.0235 15.4661 54.1315 15.3687 54.2555 15.2953C54.3528 15.2512 54.4313 15.1741 54.4771 15.0776C54.5229 14.9812 54.5331 14.8717 54.5057 14.7684C54.8104 14.655 55.0615 14.4315 55.2095 14.142C55.2503 14.0361 55.3205 13.9442 55.4118 13.8768C55.6422 13.7524 55.9417 13.7151 56.1189 13.5447C56.2855 13.359 56.4889 13.2101 56.7161 13.1072C56.8637 13.0487 57.0874 12.9969 57.1309 12.733C57.1585 12.5658 57.3708 12.5382 57.5439 12.5649C57.9883 12.192 58.4846 11.8859 59.0174 11.6562C59.5885 11.4164 60.1364 11.1246 60.6542 10.7846C61.0122 10.572 61.3962 10.4065 61.7966 10.292C61.8808 10.2659 61.9663 10.2444 62.0528 10.2275C62.3557 10.1466 62.4991 9.79184 62.9013 9.83679C63.1791 9.86789 63.4313 9.56545 63.7757 9.55383C63.9883 9.54671 64.1396 9.23547 64.3976 9.17406C64.7827 9.20627 65.1683 9.11788 65.5008 8.92099C65.723 8.74612 66.0967 8.96765 66.3392 8.72337C67.0567 8.68952 67.7649 8.5456 68.4387 8.29667C68.8867 8.40545 69.287 8.09285 69.7315 8.15258C69.985 8.18667 70.1863 7.96756 70.4559 8.00363C70.6791 8.00432 70.901 7.96861 71.1127 7.89795C71.5834 7.85046 72.0571 7.8394 72.5295 7.86493C72.827 7.91579 73.1329 7.87248 73.4045 7.741C73.6016 7.60695 73.8822 7.77047 74.1091 7.80253C74.3053 7.83025 74.3995 7.65858 74.585 7.71997C75.3812 7.98367 76.2694 7.72689 77.0437 8.13937C77.4811 8.12096 77.8759 8.45114 78.2986 8.26469L78.6281 8.57824C78.6767 8.59202 78.7287 8.58702 78.7738 8.56416C78.8188 8.54131 78.8536 8.5022 78.8712 8.45484C79.1421 8.58942 79.4219 8.70576 79.7084 8.8028C80.102 8.96254 80.4631 9.19272 80.774 9.48222C81.2132 9.79441 81.694 10.0364 82.1336 10.3487C82.5322 10.6677 82.9674 10.9382 83.4299 11.1544C83.7396 11.279 83.8844 11.6731 84.2384 11.7781C84.322 11.8028 84.4006 11.8439 84.4953 11.8832C84.5022 11.9739 84.533 12.0613 84.5845 12.1363C84.6359 12.2113 84.7063 12.2714 84.7885 12.3104C84.9881 12.4047 85.0502 12.6506 85.2536 12.6996C85.5111 12.7616 85.4779 13.026 85.6232 13.1565C85.7246 13.2477 85.7895 13.3762 85.9403 13.4197C86.4491 13.5666 86.8978 13.9289 87.4714 13.8434C88.4628 14.0044 89.4694 14.0505 90.4713 13.9807C90.7698 13.9921 91.023 14.1994 91.3382 14.1346C91.494 14.1025 91.6653 14.1437 91.7122 14.003C91.8632 13.9639 91.892 14.0614 91.9508 14.077C92.6164 14.1577 93.2902 14.141 93.951 14.0278C94.2721 13.9266 94.6053 13.8689 94.9417 13.8561C95.5472 13.8018 96.1455 13.6854 96.7272 13.5087C97.264 13.402 97.8168 13.4036 98.3531 13.5134C98.783 13.6008 99.2279 13.5789 99.6472 13.4496L101.419 14.0198L102.353 14.9619C103.16 14.994 103.967 14.8794 104.734 14.6233C105.082 14.5455 105.432 14.47 105.785 14.4154C106.188 14.4229 106.584 14.5259 106.94 14.7159C107.034 14.7454 107.114 14.8549 107.244 14.8512C107.282 15.1585 107.577 15.278 107.681 15.443C107.786 15.8368 107.817 16.17 108.231 16.2893C108.434 16.3477 108.454 16.5683 108.434 16.754C108.834 17.25 109.513 17.5553 109.429 18.334C109.569 18.3803 109.696 18.4604 109.799 18.567C109.901 18.6736 109.976 18.8036 110.017 18.9458C110.052 19.1249 110.128 19.2937 110.238 19.4395C110.348 19.5854 110.489 19.7046 110.652 19.7884C110.897 19.8725 110.91 20.0673 110.963 20.1758C111.1 20.563 111.349 20.9005 111.679 21.1444C111.745 21.1943 111.795 21.2619 111.824 21.3391C111.853 21.4164 111.859 21.5 111.842 21.5807C111.991 21.6702 112.226 21.708 112.256 21.8866C112.288 22.0762 112.282 22.2009 112.508 22.2884C112.621 22.3322 112.608 22.646 112.728 22.7393C112.873 22.8518 113.06 22.8873 112.978 23.1306C113.167 23.4177 113.522 23.5727 113.614 23.9379H113.89C114.056 24.0328 113.924 24.2044 113.999 24.3192C114.083 24.3457 114.164 24.3801 114.241 24.4219C114.537 24.6204 114.443 25.0895 114.875 25.2408C115.23 25.3653 115.229 25.8281 115.406 26.1288C115.572 26.4109 115.682 26.7709 116.091 26.8196L116.13 27.1756C116.388 27.2374 116.737 27.2064 116.676 27.6275C116.64 27.8748 116.912 27.7285 116.987 27.9159C117.058 28.0878 117.165 28.2432 117.299 28.3721C117.434 28.501 117.593 28.6009 117.768 28.6651C117.838 28.8554 118.026 29.0261 117.962 29.2771C118.324 29.4313 118.622 29.7066 118.803 30.056C118.898 30.2267 119.234 30.2597 119.102 30.5584C119.277 30.7295 119.427 30.931 119.655 30.9636C119.689 31.1363 119.6 31.1874 119.532 31.2589C119.57 31.312 119.615 31.3601 119.666 31.4021C119.757 31.4616 119.864 31.4985 119.956 31.5566C120.267 31.7508 120.253 32.1851 120.52 32.3801C120.777 32.5685 121.058 32.7089 121.154 33.0385C121.229 33.2301 121.349 33.4005 121.506 33.5342C121.566 33.5982 121.673 33.6344 121.66 33.7539C121.614 34.1658 121.929 34.1637 122.216 34.2232L122.236 34.5322L122.695 34.9009L122.572 35.0467C122.46 35.1479 122.59 35.1634 122.617 35.2054C122.655 35.2637 122.726 35.3011 122.762 35.3603C122.794 35.4149 122.786 35.494 122.819 35.5487C122.857 35.6092 122.908 35.6605 122.968 35.6987C123.032 35.7299 123.1 35.7539 123.17 35.7701C123.331 36.1627 123.536 36.5358 123.781 36.8821C123.807 36.9101 123.863 36.9107 123.905 36.9242C123.938 37.0115 123.841 37.0223 123.815 37.0804C123.824 37.2222 123.95 37.1384 124.035 37.2058C124.139 37.5329 124.309 37.835 124.535 38.0934C124.832 38.5075 125.062 38.9654 125.218 39.4505C125.224 39.4957 125.24 39.5391 125.264 39.5781C125.287 39.617 125.319 39.6507 125.356 39.677C125.394 39.7032 125.436 39.7215 125.481 39.7307C125.525 39.7399 125.572 39.7397 125.616 39.7303C125.637 40.3973 126.157 40.6955 126.488 41.0742C126.5 41.1254 126.495 41.1792 126.474 41.2273C126.453 41.2755 126.417 41.3154 126.371 41.341C126.453 41.5916 126.761 41.5508 126.881 41.7482C126.962 41.8776 126.907 42.0212 126.927 42.1937C127.174 42.4221 127.282 42.797 127.586 43.0202C127.66 43.0747 127.612 43.1531 127.637 43.2128C127.851 43.7898 128.121 44.3449 128.442 44.8702C128.571 45.064 128.444 45.2927 128.619 45.5162C128.836 45.7653 129.078 45.9909 129.342 46.1892L129.192 46.3578L129.471 46.4548V47.0652C130.089 47.9086 130.59 48.8318 130.96 49.8098L131.34 50.1808C131.187 50.6791 131.621 50.9772 131.822 51.3627C131.969 51.6447 131.836 51.9153 131.921 52.1893C132.015 52.2646 132.077 52.4184 132.258 52.3855C132.395 52.7304 132.695 53.0207 132.614 53.4417C132.96 53.6922 132.961 54.185 133.313 54.4323C133.288 54.4506 133.268 54.4743 133.255 54.5016C133.241 54.5289 133.234 54.559 133.234 54.5896C133.234 54.6202 133.241 54.6503 133.254 54.6777C133.268 54.7051 133.288 54.7289 133.312 54.7472C133.382 54.8282 133.325 55.02 133.325 55.1616C133.794 55.251 133.664 55.7293 133.866 55.995C134.086 56.2851 133.965 56.6985 134.266 57.0328C134.41 57.0878 134.533 57.1864 134.619 57.3149C134.704 57.4434 134.747 57.5956 134.742 57.7498C134.769 58.0258 134.779 58.2713 135.108 58.3788C135.219 58.4149 135.282 58.6283 135.293 58.7142C135.317 59.0097 135.451 59.2857 135.667 59.4882C135.71 59.5291 135.739 59.5817 135.751 59.6392C135.764 59.6968 135.758 59.7566 135.737 59.8113C135.679 60.0067 135.835 60.128 135.9 60.2444C136.295 60.9468 136.31 60.9387 136.313 61.4383C136.838 61.6915 136.715 62.4717 137.308 62.6971C137.308 62.7917 137.308 62.8864 137.308 62.983L137.721 63.3916C137.72 63.4568 137.725 63.5219 137.737 63.5859C137.767 63.8971 137.878 64.1951 138.059 64.4498C138.257 64.717 138.384 65.03 138.428 65.3595C138.503 65.6239 138.602 65.766 138.884 65.7742L138.778 65.9268C138.857 66.4666 139.419 66.7302 139.545 67.279L139.443 67.3967C140.006 67.8762 140.373 68.545 140.475 69.2768L141.002 69.8038V70.1098C141.317 70.2321 141.324 70.6808 141.7 70.7821L141.734 71.0892C141.792 71.222 141.94 71.0929 141.984 71.2352L141.873 71.3679C141.97 71.5327 142.177 71.6191 142.163 71.8832C142.185 72.0604 142.274 72.2223 142.412 72.3355C142.551 72.4626 142.728 72.5296 142.806 72.7349C142.85 72.9383 142.868 73.1463 142.859 73.3543C143.16 73.5311 143.382 73.8151 143.482 74.149C143.605 74.4527 143.736 74.7549 143.895 75.0752C144.151 75.1626 144.326 75.4151 144.543 75.6197C144.562 75.864 144.65 76.0979 144.795 76.295C144.858 76.3886 144.927 76.4776 145.003 76.5613C145.158 76.7854 145.047 77.1747 145.35 77.2617C145.667 77.3527 145.653 77.6785 145.883 77.8323C146.03 77.9303 146.146 78.0696 146.215 78.2328C146.284 78.396 146.303 78.576 146.27 78.75C146.341 78.8716 146.42 78.8306 146.503 78.8453C146.391 79.0934 146.64 79.2865 146.542 79.5277L146.936 79.5706C147.019 79.6838 146.875 79.684 146.858 79.792ZM53.0187 33.0383C53.4603 33.0482 53.8977 32.9496 54.2924 32.7512C54.3889 32.7242 54.4762 32.6476 54.5881 32.6082C55.6693 32.2267 56.7808 31.9488 57.8745 31.6119C58.3195 31.4748 58.7809 31.4312 59.2245 31.2707C59.7006 31.0984 60.15 30.8687 60.618 30.6829C61.1128 30.4864 61.6991 30.5946 62.1288 30.2047C62.1678 30.1694 62.2668 30.2016 62.3379 30.1999C62.5122 30.1745 62.6841 30.1351 62.8522 30.0824C63.3374 29.9968 63.7595 29.6424 64.2521 29.7782C64.4479 29.5348 64.7317 29.3784 65.0421 29.343C65.6175 29.2894 66.1792 29.1357 66.7016 28.8887C67.4305 28.5703 68.1973 28.3471 68.9831 28.2245C69.3577 28.1696 69.7267 28.0821 70.0861 27.9631C70.2988 27.887 70.5229 27.7094 70.796 27.7778C70.9902 27.8265 71.1422 27.6608 71.2713 27.5695C71.4493 27.4435 71.6732 27.4273 71.8116 27.3327C72.1232 27.1198 72.503 27.3466 72.7844 27.0859C73.0639 26.827 73.5082 27.059 73.7961 26.7866C74.1715 26.9469 74.3607 26.5488 74.6728 26.4953C75.2811 26.2747 75.9152 26.1336 76.5596 26.0756C76.758 25.8875 77.0307 25.963 77.2603 25.879C77.6258 25.7278 78.0032 25.607 78.3884 25.5175C78.8054 25.4391 79.1546 25.0829 79.6198 25.2222C79.8787 24.9789 80.2516 25.0684 80.5509 24.8869C80.8672 24.7307 81.2058 24.6246 81.5547 24.5725C82.2394 24.3044 82.9594 24.1373 83.6921 24.0762C84.57 23.5971 85.5235 23.5162 86.3777 23.092C87.1293 23.1382 87.7956 22.576 88.5775 22.6679C88.7133 22.5435 88.8764 22.4529 89.0536 22.403C89.2308 22.3531 89.4172 22.3454 89.598 22.3806C89.821 22.0282 90.2166 22.0189 90.5271 21.8525C91.1731 21.5215 91.856 21.2682 92.5616 21.0979C92.9569 21.0563 93.3421 20.9471 93.7005 20.7751C94.0602 20.5141 94.4816 20.4474 94.8291 20.2281C95.1161 20.0469 95.4147 19.9182 95.7045 19.7653C96.0272 19.595 96.3635 19.5083 96.6777 19.3632C96.9179 19.305 97.1452 19.203 97.3484 19.0624C97.5561 18.8907 97.8216 18.8048 98.0904 18.8224C98.3842 18.8308 98.6742 18.7549 98.9261 18.6035C99.2841 18.4194 99.5944 18.1678 99.9922 17.9851C100.555 17.8693 101.13 17.8299 101.703 17.8678C101.61 17.8048 101.538 17.7162 101.494 17.6128C101.451 17.5094 101.439 17.3956 101.459 17.2854C101.476 17.1482 101.453 17.0088 101.393 16.8844C101.332 16.76 101.237 16.6558 101.119 16.5846C100.648 16.3728 100.568 15.9326 100.377 15.5395C99.8971 15.6735 99.945 15.1504 99.6622 14.9765C99.2245 15.0817 98.8065 14.807 98.3346 14.8218C97.8936 14.8356 97.4931 15.079 97.0421 14.9852C96.631 14.9533 96.218 15.017 95.8356 15.1713C95.4205 15.2786 94.9858 15.3109 94.5986 15.4397C94.1483 15.5424 93.685 15.5768 93.2244 15.5419C92.4196 15.5734 91.6125 15.5385 90.8067 15.5547C90.1898 15.4654 89.5678 15.4147 88.9445 15.403C88.7934 15.4245 88.6803 15.1751 88.5085 15.2702C88.0229 15.5392 87.5049 15.3415 87.0312 15.4134C86.812 15.2398 86.5471 15.1334 86.2687 15.1074C85.73 15.0976 85.2082 14.9175 84.7781 14.5929C84.6724 14.4827 84.4932 14.6355 84.4748 14.6092C84.2594 14.1683 84.2136 13.7563 83.7289 13.826C83.2661 13.4523 82.8939 12.9787 82.6402 12.4406C82.292 12.3648 82.063 12.0925 81.7083 12.1177L81.1953 11.5771C81.0635 11.544 80.9245 11.6289 80.8441 11.5085C80.6298 11.2676 80.3733 11.0678 80.0873 10.9187C79.6949 10.5513 79.2325 10.2665 78.7278 10.0813C78.1127 9.9243 77.5286 9.65523 76.8925 9.53193C76.5493 9.46544 76.2297 9.23753 75.8582 9.29729C75.4782 9.35843 75.1491 9.15763 74.7793 9.13669C73.5581 9.06756 72.3542 9.31636 71.1394 9.28599C70.7097 9.29619 70.2842 9.37168 69.8773 9.51003C69.5313 9.58083 69.1911 9.67744 68.8595 9.7989C68.5155 9.90108 68.1602 9.96004 67.8017 9.97462C67.4012 10.0306 67.0045 10.1115 66.614 10.2171C66.2131 10.3394 65.7986 10.3987 65.3988 10.5405C65.0812 10.6279 64.7699 10.7368 64.467 10.8666C64.1308 10.9754 63.8016 11.1048 63.4814 11.2544C63.1751 11.4582 62.7384 11.4853 62.396 11.7103C62.0317 11.87 61.6795 12.056 61.3421 12.2668C61.2981 12.3186 61.2433 12.3601 61.1815 12.3885C61.1198 12.4168 61.0524 12.4313 60.9844 12.4309C60.8834 12.43 60.7836 12.4516 60.6921 12.4943C60.6006 12.5371 60.5198 12.5998 60.4557 12.6779C60.2317 12.8635 59.9755 13.0065 59.6999 13.0995C59.5244 13.1851 59.3473 13.2875 59.1694 13.3592C58.7329 13.535 58.4055 13.8948 57.953 14.0285C57.9362 14.0927 57.9408 14.1823 57.8993 14.2169C57.555 14.505 57.1375 14.6849 56.7813 14.9636C56.6852 15.0388 56.3944 15.0459 56.3974 15.1757C56.4035 15.4414 56.1603 15.3961 56.0635 15.5278C55.7318 16.0703 55.3534 16.5827 54.9326 17.0594V17.3917C54.8886 17.3777 54.8421 17.3735 54.7962 17.3794C54.7504 17.3852 54.7064 17.401 54.6674 17.4256C54.6283 17.4502 54.5951 17.4831 54.57 17.5219C54.545 17.5607 54.5287 17.6044 54.5223 17.6502C54.4586 18.1574 54.0479 18.4961 53.9315 18.9748C53.8971 19.1161 53.7511 19.2304 53.6582 19.3544C53.63 19.9409 53.4293 20.506 53.0815 20.9791L53.2084 21.1837C52.9249 21.4731 52.7166 21.8275 52.6016 22.216C52.5509 22.4844 52.4141 22.729 52.2122 22.9129C52.0973 23.0468 52.0085 23.201 51.9501 23.3675C51.8797 23.5037 51.8514 23.6805 51.7469 23.7775C51.0926 24.4805 50.3969 25.1437 49.6635 25.7639C49.4495 25.9201 49.2099 25.9239 48.9982 26.0761C48.5699 26.384 48.0773 26.608 47.6521 26.9307C47.3466 27.1049 47.024 27.2473 46.6893 27.3551C46.1086 27.6643 45.5124 27.9431 44.903 28.1908C44.4862 28.3405 44.1255 28.602 43.6952 28.7117C43.1236 28.7919 42.576 28.9946 42.09 29.306C41.92 29.44 41.6735 29.3489 41.4484 29.473C40.3344 30.0871 39.1058 30.4542 37.9674 31.0218C37.6367 30.9217 37.5163 31.2888 37.2461 31.3435C36.806 31.4327 36.4791 31.7768 36.0642 31.9201C35.7054 32.0439 35.6251 32.4109 35.3695 32.6179C35.1138 32.7825 34.9058 33.0113 34.7663 33.2815C34.6267 33.5517 34.5604 33.8537 34.5741 34.1575C34.1593 34.2682 34.4111 34.7199 34.189 34.9716C34.1407 35.0526 34.1211 35.1476 34.1333 35.2412C34.1456 35.3348 34.1891 35.4215 34.2567 35.4873C34.3742 35.5984 34.2997 35.756 34.3045 35.8911C34.3156 36.1988 34.3226 36.5081 34.3038 36.815C34.3074 37.0843 34.3852 37.3473 34.5287 37.5751C34.6392 37.7869 34.854 37.974 34.8644 38.2154C34.877 38.5112 35.2989 38.6144 35.164 38.9492C35.3289 39.0801 35.3073 39.3438 35.5246 39.4449C35.5531 39.4142 35.5791 39.3594 35.6175 39.3486C36.1915 39.1876 36.766 39.0287 37.3432 38.8799C37.4321 38.8702 37.5181 38.8419 37.5954 38.797C38.1118 38.5066 38.6485 38.2539 39.2013 38.0409C39.3626 37.9569 39.5447 38.0343 39.7335 37.9524C40.3213 37.6548 40.9353 37.4118 41.5675 37.2264C41.8409 37.1633 42.1019 36.994 42.3584 36.9155C42.6189 36.8016 42.891 36.7165 43.17 36.6619C43.5885 36.642 43.8577 36.35 44.2238 36.2503C44.4175 36.1976 44.6387 36.2608 44.8092 36.1285C45.0781 35.9198 45.4397 35.9227 45.7147 35.7419C45.9953 35.5574 46.3727 35.5922 46.6098 35.3244C46.9964 35.4154 47.231 35.1058 47.527 34.9648C47.609 34.9314 47.6942 34.906 47.7812 34.8892C47.9985 34.8539 48.212 34.7977 48.4185 34.7215C48.6337 34.6045 48.9363 34.698 49.0858 34.4231C49.2157 34.1841 49.5528 34.456 49.7076 34.2187C50.5121 33.996 51.3024 33.7254 52.0746 33.4082C52.383 33.2968 52.7529 33.3423 53.0187 33.0383Z" fill="#212222"/>
<path d="M82.1808 63.322C82.0703 63.1292 81.9196 62.9625 81.739 62.8331C81.5583 62.7037 81.352 62.6148 81.1339 62.5722L80.3578 61.7742C80.2432 61.7986 80.1242 61.7925 80.0127 61.7565C79.9012 61.7205 79.8011 61.6557 79.7224 61.5689C79.2353 61.0549 78.5071 60.7846 78.2112 60.0811C77.9083 59.9123 77.6385 59.6898 77.415 59.4247V59.1052C76.5875 58.9154 76.1086 58.237 75.5217 57.6793C75.4024 57.5884 75.2145 57.7188 75.0871 57.5418C74.9943 57.4128 75.0076 57.2306 74.847 57.1379C74.7323 57.0716 74.5985 57.0595 74.4955 56.9463C74.2445 56.7476 74.0716 56.4667 74.0073 56.1531C73.9944 55.9537 73.8425 55.8847 73.7273 55.7347C73.6661 55.3378 73.8358 54.8808 73.5 54.5252L74.141 53.9606H74.3456C74.4139 53.7711 74.5329 53.6039 74.6896 53.4773C75.5293 52.8747 76.3686 52.2716 77.2145 51.6777C77.6158 51.3958 78.0318 51.1346 78.4404 50.8632C78.5894 50.7643 78.7366 50.6627 78.9081 50.5465C79.5067 50.5222 80.0948 50.7098 80.5686 51.0765C80.7691 51.2575 81.0234 51.3679 81.2925 51.3907C81.7266 51.6662 81.9437 52.1908 82.4451 52.3868C82.6847 52.8138 83.2577 52.9454 83.4249 53.5023C83.6551 53.5335 83.8779 53.6056 84.0829 53.7149L84.1182 54.0411C84.2269 54.1386 84.3489 54.0729 84.4601 54.0903C84.6612 53.8891 84.8623 53.6881 85.0757 53.4748C85.0872 53.3764 85.0578 53.222 85.1204 53.1594C85.5125 52.6995 85.8416 52.1894 86.0991 51.6427C86.2694 51.3749 86.4615 51.1216 86.6734 50.8853C86.9109 50.6321 87.0547 50.3052 87.0809 49.959C87.5227 49.4393 87.8689 48.8455 88.1036 48.205C88.2393 47.805 88.4572 47.4377 88.7433 47.1268C89.0446 46.7745 89.0914 46.3148 89.3448 45.9441C89.4149 45.8073 89.4959 45.6763 89.5869 45.5525C89.6514 45.4831 89.7661 45.4265 89.7802 45.3498C89.8977 44.7122 90.3933 44.2812 90.6599 43.7231C90.8957 43.2295 91.2367 42.7691 91.4263 42.2637C91.7485 41.4045 92.3492 40.711 92.7114 39.8813C92.8155 39.6428 93.0794 39.4741 93.1836 39.2357C93.305 38.9578 93.6372 38.7441 93.4975 38.3709C93.6721 38.1162 93.8143 37.8407 93.9206 37.5508C93.9565 37.4862 94.0018 37.4273 94.0551 37.376V36.8193C94.4047 36.518 94.7073 36.166 94.9526 35.775C95.0628 35.5589 95.2743 35.6321 95.4403 35.575C95.8164 35.4229 96.2283 35.3823 96.6269 35.458C96.8397 35.473 97.0533 35.4742 97.2663 35.4617C97.7395 35.4713 98.208 35.5572 98.6538 35.7163C98.6947 35.7342 98.7387 35.7438 98.7833 35.7446C99.374 35.6795 99.9449 35.8995 100.526 35.8739C100.799 35.8619 100.973 36.0988 101.251 36.0406C101.492 36.0135 101.734 36.0104 101.975 36.0311C102.027 36.134 102.11 36.2186 102.211 36.2735C102.313 36.3285 102.429 36.3513 102.544 36.3389C103.11 36.8631 102.795 37.3842 102.657 37.8821C102.505 38.3625 102.328 38.8342 102.125 39.2954C101.986 39.7346 101.811 40.1613 101.6 40.5706C101.385 40.8724 101.205 41.1982 101.066 41.5415L101.126 41.6021C100.825 42.2234 100.535 42.8348 100.233 43.4402C99.935 44.036 99.8745 44.7089 99.517 45.4138L99.0534 45.8313V46.6289C98.7721 46.7368 98.5435 46.9493 98.4154 47.2221C98.2766 47.4794 98.4554 47.8665 98.0822 48.0103C98.0393 48.2768 97.8253 48.5177 97.8091 48.7403C97.7782 49.1673 97.5019 49.4268 97.3464 49.7724C97.39 49.8297 97.4943 49.8699 97.482 49.9406L96.9279 50.4766C96.9406 50.9287 96.7967 51.3714 96.5205 51.7295C96.3439 51.9309 96.3488 52.2859 96.1825 52.5034C95.9039 52.8678 95.9025 53.3448 95.5872 53.669L95.7459 53.8682C95.7286 53.8952 95.7151 53.9394 95.6852 53.9589C95.5639 54.0625 95.4763 54.2001 95.4337 54.3538C95.2161 54.8324 94.9996 55.3118 94.7691 55.7842C94.5476 56.2381 94.2716 56.6691 94.0908 57.1377C93.9798 57.43 93.8073 57.6952 93.5849 57.915C93.3034 58.5469 92.8854 59.1087 92.361 59.5599V59.8517C91.6011 60.491 91.1557 61.4099 90.4195 62.0923C89.8721 62.6776 89.2495 63.1879 88.5682 63.6098C87.9521 63.7871 87.4031 64.1227 86.7866 64.2934C86.6525 64.3235 86.515 64.336 86.3776 64.3304C85.9275 64.3401 85.4752 64.309 85.0274 64.3422C84.7106 64.3562 84.3966 64.2784 84.1229 64.1182C83.8664 63.9806 83.5316 64.0022 83.3437 63.776C83.1528 63.5463 82.7869 63.7015 82.6315 63.3894C82.5921 63.3102 82.332 63.3407 82.1808 63.322Z" fill="#212222"/>
<path d="M79.5793 43.857C79.7842 43.8276 79.993 43.8706 80.1697 43.9785C80.6368 43.7747 81.1149 43.5973 81.6019 43.4472C81.7585 43.4064 81.8493 43.2087 82.0356 43.2847C82.5056 42.7329 83.2194 42.5887 83.7976 42.2206C84.0194 42.0794 84.4011 42.1235 84.4407 41.7366C84.6412 41.7164 84.7853 41.4921 85.0151 41.5779C85.6559 41.2875 86.3214 41.0551 87.0035 40.8832C87.0445 40.8671 87.1215 40.8517 87.1348 40.87C87.2904 41.0841 87.4775 40.7802 87.58 40.8787C87.641 40.9316 87.7128 40.9707 87.7903 40.9932C87.8679 41.0157 87.9494 41.0211 88.0293 41.009C88.1701 41.0088 88.311 41.009 88.4406 41.009L88.7747 41.3432V41.8129L88.3892 42.1982C87.8983 42.3873 87.3732 42.4718 86.8478 42.4462C86.47 42.4747 86.1039 42.5909 85.7789 42.7855C85.1365 43.2095 84.4481 43.559 83.7268 43.8275C83.3592 43.9751 83.0096 44.1642 82.6848 44.391C82.469 44.5295 82.1784 44.4771 82.0269 44.707C81.323 44.7171 80.714 45.1781 79.9986 45.1338C79.975 45.1324 79.9428 45.1236 79.9287 45.1352C79.4767 45.4063 79.0039 45.6411 78.5148 45.8374C78.2681 45.9845 78.0086 46.1255 77.7578 46.2535C77.4492 46.4111 77.1095 46.514 76.8038 46.6948C76.4182 46.9041 76.0182 47.0857 75.6068 47.2381C75.3048 47.3627 75.0062 47.5058 74.7036 47.6336C73.9734 47.9877 73.2213 48.2949 72.452 48.5534C72.271 48.6334 72.0955 48.7255 71.9267 48.829C71.4452 49.0399 70.9496 49.2202 70.4755 49.446C69.7025 49.8372 68.9606 50.2868 68.2561 50.791C67.9595 51.0085 67.678 51.2458 67.4134 51.5013C67.1201 51.7956 66.8101 52.0727 66.485 52.3314C66.1847 52.5689 65.9784 52.9053 65.9027 53.2806C65.8576 53.5024 65.7589 53.7097 65.6151 53.8844C65.572 54.6489 65.6641 55.4266 65.5592 56.1994C65.5545 56.2341 65.4931 56.2613 65.4612 56.2892C65.5542 56.4346 65.6062 56.6023 65.6119 56.7747C65.6176 56.9471 65.5766 57.1179 65.4935 57.269C65.6353 57.5037 65.5704 57.853 65.879 57.9764C66.0768 59.0168 66.3483 60.0417 66.6914 61.0436L66.6027 61.1413C66.6027 61.165 66.5929 61.1959 66.6041 61.2113C66.8682 61.5723 66.8733 62.0541 67.1596 62.4189C67.2626 62.7305 67.0077 63.111 67.3119 63.4076C67.2265 63.7627 67.542 64.0577 67.4629 64.4118C67.764 64.614 67.8015 64.9902 68.0196 65.2734C68.0338 65.7008 67.9795 66.1872 68.5632 66.366C68.6034 66.4522 68.5 66.4606 68.4911 66.4835C68.351 66.7378 68.7472 66.8547 68.5763 67.1024C68.8845 67.3367 69.1112 67.6618 69.2246 68.0319C69.2703 68.1602 69.2433 68.3089 69.2966 68.4532C69.3271 68.5379 69.3802 68.6126 69.4501 68.6693C69.52 68.726 69.6041 68.7627 69.6932 68.7751C69.7332 69.0939 69.8432 69.3999 70.0153 69.6713C70.1873 69.9426 70.4172 70.1726 70.6884 70.3448C70.7925 70.4041 70.8784 70.4906 70.9369 70.5951C71.0742 70.8618 71.2076 71.1201 71.5371 71.1872C71.6265 71.453 71.8068 71.6786 72.0461 71.8248C72.2984 72.079 72.6164 72.2579 72.9647 72.3415C72.9591 72.7995 73.6101 72.7746 73.7529 73.2663C73.8453 73.3681 74.0945 73.2136 74.2032 73.4231C74.2955 73.6012 74.4666 73.5944 74.6355 73.5785C74.7524 73.6874 74.7593 73.8568 74.8837 73.9736C75.3478 74.4646 75.851 74.9172 76.3883 75.3268C76.4437 75.3642 76.4697 75.433 76.56 75.4306C77.0451 75.418 77.2403 75.7938 77.4603 76.137C77.8725 76.1537 78.3096 76.0548 78.6249 76.4234C78.9568 76.4234 79.2903 76.4041 79.6203 76.4293C79.9089 76.4513 80.2286 76.2979 80.4828 76.5565C80.7032 76.2294 81.1538 76.6391 81.3191 76.2917C81.4771 76.2592 81.5309 76.3444 81.6314 76.443C81.9506 76.184 82.372 76.2711 82.7587 76.1597C83.4277 75.9671 85.021 75.4473 85.7603 75.1579C86.3183 74.8936 86.9056 74.6963 87.51 74.5699C87.6188 74.5494 87.7204 74.5009 87.805 74.4293C88.1393 74.214 88.5079 74.0572 88.8949 73.9658C89.4907 73.7481 90.0629 73.4667 90.6492 73.222C91.3381 72.9909 91.9998 72.6856 92.6228 72.3114C92.6988 72.2582 92.7845 72.141 92.9107 72.1576C93.3605 72.1448 93.7929 71.981 94.1385 71.6927C94.6755 71.2996 95.2876 71.021 95.9368 70.874C96.1246 70.8535 96.2272 70.6663 96.374 70.5704C96.7125 70.3492 97.1305 70.3259 97.4443 70.0356C97.7631 69.7963 98.1003 69.5826 98.4529 69.3965C98.7902 69.1735 99.1251 68.9436 99.438 68.6884C99.5692 68.5814 99.6989 68.623 99.8285 68.5944C99.9608 68.5479 99.8073 68.2668 100.043 68.3184C100.256 68.3104 100.117 68.521 100.226 68.5782C100.261 68.5664 100.293 68.5486 100.322 68.5257C100.875 67.95 101.516 67.465 102.22 67.0881C102.441 66.986 102.652 66.8641 102.851 66.7238C103.037 66.5612 103.289 66.4767 103.435 66.2502L103.276 66.0736C103.595 65.6865 103.845 65.2481 104.017 64.7768C104.04 64.6873 103.972 64.6483 103.927 64.5975C103.995 64.4733 104.032 64.3347 104.037 64.1932C104.041 64.0516 104.011 63.9112 103.951 63.7832C103.773 63.5184 103.965 63.2103 103.754 62.9308C103.601 62.727 103.863 62.3533 103.597 62.1243L103.728 61.9938C103.625 61.8739 103.427 61.897 103.346 61.7406C103.351 61.6199 103.345 61.4991 103.327 61.3797C103.299 60.907 103.121 60.4554 102.817 60.0923C102.612 59.8521 102.481 59.5581 102.439 59.2452C102.419 59.0344 102.316 58.8401 102.154 58.704C102.313 58.2748 101.926 57.9514 101.898 57.5587C101.864 57.0993 101.483 56.8754 101.316 56.5154C101.293 56.3996 101.418 56.3738 101.45 56.2911L101.054 55.895C101.022 55.8004 101.229 55.782 101.13 55.6922C100.804 55.3972 101.006 54.7941 100.49 54.6097C100.461 54.5994 100.483 54.4776 100.46 54.4151C100.34 53.9522 100.101 53.5287 99.7673 53.1867C99.6692 52.9136 99.9073 52.7773 99.9199 52.5689C100.069 52.4736 100.31 52.6144 100.41 52.3791C100.62 52.4709 100.807 52.6073 100.959 52.779C101.535 53.3287 101.998 53.9853 102.323 54.7121C102.367 54.8233 102.441 54.9204 102.536 54.9933C102.631 55.0662 102.744 55.1123 102.862 55.1265V55.5787C103.291 55.8257 103.281 56.3341 103.413 56.7344C103.517 57.1157 103.682 57.4774 103.903 57.805C104.19 58.1699 104.189 58.6693 104.554 58.9671C104.565 59.2837 104.823 59.5456 104.712 59.8892L104.954 59.9389C105.11 60.1681 105.144 60.4856 105.446 60.6986C105.444 61.3603 105.597 62.0133 105.893 62.6049C105.889 62.5792 105.757 62.6164 105.74 62.6941C105.717 62.7991 105.671 62.9354 105.773 63.0238C105.87 63.1085 105.845 63.1465 105.771 63.2325C105.685 63.3313 105.87 63.3488 105.869 63.4373C105.858 63.5553 105.86 63.6741 105.874 63.7917C105.91 63.8792 105.959 63.9605 106.019 64.0326C105.732 64.4488 105.927 64.9284 105.86 65.3833C105.583 65.7306 105.344 66.1067 105.146 66.5048C105.092 66.691 104.995 66.8619 104.863 67.0037C104.73 67.1454 104.566 67.2541 104.384 67.321C103.563 67.9747 102.679 68.544 101.744 69.0205C101.69 69.0538 101.609 69.0707 101.578 69.1257C101.153 69.8704 100.357 70.1359 99.7118 70.6006C98.7342 71.2452 97.7053 71.8082 96.6354 72.284C96.2612 72.5618 95.8417 72.7724 95.3954 72.9066C94.86 73.0362 94.3516 73.2591 93.8936 73.5653C92.9326 74.0952 91.9207 74.527 90.8732 74.8541C90.788 74.8769 90.7047 74.906 90.624 74.9413C90.1783 75.1801 89.7085 75.3711 89.2226 75.5109C88.5374 75.7448 87.8771 76.0466 87.2517 76.4116C86.6086 76.4722 85.981 76.6445 85.3971 76.9208C84.831 77.1601 84.2467 77.3537 83.6498 77.4996C83.1439 77.5817 82.6435 77.6946 82.1514 77.8379C81.8726 77.9149 81.5784 77.8116 81.277 77.9668C81.0374 78.0901 80.6891 77.9217 80.417 78.1234C80.3741 78.1446 80.3268 78.1559 80.2789 78.1561C80.2309 78.1563 80.1837 78.1455 80.1405 78.1246C79.6542 77.8609 79.1337 78.0317 78.6312 77.992C78.3485 77.9697 78.0244 78.0713 77.789 77.9639C77.5713 77.8607 77.3431 77.7815 77.1083 77.7277C76.8446 77.6831 76.5921 77.5872 76.3653 77.4454C76.2967 77.4006 76.1853 77.4212 76.0519 77.4077C75.8435 77.1536 75.5712 76.9593 75.2631 76.8449C74.9465 76.7597 74.9075 76.3453 74.5213 76.2506C74.225 76.178 74.1052 75.7549 73.9494 75.4412H73.5442C73.0468 75.0995 72.8673 74.4828 72.3146 74.1517H72.0958C71.7259 73.8435 71.4576 73.4345 70.9572 73.2745C70.7402 73.2052 70.5932 72.9169 70.4342 72.7491C70.1349 72.7268 69.9558 72.6864 69.849 72.3558C69.752 72.0551 69.6525 71.642 69.2078 71.5658C69.0888 71.4289 69.2711 71.1751 69.0269 71.0861C69.086 71.0114 69.1896 70.9694 69.1722 70.9013C69.122 70.5807 68.766 70.6353 68.6733 70.3535C68.6492 70.2471 68.5996 70.1482 68.5288 70.0653C68.458 69.9824 68.3681 69.9179 68.2668 69.8774C68.0236 69.8112 68.0495 69.439 67.7599 69.4055L67.8845 69.1937C67.8712 69.1474 67.8719 69.0927 67.8449 69.0645C67.5926 68.8009 67.3007 68.5671 67.3059 68.1454C67.3068 68.075 67.1844 68.0106 67.1455 67.9306C66.9681 67.651 66.8287 67.3491 66.7307 67.0329C66.6215 66.4975 66.2461 66.0505 66.1329 65.5049C66.1207 65.4461 66.0275 65.4231 66.0318 65.3334C65.947 64.4929 65.7269 63.6717 65.3803 62.9014C65.3256 62.7 65.3144 62.703 65.4628 62.4169C65.1662 62.1205 65.21 61.665 64.9605 61.3467C64.8679 61.3496 64.767 61.3659 64.7545 61.2313C64.7311 61.1135 64.8315 61.07 64.8886 60.9946L64.7567 60.8496L64.8763 60.7177C64.468 60.0223 64.3467 59.2101 63.89 58.5312C64.0073 58.3614 64.0583 58.1543 64.0332 57.9495C64.0081 57.7446 63.9087 57.556 63.7539 57.4195C63.8085 57.2012 63.6635 56.9433 63.888 56.7092C63.98 56.6132 63.9015 56.4045 63.7695 56.2865C63.9495 56.1786 63.8958 56.001 63.8988 55.8425C63.9153 55.6297 63.9139 55.4159 63.8947 55.2033C63.8968 54.6025 63.9547 54.0034 64.0678 53.4134C64.1533 53.0166 64.3682 52.6594 64.6787 52.398C64.9481 52.0512 65.1919 51.6851 65.4079 51.3027C65.5994 51.3306 65.6629 51.0076 65.8956 50.9663C66.1035 50.9295 66.0282 50.5639 66.3087 50.6189C66.2459 50.3272 66.5619 50.322 66.6578 50.2979C66.9953 50.2128 67.0906 49.805 67.4397 49.7728C67.4883 49.405 67.8148 49.38 68.0671 49.2566C68.659 48.9672 69.2426 48.6609 69.8363 48.3755C70.3866 48.1027 70.952 47.8615 71.5297 47.653C71.7916 47.5865 72.035 47.4616 72.2419 47.2877C72.5039 47.1278 72.7963 47.0242 73.1006 46.9835C73.5837 46.8349 74.0643 46.661 74.5303 46.4831C74.9951 46.2802 75.4427 46.0397 75.8685 45.7641C76.0555 45.6541 76.2426 45.4964 76.4947 45.5595C76.5972 45.5851 76.6596 45.516 76.739 45.4609C77.1451 45.1967 77.5818 44.9829 78.0395 44.8239C78.5429 44.6063 79.0347 44.3627 79.513 44.0943C79.5522 44.0741 79.5494 43.9715 79.5793 43.857Z" fill="#212222"/>
<path d="M53.0188 33.0379C52.753 33.3419 52.3831 33.2965 52.0747 33.4079C51.3025 33.725 50.5122 33.9955 49.7077 34.2182C49.5529 34.4555 49.2158 34.1836 49.0859 34.4226C48.9364 34.6974 48.6338 34.604 48.4186 34.721C48.2121 34.7972 47.9986 34.8534 47.7813 34.8888C47.6943 34.9056 47.6091 34.9309 47.5271 34.9644C47.2311 35.1053 46.9964 35.415 46.6098 35.324C46.3727 35.5918 45.9954 35.5569 45.7148 35.7415C45.4398 35.9223 45.0782 35.9193 44.8093 36.128C44.6388 36.2603 44.4177 36.1971 44.2239 36.2499C43.8577 36.3495 43.5885 36.6416 43.17 36.6616C42.891 36.7162 42.619 36.8011 42.3585 36.915C42.102 36.9936 41.841 37.1628 41.5676 37.226C40.9354 37.4113 40.3214 37.6544 39.7336 37.952C39.5448 38.0338 39.3626 37.9564 39.2013 38.0404C38.6485 38.2534 38.1118 38.5062 37.5955 38.7967C37.5181 38.8416 37.4323 38.8698 37.3433 38.8794C36.7661 39.0283 36.1914 39.1872 35.6175 39.3482C35.5791 39.3589 35.5531 39.4137 35.5247 39.4445C35.3074 39.3433 35.329 39.0798 35.1641 38.9489C35.299 38.6141 34.8771 38.5107 34.8645 38.2149C34.8541 37.9735 34.6393 37.7864 34.5288 37.5746C34.3853 37.3468 34.3075 37.0838 34.304 36.8146C34.3227 36.5076 34.3157 36.1983 34.3046 35.8906C34.2998 35.7555 34.3743 35.5979 34.2568 35.4868C34.1892 35.421 34.1457 35.3343 34.1334 35.2407C34.1212 35.1472 34.1408 35.0523 34.1891 34.9713C34.4112 34.7196 34.1594 34.2677 34.5742 34.157C34.5605 33.8532 34.6268 33.5512 34.7664 33.281C34.9059 33.0109 35.1139 32.7821 35.3696 32.6174C35.6252 32.4104 35.7056 32.0435 36.0643 31.9196C36.4792 31.7763 36.8061 31.4322 37.2462 31.3431C37.5164 31.2883 37.6368 30.9212 37.9675 31.0213C39.1059 30.4537 40.3344 30.0866 41.4484 29.4725C41.6735 29.3485 41.9202 29.4395 42.0901 29.3055C42.5761 28.9942 43.1236 28.7914 43.6952 28.7112C44.1255 28.6016 44.4863 28.34 44.9031 28.1903C45.5125 27.9426 46.1087 27.6638 46.6894 27.3547C47.0241 27.2468 47.3467 27.1046 47.6522 26.9304C48.0774 26.6077 48.5699 26.3836 48.9982 26.0756C49.2099 25.9234 49.4496 25.9196 49.6636 25.7635C50.397 25.1433 51.0927 24.48 51.747 23.777C51.8515 23.6801 51.8798 23.5032 51.9502 23.367C52.0086 23.2005 52.0974 23.0463 52.2123 22.9125C52.4143 22.7285 52.5509 22.4841 52.6017 22.2157C52.7166 21.8272 52.925 21.4727 53.2085 21.1832L53.0816 20.9787C53.4294 20.5056 53.63 19.9404 53.6582 19.3539C53.7511 19.2299 53.8972 19.1158 53.9316 18.9745C54.0481 18.4958 54.4587 18.1569 54.5224 17.6497C54.5288 17.604 54.5451 17.5602 54.5701 17.5214C54.5952 17.4826 54.6284 17.4498 54.6675 17.4252C54.7065 17.4005 54.7505 17.3848 54.7963 17.3789C54.8422 17.3731 54.8887 17.3772 54.9327 17.3913V17.0589C55.3535 16.5823 55.7319 16.0698 56.0636 15.5273C56.1604 15.3956 56.4036 15.4411 56.3975 15.1754C56.3945 15.0456 56.6854 15.0384 56.7814 14.9632C57.1376 14.6844 57.5551 14.5047 57.8994 14.2166C57.9409 14.182 57.9364 14.0923 57.9531 14.0282C58.4057 13.8944 58.733 13.5345 59.1695 13.3587C59.3474 13.287 59.5245 13.1846 59.7 13.0991C59.9757 13.006 60.2318 12.8632 60.4558 12.6776C60.5199 12.5995 60.6007 12.5368 60.6922 12.494C60.7837 12.4513 60.8836 12.4295 60.9845 12.4304C61.0525 12.4309 61.1198 12.4163 61.1816 12.388C61.2433 12.3597 61.2982 12.3182 61.3422 12.2663C61.6795 12.0555 62.0318 11.8695 62.3961 11.7098C62.7385 11.4848 63.1752 11.4577 63.4815 11.2539C63.8017 11.1044 64.1308 10.9749 64.4671 10.8661C64.7699 10.7364 65.0813 10.6274 65.3989 10.5401C65.7987 10.3983 66.2132 10.3391 66.6141 10.2168C67.0046 10.1112 67.4013 10.0301 67.8018 9.97414C68.1603 9.95957 68.5156 9.9006 68.8596 9.79842C69.1912 9.67696 69.5314 9.58035 69.8774 9.50955C70.2843 9.37121 70.7098 9.29571 71.1395 9.28551C72.3543 9.31589 73.5582 9.06709 74.7794 9.13621C75.1493 9.15716 75.4783 9.35813 75.8583 9.29699C76.2298 9.23718 76.5495 9.46497 76.8926 9.53145C77.5288 9.65476 78.1129 9.92383 78.7279 10.0809C79.2326 10.266 79.6949 10.5508 80.0873 10.9183C80.3733 11.0673 80.6298 11.2671 80.8441 11.508C80.9245 11.6285 81.0636 11.5435 81.1954 11.5767L81.7084 12.1172C82.0631 12.092 82.292 12.3644 82.6402 12.4401C82.894 12.9782 83.2662 13.4518 83.729 13.8256C84.2137 13.7558 84.2595 14.1677 84.4749 14.6088C84.4932 14.635 84.6725 14.4822 84.7782 14.5924C85.2083 14.917 85.7301 15.0973 86.2689 15.1071C86.5472 15.1331 86.8121 15.2393 87.0313 15.413C87.505 15.341 88.023 15.5387 88.5086 15.2697C88.6804 15.1746 88.7935 15.424 88.9446 15.4025C89.5679 15.4143 90.1899 15.4649 90.8068 15.5543C91.6125 15.5381 92.4197 15.5731 93.2245 15.5416C93.6851 15.5765 94.1483 15.5419 94.5986 15.4392C94.9858 15.3103 95.4206 15.2781 95.8357 15.1709C96.2181 15.0165 96.6311 14.9528 97.0422 14.9847C97.4932 15.0785 97.8937 14.8351 98.3347 14.8213C98.8066 14.8065 99.2246 15.0812 99.6623 14.976C99.9451 15.1499 99.8972 15.6731 100.377 15.539C100.568 15.9321 100.648 16.3725 101.119 16.5843C101.237 16.6555 101.333 16.7597 101.393 16.8841C101.453 17.0085 101.476 17.1477 101.459 17.2849C101.439 17.3952 101.451 17.5089 101.494 17.6123C101.538 17.7158 101.61 17.8044 101.703 17.8673C101.13 17.8294 100.555 17.8689 99.9924 17.9846C99.5945 18.1673 99.2842 18.4189 98.9262 18.6031C98.6743 18.7544 98.3843 18.8303 98.0905 18.8219C97.8217 18.8043 97.5562 18.8902 97.3485 19.0619C97.1453 19.2026 96.918 19.3045 96.6778 19.3628C96.3636 19.5078 96.0272 19.5945 95.7045 19.7648C95.4147 19.9177 95.1162 20.0464 94.8292 20.2276C94.4818 20.4469 94.0603 20.5137 93.7006 20.7746C93.3422 20.9466 92.957 21.0558 92.5617 21.0974C91.8561 21.2677 91.1731 21.5212 90.5272 21.8522C90.2166 22.0186 89.8211 22.0277 89.5981 22.3801C89.4173 22.3449 89.2309 22.3526 89.0537 22.4025C88.8765 22.4524 88.7134 22.5432 88.5776 22.6676C87.7957 22.5757 87.1294 23.1377 86.3778 23.0915C85.5235 23.5157 84.5701 23.5966 83.6922 24.0758C82.9595 24.1368 82.2394 24.304 81.5547 24.572C81.2058 24.6241 80.8673 24.7302 80.551 24.8864C80.2517 25.0679 79.8787 24.9785 79.6199 25.2217C79.1547 25.0824 78.8055 25.4386 78.3885 25.517C78.0033 25.6065 77.6259 25.7275 77.2604 25.8787C77.0308 25.9628 76.7581 25.8871 76.5597 26.0751C75.9153 26.1331 75.2811 26.2742 74.6729 26.4948C74.3607 26.5483 74.1716 26.9464 73.7962 26.7861C73.5083 27.0585 73.064 26.8265 72.7845 27.0854C72.5031 27.3461 72.1233 27.1194 71.8117 27.3322C71.6733 27.4268 71.4494 27.4431 71.2714 27.569C71.1423 27.6603 70.9903 27.826 70.7961 27.7774C70.523 27.7089 70.2988 27.8865 70.0861 27.9627C69.7268 28.0816 69.3578 28.1692 68.9832 28.2241C68.1974 28.3466 67.4305 28.5699 66.7016 28.8882C66.1792 29.1352 65.6176 29.2891 65.0422 29.3427C64.7319 29.3781 64.448 29.5343 64.2522 29.7777C63.7596 29.642 63.3375 29.9965 62.8523 30.0821C62.6842 30.1348 62.5122 30.174 62.3379 30.1994C62.2668 30.2011 62.1679 30.1689 62.1289 30.2043C61.6992 30.5942 61.1129 30.4859 60.6181 30.6824C60.1501 30.8683 59.7007 31.0979 59.2246 31.2702C58.781 31.4308 58.3196 31.4743 57.8746 31.6114C56.7809 31.9483 55.6694 32.2262 54.5882 32.6077C54.4763 32.6472 54.389 32.7237 54.2925 32.7507C53.8978 32.9491 53.4604 33.0478 53.0188 33.0379ZM69.882 14.8274C69.7876 14.8283 69.6934 14.8174 69.6017 14.7951C69.3568 14.7034 69.1275 14.5194 68.8502 14.5594C68.5334 14.5674 68.2192 14.5011 67.9326 14.3658C67.8102 14.3147 67.6805 14.2828 67.5483 14.2712C67.1002 14.2388 66.6502 14.2439 66.203 14.2867C65.7801 14.3 65.3636 14.3948 64.9765 14.5655C64.7422 14.6852 64.4995 14.7874 64.2502 14.8716C63.9959 14.9822 63.6647 15.0068 63.5023 15.301C63.4627 15.356 63.4031 15.3932 63.3364 15.4048C62.7575 15.5097 62.3597 16.0083 61.7861 16.1153C61.7196 16.1305 61.6575 16.161 61.6048 16.2043C61.5521 16.2477 61.5102 16.3026 61.4825 16.3649C61.3054 16.6888 61.0634 16.9727 60.7716 17.1989C60.6387 17.2794 60.5232 17.3858 60.432 17.5117C60.3408 17.6376 60.2757 17.7804 60.2406 17.9318C60.4496 18.128 60.2953 18.3799 60.3137 18.4544L60.6921 18.9639C60.8729 18.9639 61.0245 18.9162 61.1039 18.9717C61.5679 19.2237 62.1004 19.3206 62.6234 19.2481C62.9781 19.2497 63.3334 19.2597 63.6874 19.2439C63.8808 19.2353 63.993 19.473 64.1961 19.3899C64.8165 19.2168 65.4475 19.0847 66.0852 18.9945C66.8326 18.8116 67.5636 18.5671 68.2706 18.2634C68.6149 18.0237 69.0101 17.8671 69.4251 17.806C69.6678 17.375 70.1795 17.2626 70.445 16.8818C70.3852 16.4266 70.722 16.0727 70.733 15.629L69.882 14.8274Z" fill="#F1F6FC"/>
<path d="M69.8821 14.8274L70.7332 15.6288C70.7222 16.0725 70.3853 16.4264 70.4451 16.8816C70.1797 17.2624 69.6679 17.3749 69.4253 17.8058C69.0103 17.8669 68.6151 18.0235 68.2708 18.2632C67.5638 18.5669 66.8328 18.8114 66.0854 18.9943C65.4477 19.0845 64.8166 19.2166 64.1963 19.3897C63.9932 19.4728 63.881 19.2351 63.6876 19.2437C63.3336 19.2595 62.9783 19.2495 62.6236 19.2479C62.1005 19.3204 61.568 19.2235 61.104 18.9715C61.0247 18.916 60.873 18.9637 60.6922 18.9637L60.3139 18.4543C60.2955 18.3798 60.4498 18.1279 60.2407 17.9316C60.2759 17.7802 60.341 17.6374 60.4322 17.5115C60.5234 17.3856 60.6388 17.2792 60.7718 17.1987C61.0635 16.9725 61.3055 16.6888 61.4827 16.3649C61.5104 16.3026 61.5523 16.2475 61.6049 16.2041C61.6576 16.1608 61.7197 16.1303 61.7862 16.1151C62.3599 16.0081 62.7577 15.5096 63.3365 15.4046C63.4033 15.393 63.4628 15.3558 63.5025 15.3008C63.6648 15.0066 63.996 14.9819 64.2504 14.8714C64.4997 14.7872 64.7424 14.685 64.9767 14.5653C65.3638 14.3946 65.7801 14.2998 66.2031 14.2865C66.6503 14.2437 67.1003 14.2386 67.5484 14.271C67.6806 14.2826 67.8102 14.3145 67.9327 14.3656C68.2192 14.5009 68.5335 14.5672 68.8503 14.5592C69.1275 14.5192 69.357 14.7032 69.6019 14.7949C69.6936 14.8172 69.7877 14.8282 69.8821 14.8274Z" fill="#212222"/>
</svg>
