<svg width="273" height="203" viewBox="0 0 273 203" fill="none" xmlns="http://www.w3.org/2000/svg">
<path d="M92.137 114.965H93.0417L93.3692 114.594C93.4448 114.557 93.5257 114.533 93.6089 114.521C94.2053 114.507 94.7951 114.393 95.3529 114.181C96.1655 113.869 97.0217 113.684 97.891 113.634C98.0466 113.643 98.1544 113.536 98.2773 113.5C98.9603 113.259 99.6669 113.091 100.385 112.999C100.874 112.937 101.358 112.839 101.832 112.707C102.638 112.464 103.472 112.331 104.313 112.313C104.756 112.339 105.101 112.036 105.552 112.062C105.958 112.085 106.433 112.262 106.79 111.863C106.806 111.845 106.862 111.856 106.898 111.862C107.881 112.022 108.817 111.503 109.794 111.646C110.42 111.738 110.951 111.319 111.587 111.401C112.208 111.5 112.841 111.5 113.463 111.4C115.639 111.176 117.829 111.109 120.016 111.198C120.367 111.18 120.74 111.267 121.022 110.974C121.274 111.001 121.427 111.221 121.714 111.211C122.672 111.175 123.635 111.24 124.591 111.186C125.756 111.12 126.876 111.588 128.042 111.418C128.616 111.615 129.224 111.695 129.83 111.652C130.731 111.744 131.622 111.919 132.49 112.177C132.863 112.3 133.2 112.22 133.528 112.315C134.005 111.74 134.172 110.98 134.722 110.478C134.991 110.16 135.199 109.794 135.333 109.399C135.729 108.622 136.555 108.197 136.909 107.397C137.724 106.975 138.154 106.128 138.893 105.609C139.332 105.3 139.42 104.593 140.065 104.464C140.205 103.675 141.121 103.661 141.46 103.069C141.987 103.109 141.846 102.406 142.35 102.305C142.686 102.237 142.948 101.8 143.298 101.477L143.982 101.44C144.128 101.326 144.027 101.098 144.208 100.979C144.906 100.521 145.601 100.056 146.278 99.5674C146.446 99.4461 146.789 99.5195 146.766 99.1179C146.758 98.9904 147.172 98.8341 147.273 98.8373C148.138 98.8646 148.641 98.1864 149.322 97.8708C150.425 97.2444 151.619 96.7937 152.861 96.535C153.254 95.8109 154.136 95.7919 154.865 95.4882C155.019 95.4239 155.192 95.461 155.373 95.3779C156.342 94.8668 157.419 94.5939 158.515 94.582C159.142 94.2452 159.821 94.0155 160.524 93.9023C161.201 93.7902 161.893 93.7186 162.573 93.5393C163.16 93.4179 163.753 93.3277 164.35 93.2691C164.8 93.2023 165.246 93.3387 165.714 93.0773C166.081 92.872 166.644 93.2042 167.046 92.8278C167.066 92.8094 167.118 92.8206 167.154 92.8262C168.211 92.9912 169.22 92.4966 170.273 92.6031C171.361 92.7132 172.405 92.2837 173.503 92.3656C174.567 92.4449 175.641 92.3835 176.711 92.3822C176.963 92.3819 177.229 92.33 177.377 92.5783C177.629 92.4431 177.908 92.3654 178.194 92.3507C178.48 92.336 178.765 92.3847 179.03 92.4934C179.156 92.5482 179.289 92.5859 179.425 92.6055C180.029 92.604 180.631 92.6661 181.222 92.7907C181.812 92.8419 182.389 92.9944 182.927 93.2415C183.171 93.3336 183.438 93.3394 183.685 93.2579C184.215 93.1334 184.66 93.4324 185.137 93.5292C185.392 93.5812 185.675 93.8508 185.962 93.9138C186.328 93.9586 186.698 93.9648 187.065 93.9322C187.396 94.1891 187.793 94.3454 188.21 94.3823C188.709 94.3596 189.03 94.9434 189.574 94.8237C190.013 95.263 190.666 95.23 191.156 95.54C191.296 95.6474 191.468 95.7052 191.644 95.7044C191.884 95.7129 192.119 95.7753 192.332 95.8869C192.544 95.9985 192.729 96.1565 192.872 96.3492H193.756L194.881 97.4734C195.128 97.6545 194.944 97.9365 195.108 98.1732C195.807 99.112 196.384 100.135 196.827 101.218C197.238 102.13 197.743 102.997 198.334 103.804C198.501 104.023 198.64 104.263 198.746 104.517C199.086 105.645 199.074 105.649 199.582 106.187C199.728 107.177 200.712 107.498 201.013 108.34C201.271 109.058 201.831 109.681 202.091 110.436L202.954 111.299C202.81 111.717 203.34 111.995 203.186 112.417C203.823 113.319 203.943 114.508 204.76 115.301C205.026 115.559 204.922 115.835 204.965 116.189C205.511 116.653 205.895 117.28 206.06 117.977C206.079 118.044 206.048 118.144 206.086 118.185C206.394 118.449 206.674 118.743 206.924 119.062C207.071 119.341 207.244 119.606 207.441 119.853C207.809 120.339 208.094 120.883 208.286 121.462C208.444 121.841 208.417 122.289 208.766 122.661C208.423 122.961 208.621 123.541 208.134 123.828C207.336 123.657 206.572 123.359 205.869 122.945C205.054 122.925 204.187 122.604 203.264 122.554C202.931 122.655 202.502 122.881 202.185 122.662C201.79 122.389 201.406 122.578 201.035 122.481C200.67 122.384 200.336 122.118 199.822 122.36C200.216 122.563 200.605 122.729 200.738 123.119C200.791 123.276 200.832 123.333 200.997 123.382C201.3 123.471 201.37 123.719 201.437 124.033C201.532 124.434 201.715 124.809 201.973 125.13C202.711 126.13 203.345 127.204 203.863 128.334C203.96 128.528 204.112 128.683 204.067 128.913C204.018 129.163 204.167 129.303 204.302 129.484C204.697 130.015 204.924 130.652 204.956 131.313C204.952 131.595 205.015 131.873 205.139 132.126C205.339 132.498 205.048 132.971 204.845 133.292C204.49 133.981 203.904 134.523 203.19 134.824C202.419 135.11 201.631 135.345 200.83 135.529C200.283 135.676 199.722 135.767 199.156 135.799C198.478 135.821 197.802 135.719 197.161 135.497C196.574 135.331 195.96 135.28 195.354 135.346C194.76 135.35 194.13 135.118 193.55 135.522C193.453 135.575 193.344 135.604 193.234 135.605C193.123 135.606 193.014 135.58 192.916 135.528C192.483 135.09 191.894 135.449 191.396 135.146C190.967 134.962 190.503 134.874 190.037 134.891C189.519 134.839 189.013 134.705 188.537 134.495C188.065 134.32 187.587 134.511 187.082 134.258C185.711 133.918 184.288 133.838 182.887 134.022C182.222 134.149 181.547 134.219 180.869 134.232C179.503 134.386 178.129 134.464 176.755 134.466C175.935 134.567 175.135 134.79 174.382 135.129C174.071 135.247 173.743 135.31 173.41 135.317C172.572 135.755 171.67 136.059 170.738 136.219C169.956 136.639 169.143 137.001 168.307 137.301C167.531 137.725 166.66 137.979 165.901 138.427C165.125 138.885 164.275 139.144 163.485 139.558C163.109 140.028 162.608 140.385 162.041 140.586C161.334 140.764 161.132 141.408 160.605 141.685C160.08 141.966 159.597 142.319 159.17 142.733C158.718 143.106 158.29 143.506 157.889 143.933C157.487 144.382 157.011 144.759 156.482 145.049C155.937 145.375 155.628 145.915 155.096 146.278C155.529 146.463 155.192 146.96 155.561 147.139C155.347 147.371 155.226 147.606 155.578 147.821C155.385 148.013 155.206 148.203 155.561 148.463C155.385 148.688 155.259 148.949 155.193 149.227C155.126 149.505 155.121 149.794 155.176 150.075L154.321 150.779C154.157 151.216 154.543 151.286 154.449 151.625C153.748 151.862 153.122 152.279 152.632 152.834C152.137 153.314 151.578 153.683 151.071 154.128C150.719 154.436 150.25 154.455 149.878 154.768C149.517 155.083 149.085 155.304 148.619 155.412C148.146 155.496 147.812 155.815 147.376 155.903C146.938 155.989 146.515 156.14 146.12 156.349C146.085 156.36 146.047 156.36 146.011 156.351C144.627 156.194 143.261 156.746 141.902 156.539C140.965 156.396 140.033 156.449 139.114 156.327C138.263 156.203 137.432 155.969 136.642 155.631C136.332 155.502 135.989 155.394 135.682 155.278C135.073 155.097 134.523 154.759 134.087 154.298C133.767 154 133.379 153.742 133.066 153.43C132.636 153.695 132.145 153.848 131.64 153.877C130.964 154.04 130.233 153.993 129.521 154.089C128.888 154.154 128.258 154.255 127.636 154.392C126.661 154.644 125.591 154.451 124.693 155.023C123.617 154.959 122.633 155.496 121.555 155.483C120.915 155.595 120.288 155.778 119.689 156.03C118.98 156.185 118.395 156.799 117.617 156.553C117.267 156.915 116.797 157.136 116.295 157.176C114.959 157.497 113.643 157.898 112.354 158.377C111.745 158.582 111.031 158.528 110.515 159.008C110.027 158.819 109.87 159.391 109.483 159.457C109.145 159.521 108.812 159.61 108.487 159.722C108.131 159.838 107.78 159.975 107.433 160.116C106.759 160.52 106.045 160.855 105.304 161.116C104.547 161.258 103.983 161.87 103.195 161.917C103.108 161.922 103.031 162.092 102.944 162.098C102.414 162.133 102.174 162.703 101.67 162.77C101.231 162.887 100.83 163.116 100.506 163.434C99.9974 163.713 99.4741 163.965 98.9382 164.187C98.0112 164.717 97.071 165.222 96.1683 165.799C95.558 166.19 94.8182 166.378 94.3862 166.961C94.1656 167.011 93.996 166.937 93.8183 167.066C92.6923 167.886 91.5663 168.705 90.3719 169.426C90.1924 169.557 90.0333 169.713 89.8999 169.891C89.1991 170.635 88.3471 171.222 87.401 171.61C87.2605 171.674 87.1757 171.775 87.0251 171.845H85.925C85.8216 171.56 85.6971 171.282 85.5523 171.015C84.8864 169.966 84.4496 168.787 84.2704 167.557C84.1402 166.814 83.9149 166.091 83.6 165.406C83.4597 165.041 83.3915 164.653 83.3993 164.263C83.2095 163.905 82.9036 163.585 82.9593 163.13C82.8922 162.953 82.72 163.013 82.5443 162.941C82.5468 162.15 81.9438 161.523 81.8529 160.725C81.3935 160.344 81.7652 159.962 81.8786 159.598C81.6382 159.367 81.3904 159.349 81.1954 159.565C80.8831 159.898 80.479 160.13 80.0345 160.232C79.6016 160.338 79.4723 160.919 78.9213 160.806C78.7613 160.773 78.5351 161.076 78.3352 161.22C77.4662 161.845 76.4525 162.211 75.4846 162.769H74.6595C74.4958 162.612 74.365 162.425 74.2747 162.217C74.1843 162.01 74.1362 161.786 74.1331 161.56C74.0168 161.057 73.8568 160.565 73.6548 160.09C73.4165 159.342 73.1303 158.61 72.798 157.899C72.4666 157.233 72.4793 156.432 72.1301 155.741C72.0382 155.458 72.0363 155.153 72.1247 154.868C72.1854 154.588 71.8651 154.386 72.0218 154.128C72.0698 154.049 72.0965 154.033 72.055 153.965C71.8572 153.639 71.5478 153.315 71.6845 152.914C71.7984 152.579 71.2967 152.293 71.6685 151.985C71.1311 151.151 71.7594 150.133 71.2354 149.285C71.0869 149.045 71.3924 148.842 71.4477 148.61C71.0292 148.015 71.334 147.335 71.2109 146.711C71.1647 146.477 71.5384 146.389 71.3411 146.182C71.1248 145.955 71.2575 145.695 71.2308 145.453C71.2067 145.234 71.3169 144.924 71.2063 144.808C70.9908 144.582 71.2308 144.351 71.0907 144.142C70.8959 143.85 71.0292 143.504 71.0083 143.183C70.9912 142.888 70.9905 142.593 71.0063 142.298C71.078 140.772 70.5988 139.271 70.7927 137.744C70.8379 137.388 70.3994 137.172 70.572 136.844C70.7086 136.584 70.8955 136.314 70.7711 136.05C70.5156 135.295 70.4518 134.488 70.5855 133.703C70.607 133.144 70.2562 132.692 70.3254 132.132C70.3675 131.58 70.3714 131.026 70.3371 130.474C70.3161 130.368 70.3259 130.257 70.3653 130.156C70.4047 130.055 70.472 129.968 70.5594 129.903L70.3027 129.628C70.4747 129.342 70.5768 129.019 70.6006 128.686H71.1083C71.1459 128.739 71.2212 128.795 71.2204 128.849C71.2631 129.768 71.3878 130.682 71.5931 131.578C71.6328 131.818 71.4053 131.886 71.4208 132.117C71.4375 132.367 71.7051 132.457 71.6676 132.687C71.5075 133.671 72.0391 134.609 71.8788 135.582C71.7799 136.182 72.1075 136.69 72.1195 137.262C72.1306 137.789 71.9614 138.349 72.3324 138.831C72.5403 139.1 71.9589 139.315 72.3044 139.671C72.3877 139.816 72.413 139.988 72.3751 140.152C72.3372 140.315 72.239 140.459 72.1001 140.553L72.5401 141.757C72.3871 141.991 72.2927 142.258 72.2651 142.536C72.2374 142.814 72.2773 143.094 72.3813 143.354C72.4995 143.761 72.5551 144.183 72.5462 144.607C72.5766 145.233 72.5645 145.861 72.5483 146.488C72.5415 146.582 72.5625 146.676 72.6086 146.758C72.6547 146.84 72.724 146.907 72.8078 146.951C72.1612 147.236 72.957 147.786 72.5379 148.126L73.0062 149.04C72.8461 149.238 72.7444 149.476 72.7125 149.729C72.6806 149.981 72.7198 150.237 72.8256 150.469C72.9844 150.869 73.0388 151.303 72.9837 151.73C73.0081 152.888 73.2397 154.033 73.6677 155.11L73.4791 155.318C73.8911 157.207 74.6409 159.006 75.6924 160.629L75.4535 160.868L75.7637 161.266C76.6486 160.669 77.5894 160.16 78.5729 159.745C78.848 159.387 79.2331 159.13 79.6691 159.012C80.1736 158.928 80.3988 158.331 80.9426 158.347C80.9961 158.345 81.0485 158.331 81.096 158.307C81.1435 158.282 81.185 158.247 81.2174 158.204C82.0639 157.407 83.2769 157.201 84.1242 156.405C85.1731 156.268 85.9286 155.414 86.964 155.245C86.9989 155.239 87.0455 155.249 87.0676 155.229C88.1295 154.536 89.2737 153.978 90.4737 153.568C91.0844 153.261 91.7187 153.003 92.3705 152.797C93.118 152.553 93.7563 152.055 94.499 151.792C95.2284 151.406 96.0157 151.14 96.8302 151.007C96.9828 150.663 97.3909 150.951 97.5891 150.696C97.7639 150.526 97.9809 150.406 98.2177 150.349C99.1777 149.947 100.217 149.852 101.185 149.496C102.113 149.154 103.079 148.92 103.989 148.515C104.389 148.31 104.83 148.197 105.28 148.184C106.158 148.222 106.877 147.683 107.721 147.617C107.856 147.607 108.038 147.506 108.216 147.497C109.253 147.396 110.277 147.182 111.268 146.858C111.693 146.74 112.162 146.66 112.6 146.572C113.389 146.413 114.177 146.482 114.948 146.368C115.698 146.257 116.444 146.063 117.185 145.888C117.414 145.814 117.648 145.76 117.886 145.726C118.343 145.696 118.812 145.823 119.241 145.515C119.456 145.36 119.725 145.757 119.873 145.641C120.055 145.522 120.275 145.475 120.489 145.509C120.858 145.496 121.332 145.648 121.572 145.473C121.968 145.184 122.182 145.654 122.528 145.528C122.866 145.405 123.293 145.593 123.629 145.324C124 145.861 124.294 145.195 124.684 145.248C125.567 145.307 126.452 145.322 127.336 145.291C127.977 145.18 128.636 145.255 129.236 145.507C129.495 145.673 129.693 145.109 129.959 145.455C130.709 145.442 131.411 145.865 132.17 145.719C132.488 145.703 132.803 145.787 133.072 145.957C133.801 146.345 134.603 146.575 135.426 146.632C136.255 146.913 136.815 147.458 137.633 147.531C137.997 147.564 138.341 147.945 138.673 148.197C138.846 148.35 139.049 148.464 139.269 148.533C139.49 148.602 139.722 148.624 139.951 148.597C140.37 148.95 140.684 149.478 141.314 149.486C141.5 149.269 141.358 149.158 141.262 148.994C140.975 148.364 140.809 147.684 140.775 146.992C140.75 146.68 140.659 146.377 140.509 146.103C140.047 145.172 139.533 144.267 138.969 143.393C139.05 143.038 139.032 142.667 138.916 142.321C138.8 141.976 138.591 141.669 138.312 141.435C138.312 141.132 138.311 140.806 138.312 140.48C138.313 140.246 137.936 140.012 138.358 139.75C137.764 139.101 137.428 138.258 137.412 137.379C137.372 137.073 137.275 136.778 137.127 136.507C137.031 136.32 136.983 136.113 136.987 135.902C136.916 134.962 136.735 134.033 136.446 133.135C136.291 132.2 136.059 131.276 135.846 130.354C135.801 129.866 135.726 129.382 135.619 128.903C135.479 128.439 135.415 127.956 135.429 127.471C134.856 126.96 135.003 126.219 134.99 125.451L134.548 125.108V123.701L134.15 123.312C134.051 122.556 133.843 121.812 133.727 121.067C133.569 120.256 133.336 119.46 133.031 118.692C132.936 118.417 132.682 118.163 132.762 117.796C132.801 117.487 132.806 117.175 132.776 116.865C132.678 116.689 132.555 116.745 132.45 116.726C132.12 115.837 132 114.883 132.101 113.94L129.704 113.489C129.543 113.377 129.467 113.52 129.362 113.614C129.054 113.723 128.895 113.332 128.573 113.397C128.438 113.452 128.288 113.462 128.147 113.427C128.005 113.391 127.879 113.311 127.786 113.198C127.545 113.645 127.315 113.164 127.08 113.16C125.155 113.126 123.238 112.898 121.305 112.946C120.564 112.841 119.819 112.774 119.072 112.744C118.466 112.744 117.862 112.802 117.267 112.916C116.999 113.037 116.704 113.086 116.411 113.056C116.118 113.027 115.838 112.922 115.599 112.751C115.558 112.714 115.451 112.728 115.383 112.749C113.841 113.012 112.272 113.079 110.713 112.949C110.308 112.966 110.014 113.275 109.586 113.205C109.394 113.153 109.194 113.143 108.999 113.177C108.803 113.211 108.618 113.287 108.455 113.401C108.302 113.522 108.069 112.996 107.87 113.408C107.047 113.416 106.226 113.496 105.417 113.646C104.683 113.674 103.957 113.802 103.257 114.027C103.047 114.08 102.828 114.094 102.613 114.069C101.949 114.112 101.292 114.225 100.652 114.406C99.674 114.512 98.7931 115.089 97.7593 114.953C97.3146 115.217 96.8177 115.381 96.3032 115.433C95.6074 115.426 94.9213 115.597 94.3102 115.929C94 116.15 93.6933 116.017 93.3909 116.126C92.8218 116.36 92.2388 116.558 91.6454 116.719C91.0334 116.824 90.4497 117.054 89.9306 117.394C89.2107 117.254 88.6931 117.797 88.0611 117.965C87.4305 118.122 86.8311 118.385 86.2886 118.742C85.5445 119.257 84.5602 119.322 83.9473 120.05C82.9853 119.964 82.622 121.066 81.7494 121.157C81.1553 121.775 80.3421 122.095 79.7212 122.698C79.1422 123.203 78.5131 123.648 77.8435 124.024C77.6383 124.169 77.4486 124.335 77.2774 124.519C76.5289 125.351 75.6956 126.103 74.7909 126.762C74.4602 126.968 74.6206 127.289 74.4715 127.563C73.9948 127.831 73.59 128.211 73.2914 128.67C73.1528 128.926 72.9645 129.153 72.7373 129.336C72.5102 129.519 72.2488 129.655 71.9686 129.736C71.5719 129.242 71.5689 129.237 71.8783 128.806C72.4503 128.009 73.016 127.208 73.6075 126.426C73.7425 126.26 73.9061 126.119 74.0907 126.011C74.6231 125.701 75.0889 125.288 75.4613 124.798C75.9425 124.291 76.4536 123.814 76.9917 123.369C77.4746 122.852 77.9951 122.371 78.5489 121.931C78.9483 121.697 79.3203 121.419 79.6579 121.102C79.9522 120.741 80.5273 120.703 80.8477 120.302C80.9086 120.226 81.1247 120.274 81.3143 120.262C82.4107 119.26 83.6696 118.453 85.0371 117.874C86.0022 117.284 87.1417 117.083 88.1386 116.545C89.1301 116.083 90.1601 115.709 91.2168 115.426C91.5607 115.313 91.7946 115.044 92.137 114.965ZM135.404 119.762C136.189 121.651 136.675 123.652 136.842 125.691L137.225 125.898C137.165 126.698 137.297 127.501 137.612 128.239C137.779 128.544 137.862 128.889 137.85 129.237C137.766 129.615 138.096 129.814 138.103 130.145C138.157 130.487 138.241 130.824 138.355 131.151C138.356 131.442 138.41 131.731 138.513 132.003C138.767 132.559 138.845 133.178 138.739 133.779L139.436 134.352C139.162 134.992 139.157 134.995 139.42 135.536C139.745 135.999 139.902 136.56 139.865 137.124C139.836 137.23 139.845 137.343 139.889 137.443C140.235 138.024 140.381 138.703 140.307 139.375C140.285 139.846 140.601 140.094 140.967 140.301V141.365C141.422 142.25 141.747 143.195 141.931 144.173L142.491 144.623C142.511 145.53 143.275 145.756 143.609 146.292L143.376 146.549C143.719 146.628 143.759 147.118 144.187 147.047C144.412 146.891 144.188 146.619 144.344 146.446C144.624 146.423 144.714 146.224 144.808 145.994C144.898 145.773 145.154 145.577 145.152 145.371C145.148 145.227 145.177 145.084 145.238 144.954C145.298 144.823 145.388 144.708 145.501 144.618C145.678 144.452 145.649 144.135 145.897 144.011C146.201 143.859 145.953 143.524 146.129 143.333C146.373 143.289 146.595 143.161 146.755 142.97C146.915 142.78 147.004 142.54 147.005 142.291L148.146 141.546C148.383 141.29 148.136 140.956 148.438 140.802C148.681 140.677 148.662 140.372 148.831 140.193C149.147 140.241 149.288 139.871 149.58 139.88C149.613 139.621 149.718 139.376 149.883 139.173C150.048 138.971 150.266 138.818 150.513 138.733C150.892 138.601 151.081 138.247 151.359 138.002C151.43 137.94 151.468 137.722 151.584 137.67C152.199 137.287 152.747 136.808 153.21 136.251C153.456 136.029 153.645 135.716 153.926 135.567C154.245 135.398 154.558 135.335 154.784 134.957C154.947 134.686 155.412 134.564 155.766 134.454C155.964 134.393 156.156 134.277 156.18 134.151C156.288 133.585 156.79 133.545 157.165 133.33C157.645 132.997 158.156 132.712 158.691 132.478C159 132.375 158.876 132.101 159.113 131.955C159.402 131.778 159.898 132.044 160.046 131.468C160.126 131.158 160.677 131.103 161.007 130.933C161.567 130.741 162.086 130.446 162.538 130.064C162.823 129.815 163.17 129.648 163.542 129.582C164.062 129.407 164.562 129.175 165.03 128.889C165.639 128.586 166.099 127.948 166.882 128.019C167.403 127.61 168.171 127.685 168.576 127.103H169.25L169.337 126.772C169.762 126.642 170.19 126.52 170.613 126.381C171.211 126.221 171.776 125.957 172.282 125.6C172.963 125.756 173.438 125.169 174.075 125.093C174.36 125.06 174.629 124.681 175.008 124.702C175.203 124.709 175.397 124.675 175.577 124.6C175.758 124.526 175.92 124.414 176.054 124.271C176.365 124.199 176.695 124.338 177.013 124.195C177.437 123.95 177.916 123.819 178.405 123.813C178.728 123.291 179.348 123.418 179.811 123.197C180.344 122.957 180.912 122.803 181.493 122.741C182.439 122.63 183.306 122.254 184.222 122.105C185.119 121.96 185.94 121.4 186.897 121.6C187.387 121.3 187.97 121.506 188.455 121.346C188.969 121.145 189.506 121.01 190.054 120.943C190.656 120.915 191.256 120.85 191.851 120.748C192.673 120.746 193.493 120.66 194.298 120.493C195.756 120.656 197.184 120.238 198.635 120.272C198.886 120.278 199.149 120.321 199.313 120.054C199.471 120.212 199.675 120.315 199.895 120.347C200.116 120.379 200.341 120.339 200.537 120.233C201.117 120.077 201.719 120.018 202.318 120.057C202.861 120.327 203.257 120.659 203.844 120.414C203.568 120.134 203.613 119.593 203.051 119.586C202.852 119.222 202.788 118.756 202.314 118.596C202.407 118.491 202.553 118.415 202.503 118.157C201.975 117.867 202.103 117.138 201.704 116.696C201.344 116.224 201.152 115.645 201.161 115.051C200.838 114.659 200.405 114.384 200.21 113.882C200.004 113.417 199.774 112.963 199.522 112.521C199.229 112.584 199.15 112.318 198.947 112.175C199.01 112.154 199.066 112.12 199.113 112.074C199.16 112.027 199.195 111.971 199.217 111.909C199.238 111.847 199.245 111.781 199.236 111.716C199.228 111.651 199.204 111.588 199.168 111.534C199.028 111.249 198.857 110.98 198.657 110.734C198.314 110.434 198.053 110.051 197.898 109.623C197.825 109.073 197.626 108.547 197.317 108.086C196.956 107.667 196.916 107.087 196.579 106.613C196.138 106.075 195.764 105.486 195.465 104.858L195.672 104.651C195.059 104.27 194.907 103.516 194.327 103.133C194.411 102.484 193.706 102.245 193.669 101.706C193.68 101.421 193.592 101.14 193.42 100.911C193.249 100.682 193.004 100.52 192.726 100.45C192.79 100.36 192.815 100.249 192.796 100.14C192.778 100.032 192.718 99.9354 192.628 99.8713C192.215 99.5747 191.904 99.8376 191.698 99.5476C191.885 99.3513 192.162 99.5922 192.326 99.3622C192.402 99.0019 191.983 98.9266 191.902 98.6743C191.739 98.1643 191.385 98.0494 190.906 97.8736C190.032 97.6785 189.203 97.3186 188.463 96.813H187.371C187.204 96.6606 187.06 96.4107 186.88 96.3831C185.611 96.1879 184.504 95.325 183.154 95.4823C182.996 95.5007 182.871 95.353 182.773 95.3484C182.163 95.3204 181.738 94.7674 181.104 94.8117C179.946 94.8926 178.82 94.4288 177.653 94.594C177.509 94.6145 177.387 94.5223 177.259 94.4847C176.681 94.282 176.05 94.2933 175.479 94.5163C175.357 94.5896 175.216 94.6275 175.073 94.6258C174.93 94.6241 174.79 94.5828 174.669 94.5066C174.58 94.4456 174.48 94.403 174.375 94.381C174.269 94.3591 174.16 94.3583 174.054 94.3788C173.376 94.3478 172.696 94.4114 172.035 94.5678C171.489 94.6614 170.931 94.6684 170.382 94.5887C169.874 94.5595 169.368 94.8418 168.932 94.7706C168.407 94.6849 167.945 94.9225 167.445 94.8279C167.093 94.793 166.739 94.8533 166.419 95.0023C166.211 95.1248 165.985 95.2111 165.748 95.2575C164.814 95.2384 163.879 95.3027 162.956 95.4495C162.502 95.4879 162.054 95.5769 161.62 95.715C161.03 95.9147 160.418 96.0462 159.798 96.1069C159.37 96.2751 158.916 96.3659 158.457 96.375C157.975 96.3013 157.654 96.7372 157.219 96.8568C157.069 96.8983 156.927 97.0895 156.742 97.0249C156.313 96.8749 155.982 97.1734 155.62 97.2713C154.93 97.4642 154.258 97.7175 153.612 98.0283C153.365 98.145 153.12 98.274 152.88 98.3927C152.308 98.6996 151.71 98.9555 151.094 99.1572C150.723 99.2636 150.732 99.7799 150.218 99.7239C149.903 99.6897 149.526 99.9879 149.219 100.198C148.936 100.392 148.428 100.279 148.375 100.793C147.453 101.192 146.593 101.722 145.824 102.368C145.14 102.703 144.486 103.096 143.868 103.541C143.262 104.135 142.667 104.74 142.066 105.34L141.757 105.649C141.585 105.713 141.387 105.579 141.307 105.656C140.907 106.541 140.024 106.859 139.602 107.582C138.839 107.789 138.632 108.637 137.985 108.978C137.301 110.079 136.456 111.071 135.478 111.923C135.234 112.199 135.057 112.53 134.963 112.887C135.084 113.044 135.165 113.227 135.2 113.421C135.235 113.616 135.223 113.816 135.165 114.005C134.869 114.368 134.413 114.401 134.077 114.692L134.719 116.887L134.505 117.128L134.997 117.485C135.005 118.21 135.225 118.917 135.628 119.52L135.404 119.762Z" fill="#212222"/>
<path d="M158.735 89.9461C158.543 89.941 158.353 89.9756 158.176 90.0478C157.999 90.12 157.838 90.2282 157.705 90.3655C157.201 90.8023 156.664 91.2002 156.099 91.5556C155.741 91.8494 155.455 92.2217 155.264 92.6436C154.853 93.1751 154.408 93.6793 153.931 94.1531C152.204 94.3531 150.457 94.0114 148.932 93.1752C148.904 92.6881 148.973 92.2003 149.136 91.7405C149.357 91.3203 148.988 90.7648 149.344 90.2727C149.432 90.1304 149.462 89.9602 149.428 89.7967C149.394 89.6332 149.299 89.4888 149.162 89.393L149.553 89.0019C149.757 87.8757 149.96 86.7494 150.192 85.4651C150.209 85.5135 150.01 85.4763 150.02 85.4266L150.727 84.7235C150.616 84.0051 150.737 83.27 151.071 82.6247C151.278 82.2847 151.064 81.9233 151.203 81.5722C151.298 81.3355 151.742 81.1874 151.434 80.8022C151.332 80.675 151.59 80.6152 151.637 80.4969C151.825 80.1718 151.953 79.8162 152.017 79.4464C152.064 78.647 152.322 77.8742 152.764 77.2069C152.854 77.0634 152.896 76.8956 152.886 76.7268C152.876 76.558 152.813 76.3966 152.707 76.2651C152.675 76.1266 152.826 76.0564 152.829 75.9781C153.014 75.0217 153.457 74.1342 154.11 73.4117C154.795 72.2949 155.445 71.1563 156.14 70.048C156.625 69.0977 157.259 68.2315 158.018 67.4826C158.01 67.1 157.955 66.6795 158.392 66.4418C158.358 65.8944 158.861 65.6713 159.074 65.2829C159.291 64.8859 159.583 64.52 159.749 64.1272C159.892 63.7908 160.297 63.8129 160.375 63.4009C160.431 63.1018 160.856 62.872 161.117 62.6112C161.117 62.4636 161.053 62.2544 161.127 62.178C161.921 61.1217 162.645 60.0136 163.293 58.8611C163.621 58.4168 163.909 57.9354 164.224 57.4759C164.517 57.0489 164.615 56.489 165.104 56.2186V55.7496C165.327 55.3944 165.814 55.3992 166.034 55.0424C166.218 54.7088 166.426 54.3891 166.657 54.086C167.425 53.1719 168.081 52.1784 168.785 51.2188C168.824 51.1658 168.999 51.2341 169.079 51.1026V50.6578C169.783 49.9755 170.367 49.1783 170.805 48.3004C171.343 47.3977 172.17 46.6848 172.656 45.7444C172.938 45.1977 173.544 44.8209 173.523 44.1102C173.521 44.0247 173.619 43.9273 173.687 43.8505C173.972 43.6284 174.162 43.307 174.22 42.9506C174.263 42.7782 174.361 42.6244 174.499 42.5126C174.637 42.4007 174.808 42.3368 174.986 42.3304C175.167 42.1155 175.022 41.8587 175.218 41.619C175.696 40.8467 176.225 40.1073 176.801 39.406C177.165 39.1197 177.413 38.7118 177.5 38.2573C177.514 38.1537 177.458 38.0247 177.584 37.9613C177.927 37.7892 177.985 37.3795 178.323 37.1487C178.603 36.9584 178.688 36.4421 178.964 36.1112C179.174 35.7981 179.355 35.4668 179.505 35.1211C179.774 34.6409 180.369 34.4834 180.546 33.9476C181.032 34.027 180.606 33.3279 181.074 33.4446C180.759 32.6371 180.76 32.6375 181.168 31.7198C181.393 31.4117 181.5 31.0329 181.468 30.6526L182.114 30.1146C182.279 28.9949 183.057 28.4894 183.877 27.8012C184.124 27.3308 184.395 26.874 184.691 26.4325H185.111C185.707 25.9075 186.237 25.3262 186.887 24.8562C187.484 24.4247 188.069 23.9706 188.664 23.5304C189.184 23.0318 189.83 22.6848 190.533 22.5268C191.236 22.3689 191.968 22.406 192.651 22.6342C192.901 22.6966 193.162 22.7014 193.414 22.6482C193.911 22.5626 194.421 22.6602 194.851 22.9226C195.523 23.2855 196.235 23.5129 196.925 23.8071C197.311 23.9948 197.652 24.2654 197.922 24.5996C198.22 24.9492 198.618 25.1985 199.063 25.3138C199.714 25.9646 199.641 27.0622 200.549 27.608C200.45 28.3466 200.538 29.0981 200.803 29.7942C200.933 30.4547 200.272 31.1678 201.025 31.6815C200.921 31.7947 200.842 31.9279 200.792 32.0728C200.742 32.2177 200.722 32.3713 200.733 32.5243L200.104 33.1536C200.092 33.4014 199.988 33.6761 200.286 33.7956C200.02 34.4806 198.879 34.3858 198.982 35.4065C198.136 35.8635 198.19 36.8939 197.679 37.5991C197.906 37.7563 197.887 38.0079 197.87 38.2592C197.054 38.5921 197.224 39.3109 197.206 39.9561C196.855 40.7638 196.102 41.3063 195.804 42.114C195.559 42.2006 195.444 42.0504 195.284 41.8614C194.856 42.9377 194.251 43.9344 193.492 44.8097C193.184 45.3132 193.129 45.9133 192.678 46.3692C192.042 47.0109 191.732 47.9117 191.108 48.5912C190.863 48.9235 190.659 49.2835 190.499 49.6637C190.303 50.1132 190.032 50.5259 189.697 50.8837C189.624 50.9502 189.686 51.1649 189.686 51.3381C188.983 51.9694 188.445 52.7644 188.122 53.6528C187.938 54.1943 187.588 54.6637 187.121 54.9936C187.071 55.0196 187.048 55.1072 187.022 55.1704C186.896 55.4869 186.797 55.8173 186.642 56.1183C186.509 56.3761 186.144 56.3625 185.995 56.7166C185.89 56.9651 185.601 57.2533 185.518 57.5125C185.319 58.0451 184.985 58.5172 184.549 58.8832C184.302 59.0583 184.097 59.2859 183.949 59.5497C183.8 59.8134 183.712 60.1067 183.69 60.4086C183.07 61.0007 182.808 61.8687 182.129 62.421C181.883 62.6213 181.579 62.8283 181.725 63.2771C180.687 63.9753 180.746 65.4446 179.722 66.131C179.484 66.9221 179.022 67.6275 178.392 68.1625C178.35 68.339 178.447 68.5192 178.295 68.6856C177.659 69.293 177.152 70.0233 176.806 70.8325C176.386 70.8216 176.407 71.2509 176.204 71.4557C176.127 71.5331 176.175 71.7338 176.165 71.8907C175.744 72.4262 175.108 72.8011 175.032 73.6296C174.995 74.0267 174.472 74.2297 174.025 74.4137C173.99 74.7458 173.888 75.0675 173.726 75.3595C173.564 75.6515 173.345 75.9079 173.081 76.1136C172.337 76.8703 171.668 77.6982 171.085 78.5855C170.876 78.8989 170.744 79.2576 170.701 79.6319C170.487 80.473 169.967 81.2044 169.244 81.6837C168.712 82.1326 168.134 82.524 167.52 82.8515C167.244 83.0106 167.262 83.309 167.041 83.4984C166.485 83.9836 165.96 84.5026 165.468 85.0527C164.596 85.8872 163.655 86.6471 162.655 87.3244C161.764 88.0241 160.696 88.3653 159.804 89.0389C159.463 89.3592 159.106 89.662 158.735 89.9461ZM189.466 47.7277C189.73 47.1235 190.133 46.9309 190.364 46.5305C190.935 45.5395 191.649 44.6313 192.24 43.6503C192.576 43.0932 192.837 42.4956 193.18 41.9327C193.501 41.2452 193.899 40.5963 194.366 39.9986C194.468 39.8934 194.582 39.8008 194.549 39.6315C194.478 39.2602 194.83 39.1554 194.991 38.9222C194.958 38.6212 195.012 38.3171 195.147 38.0461L195.471 37.8272C195.193 37.6076 194.974 37.4196 194.941 37.1058C194.134 36.5814 193.293 36.112 192.423 35.7008C191.714 35.571 191.023 35.3556 190.367 35.0592C189.851 34.6895 189.215 34.5264 188.585 34.6021C186.845 33.9815 185.042 33.5542 183.209 33.328L182.148 34.202C182.166 34.4009 182.381 34.457 182.478 34.6129C183.487 34.5012 184.375 35.1559 185.381 35.0746C185.919 35.4982 186.624 35.4296 187.225 35.6998C187.861 35.9459 188.511 36.1546 189.172 36.3251C189.83 36.5324 190.403 36.9086 191.08 37.091C192.113 37.4467 193.117 37.8843 194.081 38.3994V39.1748L193.395 39.501C192.927 39.1618 192.376 38.9546 191.801 38.9012C191.139 38.7787 190.724 38.2984 190.121 38.108C189.572 37.9207 189.04 37.6858 188.531 37.4059C187.956 37.1108 187.353 36.8748 186.731 36.7017C186.099 36.4237 185.426 36.2488 184.738 36.1835C184.155 36.2107 183.8 35.7585 183.264 35.6926C182.744 35.677 182.235 35.5355 181.781 35.2802C181.731 35.2458 181.637 35.2755 181.48 35.2755L180.817 35.6035C180.722 36.015 180.184 36.2333 180.396 36.7156L179.495 37.5958C179.282 38.3352 178.804 38.9701 178.152 39.3793C178.212 39.6012 178.207 39.8357 178.139 40.055C178.07 40.2744 177.94 40.4694 177.763 40.6171C177.518 40.7925 177.311 41.015 177.153 41.2715C176.995 41.5281 176.889 41.8136 176.843 42.1114C176.773 42.5104 176.406 42.5182 176.165 42.7047C176.165 42.8475 176.228 43.0604 176.155 43.1302C175.405 43.8459 175.211 44.9659 174.361 45.5962C174.177 45.7606 174.055 45.9825 174.015 46.2255C173.926 46.5255 173.785 46.8075 173.598 47.0584C173.186 47.7434 172.737 48.4052 172.252 49.0409C172.117 49.2056 172.235 49.3943 172.159 49.5947C171.459 50.0831 171.158 50.9722 170.445 51.4948L170.376 52.1291L169.269 53.1305C169.307 53.1955 169.329 53.2687 169.334 53.344C169.338 53.4193 169.325 53.4947 169.295 53.5639C169.265 53.633 169.219 53.6941 169.161 53.7422C169.102 53.7902 169.034 53.8238 168.96 53.8402C168.817 53.8662 168.683 53.9268 168.569 54.0166C168.454 54.1064 168.364 54.2227 168.305 54.3554C168.139 54.7847 167.747 54.9984 167.544 55.344L167.519 55.8364C166.552 56.3517 166.343 57.511 165.545 58.1904C165.559 58.4027 165.507 58.6142 165.396 58.7958C164.279 60.2528 163.291 61.8037 162.441 63.431C162.303 63.7276 162.059 63.9621 161.758 64.0887C161.208 64.5359 161.535 65.366 160.703 65.4237C160.68 65.7573 160.592 66.0832 160.442 66.3822C160.292 66.6813 160.084 66.9476 159.831 67.1656C159.333 67.8047 158.991 68.551 158.832 69.3453C158.281 69.7975 157.817 70.3461 157.462 70.9643C157.023 71.5276 156.864 72.3013 156.264 72.7843C156.226 72.8149 156.253 72.9227 156.245 72.9941C156.215 73.3464 156.052 73.674 155.789 73.9105C155.592 74.1412 155.477 74.4304 155.461 74.7334C155.687 74.2505 156.255 74.6862 156.47 74.2529C156.662 73.8678 157.02 73.7783 157.51 73.792C157.689 73.6014 157.874 73.2322 158.145 73.1512C158.753 72.9014 159.289 72.5033 159.704 71.9933C160.131 72.206 160.474 71.7575 160.991 71.8049L161.462 72.4505C161.626 72.7217 161.481 73.0355 161.353 73.3732C161.224 73.714 161.605 73.9927 161.59 74.3829C161.577 74.7006 161.366 74.8978 161.334 75.1691C161.577 75.6255 161.75 76.1154 161.848 76.6228C162.428 76.7191 163.023 76.6519 163.567 76.4286C164.772 75.4108 166.107 74.5581 167.537 73.8928C167.494 73.153 168.323 73.543 168.531 73.1273C168.984 73.3863 169.359 73.7616 169.618 74.2142C169.877 74.6668 170.01 75.1803 170.004 75.7017C170.116 75.8625 170.34 75.9388 170.365 76.1024C170.289 76.2514 170.207 76.3416 170.202 76.4354C170.196 76.5712 170.131 76.7294 170.272 76.8559C170.38 76.9016 170.399 77.0986 170.577 77.0642C170.641 76.6676 170.995 76.4921 171.196 76.2053C171.429 75.9087 171.552 75.541 171.546 75.1641C172.435 75.0239 172.297 73.9131 173.054 73.6969C173.241 73.0367 173.745 72.5083 173.793 71.7548C174.476 72.0223 174.2 71.058 174.749 71.0997C174.9 71.1112 174.82 70.7926 174.973 70.6524C175.181 70.4615 175.028 70.1679 175.066 69.9183C175.399 69.5981 175.693 69.2399 175.942 68.851C176.059 68.6389 176.143 68.4103 176.191 68.173C176.258 67.8916 176.587 67.8095 176.685 67.7639C177.735 66.1725 178.562 64.6096 179.72 63.0688V62.5632L181.049 61.2725V60.6482C181.122 60.4805 181.297 60.5575 181.339 60.5024C181.848 59.9773 182.27 59.3746 182.589 58.7168C182.634 58.5882 182.538 58.3279 182.685 58.3307C183.2 58.3408 183.061 57.7973 183.357 57.5957C183.608 57.3599 183.775 57.0482 183.832 56.7084C183.993 56.0569 184.357 55.4736 184.872 55.0429C185.122 54.8288 184.922 54.5466 185.103 54.344C185.27 54.3094 185.427 54.2361 185.56 54.1301C185.815 53.9368 185.564 53.618 185.8 53.4306C186.402 52.8072 187.14 52.2459 187.033 51.2283C187.298 51.2165 187.405 51.1924 187.48 50.9534C187.72 50.3306 188.111 49.777 188.618 49.3425C189.101 48.9359 189.406 48.3562 189.466 47.7277ZM168.3 75.115C168.142 75.1635 167.964 75.054 167.788 75.1912C167.137 75.7169 166.448 76.1939 165.727 76.6182C164.855 77.1122 164.128 77.9088 162.995 77.7771C162.638 77.9575 162.241 78.0457 161.841 78.0337C161.44 78.0217 161.049 77.9099 160.703 77.7084C160.604 77.3993 160.466 77.1035 160.295 76.8276C160.162 76.5105 160.07 76.178 160.019 75.838C159.978 75.5724 159.515 75.3023 159.995 75.0211C159.625 74.7756 159.903 74.3417 159.725 74.0368C158.326 74.9303 156.841 75.6808 155.293 76.2769L154.488 76.9785C154.472 77.3317 154.565 77.6953 154.426 77.9001C154.055 78.5607 153.803 79.2811 153.681 80.0285C153.467 80.6442 153.297 81.2747 153.174 81.915C153.068 82.4429 152.93 82.964 152.76 83.4752C152.997 83.6237 152.909 83.8615 152.932 84.172L152.281 84.6956C152.236 84.9611 152.295 85.2338 152.448 85.456C152.401 85.4776 152.361 85.51 152.33 85.5506C152.298 85.5912 152.277 85.6386 152.268 85.689C152.259 85.7394 152.263 85.7912 152.278 85.84C152.293 85.8889 152.32 85.9333 152.356 85.9697C153.151 85.9495 153.945 86.0556 154.707 86.2839C155.454 86.5852 156.241 86.7753 157.043 86.8482C157.228 87.2247 157.664 87.2722 157.956 87.5061C158.455 87.5777 158.962 87.4577 159.376 87.1704C159.929 86.7564 160.518 86.3912 161.135 86.0791C161.455 85.925 161.739 85.7045 161.968 85.4323C162.276 85.0544 162.824 85.0521 163.103 84.7181C163.366 84.3395 163.661 83.9839 163.985 83.6552C164.068 83.5942 164.163 83.5518 164.264 83.5308C164.727 83.4065 164.607 82.9608 164.691 82.7304C165.619 81.8611 166.648 81.1049 167.754 80.4776V80.0906C168.192 80.0806 168.18 79.6136 168.442 79.4176C168.723 79.2071 169.013 79.0085 169.314 78.794C168.742 78.2855 169.368 77.547 168.887 76.9732C168.466 76.4723 168.768 75.6617 168.3 75.115Z" fill="#212222"/>
<path d="M206.987 19.754C206.917 19.6341 206.823 19.5301 206.711 19.4485C206.599 19.367 206.471 19.3097 206.336 19.2804C206.102 18.7413 205.945 18.1563 205.259 17.962C205.148 17.9246 205.054 17.8468 204.997 17.7439C204.939 17.641 204.923 17.5204 204.95 17.4058C204.611 17.3781 204.286 17.256 204.013 17.0532C203.74 16.8504 203.53 16.5751 203.405 16.2586C203.428 16.0109 203.619 15.9077 203.82 15.7861C204.651 15.9896 205.435 16.3545 206.126 16.8601C207.009 17.4061 207.752 18.1518 208.295 19.0372C208.524 19.4402 208.817 19.8038 209.161 20.1144L208.991 20.2842C208.955 20.5713 209.277 20.3513 209.368 20.6042C209.256 21.7365 210.361 22.6399 210.269 23.8761C210.399 24.0063 210.53 24.1363 210.707 24.3128C210.564 24.7188 210.842 25.1224 210.765 25.6179C210.698 26.0463 210.978 26.5623 210.933 27.0657C211.407 27.4594 210.898 28.1482 211.376 28.5406C211.435 29.4802 211.385 30.4235 211.225 31.3513C211.134 31.571 211.096 31.8088 211.112 32.0461C211.128 32.2833 211.2 32.5135 211.32 32.7185C211.203 32.9157 211.172 33.1989 210.951 33.3769C211.621 34.2768 210.594 35.161 210.983 36.0063C210.767 36.1536 210.59 36.3513 210.467 36.5823C210.344 36.8134 210.279 37.0708 210.278 37.3324C210.304 37.589 210.133 37.7242 210.041 37.9017C209.419 39.1465 208.502 40.2205 207.37 41.0303C207.239 41.0303 207.145 40.9543 207.174 40.8358C207.242 40.2561 207.404 39.6911 207.652 39.1628C207.93 38.7724 208.074 38.3027 208.062 37.8238C208.632 36.6515 208.93 35.3662 208.936 34.0631L209.383 33.6156C209.436 33.2365 209.426 32.8514 209.353 32.4757C209.253 32.1909 209.397 31.8862 209.184 31.6197C209.094 31.5064 209.174 31.2642 209.16 31.082C209.128 30.6847 209.568 30.3293 209.364 29.9684C209.149 29.5894 209.265 29.1878 209.142 28.8401C208.918 28.2082 209.073 27.5397 208.904 26.9454C208.749 26.4042 209.143 25.9516 208.821 25.3064L208.497 25.0502C208.497 24.6117 208.497 24.2434 208.497 23.875C208.288 23.6666 208.079 23.4581 207.825 23.2041C208.022 22.3322 207.482 21.5633 207.325 20.7119L206.987 20.6238L206.987 19.754Z" fill="#222222"/>
<path d="M100.793 136.636C101.58 136.875 102.258 136.353 102.987 136.162C103.611 135.999 104.25 135.847 104.877 135.673C105.482 135.501 106.097 135.371 106.72 135.284C107.24 135.271 107.752 135.159 108.231 134.955C108.68 134.702 109.263 135.143 109.657 134.659C110.316 134.807 110.91 134.446 111.555 134.404C112.233 134.36 112.928 134.164 113.603 134.068C114.364 133.877 115.144 133.775 115.928 133.764C116.504 133.895 117.103 133.881 117.672 133.724C118.177 133.473 118.777 133.807 119.178 133.336C119.209 133.3 119.32 133.329 119.394 133.332C121.762 133.419 124.111 132.864 126.482 133.175L127.017 133.647L126.472 134.217C125.205 134.217 123.951 134.23 122.698 134.209C122.232 134.202 121.76 134.433 121.365 134.373C120.91 134.304 120.531 134.532 120.094 134.456C119.625 134.345 119.136 134.348 118.669 134.467C118.1 134.667 117.477 134.484 116.999 134.7C116.447 134.95 115.905 134.716 115.42 134.899C114.722 135.052 114.009 135.125 113.295 135.117C112.265 135.356 111.215 135.499 110.158 135.545C109.457 135.879 108.685 136.038 107.909 136.01C107.19 136.053 106.507 136.37 105.775 136.476C105.372 136.534 104.955 136.625 104.529 136.657C104.129 137.195 103.403 136.945 102.928 137.315C102.185 137.217 101.432 137.39 100.806 137.802C99.8965 138.093 99.0039 138.437 98.1331 138.83C97.3013 139.287 96.3329 139.506 95.5264 139.996C94.6059 140.403 93.749 140.941 92.9822 141.593C92.7332 141.866 92.3966 141.671 92.1154 141.952C91.3463 142.72 90.2393 143.071 89.5113 143.922C89.4692 143.971 89.3191 143.929 89.1353 143.929C89.2452 143.501 89.4964 143.123 89.8483 142.857C90.7237 142.089 91.7547 141.511 92.5663 140.661C92.6427 140.581 92.7089 140.464 92.8028 140.432C93.677 140.039 94.5274 139.594 95.3495 139.101C95.8573 138.901 96.3482 138.661 96.8175 138.382C97.8117 137.85 98.8568 137.418 99.937 137.094C100.257 137.016 100.552 136.859 100.793 136.636Z" fill="#222222"/>
<path d="M78.4901 109.216C78.5195 109.461 78.5588 109.633 78.7322 109.736C78.6763 109.892 78.4448 109.97 78.558 110.251C77.4768 110.366 76.6051 111.058 75.5378 111.242C75.2025 111.311 74.8907 111.466 74.6322 111.69C73.8268 112.438 72.7286 112.694 71.9027 113.404C70.9512 114.021 70.0599 114.727 69.2409 115.512C68.8501 116 68.2655 116.246 67.8459 116.686C66.7568 117.708 65.8065 118.869 65.0195 120.139C64.7815 120.572 64.2125 120.763 64.1006 121.308C63.5983 121.406 63.6495 121.931 63.3961 122.207C63.1686 122.513 62.9706 122.84 62.8049 123.184C62.5899 123.658 62.325 124.107 62.0145 124.525C61.66 124.893 61.7802 125.552 61.2982 125.88C61.111 127.01 60.3619 128.022 60.6278 129.207L60.065 129.769C59.4 129.443 59.823 128.999 59.9626 128.615L59.734 128.364C60.1351 127.796 59.8298 127.151 59.9886 126.578C60.4131 125.722 60.7628 124.831 61.0339 123.916C61.0378 123.773 61.0978 123.638 61.2008 123.539C61.531 123.243 61.5692 122.809 61.7376 122.436C62.0635 121.65 62.5786 120.956 63.2371 120.416C63.2592 120.152 63.3338 119.894 63.4567 119.658C63.5796 119.423 63.7483 119.214 63.9529 119.044C64.5922 118.475 65.1186 117.791 65.5044 117.026C65.6108 116.727 66.0216 116.826 66.1349 116.532C66.3977 115.851 67.1512 115.629 67.527 115.029C67.9881 114.477 68.5436 114.012 69.1676 113.655C69.8561 113.125 70.5861 112.626 71.2686 112.096C72.1031 111.417 73.0443 110.881 74.054 110.51C74.7236 110.275 75.2983 109.783 75.9504 109.481C76.4622 109.287 76.9836 109.12 77.5124 108.979C77.8746 108.855 78.0955 109.216 78.4901 109.216Z" fill="#222222"/>
<path d="M95.7677 127.756C95.8016 127.61 95.825 127.509 95.8228 127.519L100.31 125.37H101.014L101.37 124.951C102.291 124.809 103.193 124.565 104.059 124.222C104.319 124.134 104.587 124.071 104.86 124.034C104.933 124.033 105.031 124.065 105.077 124.03C105.819 123.463 106.754 123.645 107.575 123.378C108.524 123.044 109.504 122.803 110.5 122.659C111.591 122.487 112.669 122.249 113.731 121.947C114.281 121.718 114.872 121.603 115.468 121.608C115.853 121.667 116.096 121.217 116.484 121.378C116.875 121.541 117.117 121.104 117.501 121.14C117.838 121.172 118.236 121.3 118.52 120.94C118.549 120.904 118.662 120.935 118.735 120.935C119.436 120.935 120.139 120.966 120.837 120.926C121.468 120.89 122.13 121.119 122.728 120.739C123.172 121.167 123.884 120.697 124.374 121.358C124.389 121.556 124.379 121.755 124.344 121.95L123.996 122.298C123.28 121.708 122.315 122.348 121.492 121.81C121.212 121.995 120.877 122.08 120.543 122.05C120.249 122.024 119.953 122.022 119.659 122.044C119.413 122.05 119.136 121.96 118.965 122.237C118.723 121.951 118.51 122.299 118.273 122.27C118.023 122.201 117.758 122.205 117.511 122.283C117.068 122.552 116.563 122.352 116.165 122.516C115.739 122.691 115.263 122.555 114.933 122.736C114.318 123.072 113.633 122.722 113.069 123.052C112.549 123.357 111.894 123.203 111.41 123.592C110.539 123.674 109.676 123.83 108.83 124.057C107.738 124.207 106.668 124.521 105.588 124.764C105.243 125.171 104.626 124.649 104.306 125.141C103.68 125.058 103.27 125.677 102.605 125.612C102.035 125.556 101.503 125.946 100.917 126.06C100.196 126.264 99.4962 126.537 98.8275 126.875C98.3031 127.023 97.8014 127.242 97.3362 127.526C96.8892 127.784 96.4235 128.008 95.943 128.196C94.8987 128.696 93.9399 129.357 93.102 130.156C92.9898 130.283 92.8992 130.474 92.6746 130.453C92.64 130.449 92.606 130.44 92.5667 130.433C92.5378 130.412 92.5139 130.384 92.4969 130.353C92.4799 130.321 92.47 130.286 92.4681 130.25C92.4662 130.214 92.4722 130.179 92.4858 130.145C92.4994 130.112 92.5201 130.082 92.5466 130.058C93.3745 128.995 94.4936 128.195 95.7677 127.756Z" fill="#222322"/>
<path d="M215.707 32.8549C215.864 33.0019 215.779 33.2912 216.02 33.3892L215.804 33.6273C215.748 33.928 216.242 34.1454 216.01 34.4074C215.722 34.7344 216.072 34.9611 216.028 35.234C215.984 35.5082 216.14 35.8314 215.821 36.0341C215.832 36.5257 215.72 37.0123 215.494 37.4492C215.059 38.4175 214.567 39.3588 214.019 40.2681C214.001 40.3005 213.974 40.3274 213.942 40.3461C213.347 40.7993 212.659 41.1129 211.927 41.2639C211.704 41.0036 211.985 40.6106 211.603 40.4696C211.977 40.2172 211.674 39.4528 212.381 39.4728C212.491 39.0252 212.885 38.7937 213.148 38.4702C213.151 38.2728 213.198 38.0785 213.287 37.9023C213.376 37.7261 213.504 37.5726 213.662 37.4536C214.074 36.9946 214.344 36.4252 214.438 35.8151C214.562 35.34 214.64 34.8543 214.672 34.3645C214.663 33.9779 214.912 33.7099 214.931 33.3496C214.955 32.8812 215.3 32.789 215.707 32.8549Z" fill="#232323"/>
<path d="M59.6964 117.837V118.601C59.5881 118.846 59.153 118.959 59.2699 119.373C58.8511 120.266 58.4806 121.181 58.1602 122.114C58.0955 122.214 58.0218 122.308 57.9399 122.394C57.9947 122.841 57.9193 123.294 57.7229 123.699C57.5582 124.126 57.4764 124.58 57.482 125.038C57.3863 126.192 57.216 127.338 56.9722 128.47C56.7846 128.308 56.6364 128.105 56.5388 127.877C56.4412 127.648 56.3968 127.401 56.409 127.153C56.3476 126.311 56.4059 125.462 56.3845 124.616C56.3761 124.284 56.5832 124.032 56.649 123.722C56.8665 122.722 57.1733 121.743 57.5658 120.798C57.6934 120.487 57.6616 120.12 57.9243 119.835C58.0625 119.684 57.8179 119.32 58.0839 119.139C58.3631 118.949 58.3463 118.669 58.418 118.388C58.4728 118.173 58.7551 118.016 58.9328 117.837L59.6964 117.837Z" fill="#2B2A29"/>
<path d="M155.951 118.058H155.488C154.826 118.748 154.061 119.331 153.22 119.786C152.351 120.246 151.82 121.087 150.936 121.485V122.021L150.266 122.649C150.33 122.965 150.188 123.191 149.854 123.402C149.742 122.634 149.847 121.85 150.154 121.138C150.28 120.963 150.714 120.834 150.905 120.541C151.129 120.197 151.317 119.897 151.733 119.803C151.929 118.889 152.906 118.878 153.449 118.354C153.717 118.081 154.01 117.835 154.326 117.62C154.646 117.415 154.97 117.152 155.283 116.967C156.211 116.248 157.221 115.64 158.291 115.156C158.637 115.047 158.889 114.638 159.342 114.221C159.372 114.197 159.643 114.378 159.864 114.133C160.36 113.586 161.209 113.556 161.697 112.967C162.485 113.08 162.97 112.459 163.568 112.148C164.847 111.498 166.176 110.952 167.542 110.516C167.988 110.369 168.413 110.133 168.865 109.974C169.413 109.781 170.086 109.967 170.521 109.431C171.082 109.44 171.634 109.288 172.111 108.992C172.253 108.951 172.404 108.948 172.548 108.985C173.183 109.012 173.816 108.902 174.405 108.663C174.924 108.458 175.476 108.351 176.033 108.346C176.931 108.378 177.829 108.282 178.7 108.059C180.068 107.908 181.444 107.843 182.82 107.866C183.307 107.819 183.688 108.216 184.246 108.074L184.801 108.804V109.1L184.484 109.417C183.102 109.543 181.757 109.111 180.371 109.174C179.825 109.2 179.355 109.465 178.804 109.445C178.307 109.388 177.803 109.44 177.328 109.598C176.825 109.748 176.303 109.828 175.777 109.837C175.242 109.882 174.764 110.223 174.212 110.09C173.811 110.541 173.134 110.072 172.736 110.533C172.04 110.376 171.428 110.926 170.823 110.756C170.249 111.137 169.586 111.362 168.898 111.411C168.352 111.494 167.829 111.686 167.359 111.976C165.998 112.512 164.655 113.106 163.32 113.712C162.01 114.306 160.807 115.095 159.474 115.642C158.842 115.927 158.252 116.297 157.721 116.742C157.115 117.222 156.259 117.336 155.951 118.058Z" fill="#222222"/>
<path d="M174.098 101.038C174.182 101.098 174.24 101.266 174.48 101.226L174.773 101.015C175.671 101.468 176.635 101.094 177.693 101.309L178.144 101.977V102.28C177.646 102.321 177.202 102.744 176.709 102.551C175.793 102.354 174.855 102.281 173.92 102.333C173.079 102.29 172.245 102.156 171.433 101.933C171.223 101.864 170.999 101.856 170.785 101.909C170.127 102.147 169.409 102.154 168.747 101.929C168.505 101.846 168.249 101.815 167.994 101.837C167.74 101.86 167.493 101.936 167.27 102.06C167.101 102.182 166.917 102.112 166.741 102.117C166.299 102.13 165.855 102.104 165.414 102.126C164.873 102.152 164.29 101.96 163.801 102.231C163.308 102.504 162.7 102.092 162.277 102.564C161.653 102.416 161.103 102.79 160.489 102.818C159.798 102.841 159.121 103.02 158.51 103.342C157.999 103.591 157.434 103.705 156.867 103.674C156.047 104.09 155.206 104.462 154.346 104.789C153.514 105.184 152.649 105.497 151.827 105.931C151.089 106.32 150.458 106.862 149.707 107.215C149.001 107.592 148.327 108.026 147.692 108.513C147.478 108.628 147.282 108.774 147.109 108.945C146.633 109.556 145.759 109.748 145.457 110.532C144.733 110.863 144.343 111.563 143.767 112.059C143.426 112.353 142.991 112.505 142.72 112.926C142.44 113.264 142.118 113.565 141.762 113.82H141.242C141.22 113.719 141.17 113.629 141.196 113.587C141.375 113.229 141.669 112.941 142.031 112.77C142.43 112.641 142.343 112.153 142.822 112.029C143.254 111.918 143.592 111.378 143.932 110.994C145.074 109.816 146.277 108.7 147.537 107.649C148.275 107.017 149.092 106.483 149.968 106.06C150.578 105.741 151.116 105.273 151.74 104.991C152.518 104.639 153.234 104.165 154.049 103.887C155.147 103.513 156.249 103.141 157.313 102.685C157.706 102.516 158.118 102.561 158.519 102.389C158.936 102.233 159.362 102.101 159.795 101.995C160.326 101.819 160.875 101.704 161.432 101.651C162.022 101.625 162.605 101.508 163.159 101.302C163.55 101.22 163.951 101.198 164.349 101.237C165.853 101.126 167.358 101.033 168.86 100.897C169.169 100.869 169.445 101.219 169.785 100.895C169.922 100.801 170.08 100.745 170.245 100.73C170.409 100.716 170.575 100.744 170.726 100.813C171.838 101.015 172.969 101.091 174.098 101.038Z" fill="#222323"/>
</svg>
