<svg width="220" height="164" viewBox="0 0 220 164" fill="none" xmlns="http://www.w3.org/2000/svg">
<path d="M53.1674 120.807C55.441 120.022 57.6852 119.164 60.0624 118.073C59.2391 118.153 58.826 117.659 58.3697 117.489C57.6791 117.191 57.0147 116.835 56.3833 116.426C55.4173 115.876 54.5109 115.222 53.5703 114.627C52.5908 114.09 51.7115 113.388 50.971 112.552C50.4759 111.93 49.5782 111.692 48.9671 111.077C47.9617 110.064 46.9488 109.074 45.9854 108.011C44.8302 106.491 43.833 104.857 43.0092 103.134C41.9672 101.221 41.1549 99.1906 40.5891 97.0864C39.7074 94.5036 39.0492 91.8498 38.6216 89.1543C38.2767 86.6123 37.7655 84.0994 37.6219 81.5234C37.523 79.7489 37.1074 77.9941 36.9152 76.2216C36.8293 75.429 36.7339 74.6371 36.6508 73.8442C36.3903 71.3611 36.5547 68.8594 36.3385 66.37C36.202 64.7984 36.2721 63.2299 35.9866 61.643C35.7431 60.2662 35.6002 58.8733 35.5592 57.4757C35.5473 57.0911 35.3047 56.8153 35.2252 56.4822C35.1678 56.242 35.0302 55.9379 35.3724 55.6837C35.6974 55.4422 35.9394 55.5966 36.1741 55.7268C37.7553 56.7163 39.4439 57.523 41.2072 58.1313C43.5411 58.8608 45.9453 59.342 48.3802 59.5668C50.0214 59.7318 51.6702 59.809 53.3196 59.7985C55.1094 59.8872 56.9036 59.7995 58.6762 59.5366C60.3704 59.2002 62.0463 58.7776 63.6974 58.2705C65.8672 57.5153 68.0194 56.739 70.1306 55.8193C71.9606 55.022 73.7309 54.0927 75.6401 53.4456C77.1761 52.9251 78.6412 52.1589 80.1697 51.5811C82.261 50.7907 84.3346 49.9326 86.4719 49.2899C89.1841 48.4743 91.9281 47.7378 94.6687 47.0412C97.5045 46.2623 100.418 45.8014 103.356 45.6671C105.616 45.5171 107.883 45.834 110.016 46.5981C110.625 46.8392 110.983 47.1808 110.486 47.778C110.185 48.1397 110.458 48.3604 110.582 48.5576C111.448 49.9294 112.284 51.3278 113.265 52.6148C113.861 53.3968 114.513 54.1446 115.116 54.9291C115.499 55.429 115.467 55.8825 114.967 56.2074C114.474 56.528 113.916 56.6883 113.464 56.0776C111.629 53.6715 110.024 51.0984 108.671 48.392C108.572 48.1899 108.421 48.0173 108.234 47.8922C108.047 47.7671 107.83 47.6937 107.605 47.6795C104.25 47.2748 100.848 47.4913 97.5709 48.3177C94.2315 49.0694 90.9105 49.8716 87.6323 50.867C84.5812 51.7583 81.5855 52.8295 78.6611 54.075C75.0227 55.6694 71.3883 57.2826 67.6883 58.7238C64.1693 60.1814 60.4225 61.0123 56.6173 61.179C54.091 61.2165 51.5646 61.1155 49.0494 60.8769C46.8235 60.6687 44.6138 60.3138 42.4348 59.8142C40.4291 59.3172 38.5136 58.5091 36.7579 57.4195C37.0092 58.7591 37.2725 59.9212 37.436 61.0972C37.6319 62.5067 37.7466 63.9278 37.8891 65.3445C38.1063 67.5034 38.0312 69.6741 38.2241 71.8423C38.4428 74.3014 38.8133 76.7398 39.0435 79.1958C39.2357 81.2464 39.6639 83.2747 39.9756 85.3147C40.2506 87.1152 40.5622 88.925 40.9976 90.6758C41.3282 92.6054 41.838 94.5001 42.5203 96.335C42.8777 97.1199 42.9523 98.168 43.3274 98.919C44.0116 100.691 44.8082 102.417 45.7127 104.088C46.4557 105.605 47.4198 107.005 48.5734 108.24C49.5699 109.045 50.4511 109.996 51.5232 110.745C52.2374 111.244 52.9973 111.774 53.7048 112.327C55.5833 113.774 57.6079 115.021 59.7456 116.047C61.3039 116.808 62.9087 117.551 64.5508 118.184C65.8721 118.693 67.2057 119.205 68.5128 119.769C69.6228 120.188 70.7591 120.534 71.9143 120.805C73.4585 121.242 75.0276 121.6 76.5478 122.107C77.3311 122.275 78.1229 122.402 78.9198 122.486C81.2907 123.082 83.7233 123.399 86.1679 123.429C87.1207 123.458 88.071 123.543 89.0138 123.684C90.2757 123.817 91.5657 123.658 92.8377 123.73C95.1342 123.859 97.4369 123.882 99.7329 123.979C100.635 124.017 101.642 124.026 102.572 124.008C103.626 123.901 104.689 123.913 105.74 124.045C106.944 124.294 108.198 124.01 109.439 124.239C111.155 124.556 112.896 124.653 114.618 125.063C115.905 125.37 117.187 125.704 118.429 126.124C119.389 126.472 120.293 126.959 121.11 127.571C121.809 128.076 122.619 128.316 123.345 128.75C124.24 129.286 125.083 129.882 125.917 130.494C127.079 131.161 128.175 131.936 129.19 132.811C129.473 133.114 129.746 132.957 130.029 132.683C131.714 131.05 133.617 129.645 135.193 127.902C136.577 126.37 138.306 125.231 139.733 123.743C140.665 122.575 141.713 121.506 142.862 120.551C143.923 119.832 144.419 118.694 145.472 117.977C146.389 117.374 147.143 116.555 147.669 115.592C147.793 115.346 148.072 115.18 148.274 114.972C149.325 113.889 150.397 112.82 151.462 111.759C152.255 110.814 153.129 109.94 154.074 109.146C154.481 108.86 154.68 108.158 155.137 107.831C156.213 107.061 156.757 105.751 157.95 105.122C158.502 104.83 158.295 104.101 158.908 103.753C159.944 102.955 160.868 102.02 161.654 100.975C162.403 100.259 163.104 99.4939 163.75 98.6844C164.876 97.334 166.091 96.0614 167.389 94.8753C168.283 93.7709 169.327 92.7969 170.49 91.9814C171.037 91.5571 171.507 91.043 171.881 90.4613C172.692 89.4914 173.791 88.7901 174.578 87.8442C175.585 86.7468 176.647 85.7019 177.761 84.7134C178.168 84.2984 178.535 83.8475 178.86 83.3664C179.393 82.5995 180.361 82.4859 180.842 81.6961C181.613 80.4282 183.198 79.9405 183.904 78.5417C184.208 77.9417 185.119 77.9663 185.663 77.4686C186.23 76.8123 186.893 76.2451 187.629 75.7859C188.119 75.5494 188.179 75.1041 187.621 74.7944C186.595 74.2242 185.845 73.265 184.763 72.7809C183.146 71.9385 181.398 71.3748 179.593 71.1138C178.581 71.0106 177.564 70.978 176.547 71.016L175.647 71.0193C173.564 71.2644 171.508 71.7024 169.506 72.3276C168.12 72.8107 166.665 73.0116 165.286 73.5099C164.574 73.767 163.82 73.9071 163.085 74.1001C162.752 74.0586 162.415 74.1016 162.103 74.2253L157.809 74.8268C157.42 74.8505 157.011 74.6829 156.649 74.9529L154.534 75.0094L153.461 75.0532C152.902 74.9471 152.33 74.9228 151.765 74.9809C149.408 74.9612 147.058 74.8094 144.709 74.6506L143.442 74.6432C141.685 74.6135 139.941 74.3431 138.258 73.8393C135.993 73.3175 133.867 72.3158 132.022 70.9017C131.799 70.744 131.468 70.5262 131.641 70.1703C131.679 70.0947 131.733 70.0286 131.8 69.9769C131.867 69.9252 131.944 69.8892 132.027 69.8717C132.11 69.8542 132.195 69.8555 132.277 69.8757C132.359 69.8959 132.436 69.9342 132.501 69.988C133.731 70.7312 135.119 71.1356 136.376 71.8183C137.229 72.1401 138.123 72.3402 139.032 72.4125C141.72 72.9723 144.463 73.2261 147.208 73.1693C148.615 73.164 150.026 73.3777 151.428 73.3196C154.587 73.2809 157.739 73.0096 160.859 72.5079C164.154 71.8819 167.308 70.8136 170.536 69.9911C172.311 69.448 174.144 69.1139 175.996 68.9958C179.581 68.7029 183.181 69.3441 186.444 70.8568C188.204 71.759 189.774 72.9907 191.07 74.4852C191.357 74.8287 191.426 75.3012 191.899 75.5665C192.029 75.7153 192.114 75.8988 192.143 76.0947C192.172 76.2906 192.143 76.4909 192.061 76.6709C191.829 77.1857 191.302 77.6179 190.93 77.4682C189.7 76.9727 189.292 78.081 188.61 78.5422C187.631 79.2048 186.8 80.0838 185.877 80.8349C185.605 81.0563 185.346 81.1835 185.221 81.5905C185.062 81.988 184.759 82.3111 184.372 82.4956C183.187 83.0509 182.528 84.172 181.564 84.9512C180.418 85.8769 179.554 87.0745 178.394 87.994C176.745 89.3002 175.453 91.0237 173.695 92.2058C173.312 92.4633 173.606 92.8056 173.329 93.0359C172.917 93.3771 172.505 93.7256 172.113 94.0841C170.654 95.4182 169.367 96.9355 167.947 98.2967C166.756 99.4382 165.713 100.729 164.371 101.885C165.562 102.136 166.71 102.403 167.868 102.614C169.795 102.976 171.697 103.463 173.562 104.071C174.808 104.47 176.074 104.837 177.319 105.228C179.112 105.79 180.952 106.122 182.759 106.598C183.094 106.696 183.423 106.815 183.743 106.956C184.36 107.205 184.302 107.569 183.99 108.002C183.118 109.281 182.087 110.445 180.921 111.465C180.097 112.152 179.418 113.01 178.618 113.729C176.591 115.551 174.591 117.413 172.457 119.103C171.581 119.684 170.751 120.332 169.973 121.04C168.854 122.264 167.389 122.988 166.187 124.084C164.877 125.226 163.503 126.291 162.071 127.275C160.732 128.238 159.277 129.041 158.022 130.127C157.539 130.509 157.022 130.848 156.478 131.137C153.513 132.878 150.963 135.223 147.974 136.934C145.921 138.109 143.827 139.202 141.745 140.322C140.072 141.221 138.437 142.214 136.825 143.222C134.915 144.417 133.016 145.63 131.099 146.817C129.336 147.861 127.715 149.13 126.277 150.591C125.457 151.455 124.753 151.483 124.025 150.565C122.671 149.123 121.083 147.921 119.328 147.011C117.671 145.816 116.083 144.53 114.569 143.16C113.769 142.514 112.9 141.95 112.043 141.379C110.929 140.657 109.761 140.024 108.548 139.485C107.149 138.679 105.65 138.06 104.09 137.645C103.401 137.524 102.685 137.198 101.973 136.997C100.053 136.558 98.1125 136.22 96.158 135.982C94.596 135.712 93.004 135.446 91.4006 135.32C90.0654 135.22 88.7404 135.013 87.4385 134.701C86.1068 134.374 84.7457 134.432 83.4208 134.104C81.5533 133.641 79.6526 133.322 77.777 132.873C76.5645 132.582 75.2645 132.34 74.1249 131.975C72.2225 131.676 70.3563 131.181 68.5562 130.496C68.2164 130.305 67.7257 130.4 67.3534 130.245C65.3508 129.461 63.3098 128.778 61.2381 128.2C60.1206 127.865 58.9908 127.57 57.8768 127.224C55.9891 126.638 54.1101 126.034 52.2777 125.277C50.5284 124.616 48.7296 124.094 46.8983 123.715C45.7631 123.444 44.6343 123.147 43.5018 122.865C43.1155 122.716 42.7071 122.632 42.2933 122.616C42.2028 122.629 42.1106 122.623 42.023 122.596C41.9353 122.57 41.8544 122.525 41.7857 122.465C41.7171 122.405 41.6625 122.33 41.6255 122.247C41.5884 122.163 41.5699 122.072 41.5712 121.981C41.5526 121.508 41.9505 121.536 42.288 121.533C42.8328 121.528 43.3775 121.514 43.9223 121.504L44.8221 121.556C45.1883 121.518 45.566 121.722 45.9237 121.504C46.5476 121.514 47.1746 121.569 47.7943 121.523C48.5698 121.465 49.3703 121.748 50.1217 121.364L50.1118 121.373C50.5931 121.244 51.1331 121.558 51.5813 121.179C51.7085 121.194 51.8376 121.183 51.96 121.145C52.0825 121.107 52.1954 121.043 52.2914 120.958C52.5856 120.921 52.9301 121.174 53.1674 120.807Z" fill="#212222"/>
<path d="M117.927 84.0546C116.936 84.8382 116.023 85.7161 115.202 86.6757C114.829 87.1038 114.251 87.1273 113.764 87.3161C113.194 87.4537 112.69 87.7882 112.341 88.2605C112.063 88.7165 111.446 88.7216 111.073 89.0524C108.777 90.7596 106.375 92.3218 103.884 93.7299C102.845 94.4448 101.778 95.1057 100.682 95.7256C100.536 95.7015 100.385 95.7197 100.249 95.7783C100.113 95.8369 99.9959 95.9333 99.9126 96.0562C98.6832 96.6203 97.4219 97.1122 96.1351 97.5292C95.1064 97.5342 95.0656 97.4857 95.074 96.2647C95.7091 94.5161 96.3542 92.7709 96.9761 91.0177C97.4833 89.588 98.2655 88.2694 98.6679 86.7986C99.2693 84.8869 100.017 83.0244 100.905 81.2276C101.216 80.5227 101.659 79.8834 102.209 79.3438C102.565 78.9584 102.83 78.4976 102.984 77.9956C103.952 75.1769 105.473 72.5802 107.459 70.3581C108.7 68.9448 109.881 67.4617 111.031 65.9614C111.726 65.0548 112.368 64.1082 113.03 63.1787C113.291 62.6982 113.604 62.2484 113.965 61.8375L114.484 61.1541C115.173 59.8673 116.052 58.6915 117.09 57.6664C117.585 57.2202 117.793 56.4727 118.331 56.0062C118.571 55.6549 118.693 55.215 119.095 54.9844C119.661 55.1165 119.275 54.447 119.605 54.3802L120.296 53.6972C120.472 53.4605 120.593 53.171 120.904 53.0636C121.051 52.7353 121.282 52.452 121.574 52.2424C122.043 51.5759 122.598 50.9737 123.223 50.4515C124.041 49.8076 124.78 49.0696 125.425 48.2528C125.798 48.2463 126.108 48.1629 126.114 47.7003C126.487 47.446 126.809 47.1246 127.064 46.7524L127.737 46.0583C127.838 45.7416 128.052 45.4731 128.338 45.3049C128.577 45.198 128.776 45.0205 128.91 44.796C129.126 44.6959 129.166 44.4718 129.267 44.2903L129.739 43.6942C129.963 43.1565 130.377 42.7206 130.904 42.4708L132.202 40.6183C132.308 40.65 132.355 40.6003 132.365 40.4991L133.427 39.3298C133.473 38.9733 133.811 38.8286 133.983 38.5632C134.496 38.3979 134.593 37.8528 134.931 37.5273C135.441 36.7507 136.354 36.3911 136.888 35.6387L137.435 35.1463C138.367 34.687 138.788 33.68 139.618 33.1117C139.95 32.9468 140.241 32.7097 140.47 32.4178C140.779 32.1501 141.205 31.9914 141.306 31.5286C141.423 31.2465 141.978 31.4494 141.921 30.9743C142.572 30.322 143.523 30.4259 144.288 30.028C145.649 29.2411 147.132 28.6861 148.675 28.386C149.749 28.2813 150.828 28.2382 151.908 28.2566C152.214 28.4719 152.564 28.3666 152.896 28.3891L153.072 28.4215C153.331 28.6383 153.649 28.771 153.984 28.8019C154.618 29.0262 155.196 29.384 155.68 29.851C156.163 30.318 156.541 30.8833 156.787 31.5088C156.965 31.9675 156.978 32.4739 156.824 32.9414C156.931 33.6124 156.957 34.2934 156.904 34.9707C156.613 35.2768 156.688 35.7037 156.545 36.0584L156.541 36.0633C156.285 36.4498 156.093 36.875 155.972 37.3225C155.612 37.8655 155.014 38.2513 154.896 38.9534L154.363 39.8776C154.025 40.3199 153.488 40.5872 153.263 41.1285C152.49 41.113 152.959 41.5609 152.995 41.847C150.357 43.3974 148.037 45.4323 146.155 47.8446L145.622 48.6047L145.052 49.2579C144.665 49.3822 144.763 49.8369 144.51 50.0526C143.934 50.4216 143.492 50.9649 143.247 51.6033C143.023 52.2057 142.121 52.1537 142.142 52.9036L141.721 53.673C140.555 54.2843 140.033 55.4713 139.255 56.4297L138.328 57.5099C137.993 57.6087 138.253 58.0457 137.955 58.1651C137.743 58.3425 137.397 58.4071 137.431 58.7902C136.781 59.4459 136.197 60.1642 135.688 60.9344C134.904 61.7955 134.214 62.738 133.631 63.7458C132.896 64.9271 132.045 66.0328 131.092 67.0467C130.75 67.434 130.789 67.984 130.511 68.3984C130.05 68.4416 130 68.8614 129.813 69.1565C129.019 70.094 128.283 71.0798 127.61 72.1081C127.255 72.1901 127.328 72.5535 127.176 72.7693C126.933 72.9537 126.763 73.2192 126.699 73.5176L126.26 74.0429C125.972 74.0099 125.885 74.2236 125.788 74.4253C125.52 74.6706 125.325 74.984 125.222 75.3321C124.376 76.2488 123.592 77.221 122.876 78.2422C122.657 78.537 122.208 78.5691 122.066 78.9516L121.41 79.6643C121.081 79.7164 121.027 80.0411 120.842 80.2363L118.502 83.3156C118.275 83.5336 117.987 83.7057 117.927 84.0546ZM150.136 41.0036C150.369 40.557 150.716 40.1804 151.143 39.9127C152.532 38.7531 153.601 37.2576 154.249 35.5685C154.597 34.6472 154.716 33.6553 154.596 32.6779C154.632 32.3239 154.595 31.9662 154.487 31.6271C154.379 31.288 154.203 30.9747 153.968 30.7071C153.733 30.4395 153.446 30.2234 153.124 30.072C152.802 29.9205 152.452 29.8372 152.096 29.8272C150.458 29.5709 148.781 29.7697 147.249 30.4019C146.424 30.6251 145.635 30.9657 144.907 31.4132C143.15 32.7807 141.47 34.2453 139.877 35.8003C142.989 38.1411 146.818 39.077 150.136 41.0036V41.0036ZM107.902 78.2382C107.854 78.0094 108.042 77.7176 107.795 77.565C107.495 77.3798 107.316 77.7247 107.11 77.8463C106.203 78.3834 105.316 78.9559 104.432 79.5325C103.357 80.2344 102.245 80.896 101.922 82.2987C101.374 84.539 100.626 86.7256 99.687 88.8321C99.5523 89.1457 99.7212 89.3071 99.9445 89.4054C100.898 89.8714 101.816 90.409 102.688 91.0139C103.486 91.5208 104.229 91.7712 104.907 90.8334C105.003 90.7014 105.214 90.6521 105.374 90.5677C106.072 90.2993 106.731 89.9393 107.333 89.4968C108.755 88.1301 110.71 87.4714 111.97 85.9109C112.482 85.2781 113.722 85.1771 113.396 83.9356C113.306 83.7171 113.268 83.4804 113.285 83.2447C113.522 82.311 112.942 82.6311 112.575 82.7967C111.345 83.4324 110.012 83.8441 108.638 84.0123C107.97 84.0614 107.029 83.5323 107.2 83.1293C107.594 82.1991 107.242 81.2029 107.585 80.2419C107.798 79.5954 107.905 78.9188 107.902 78.2382V78.2382Z" fill="#212222"/>
<path d="M81.7632 75.3103C81.086 75.7808 80.3102 76.0903 79.4951 76.2149C78.6799 76.3395 77.847 76.2759 77.0602 76.0292C76.7398 75.9706 76.4422 75.8237 76.201 75.6048C75.9598 75.3859 75.7847 75.104 75.6954 74.7907C75.3537 73.5806 75.4033 72.2932 75.8372 71.113C76.2711 69.9328 77.067 68.92 78.1112 68.2194C78.945 67.4588 79.9934 66.9741 81.1129 66.8312C82.2325 66.6884 83.3688 66.8946 84.3669 67.4215C84.9327 67.7992 85.3865 68.3221 85.6807 68.9354C85.9749 69.5488 86.0987 70.2299 86.0392 70.9076C85.8832 71.5128 86.2049 71.3847 86.4666 71.3111C86.9534 71.1743 87.4115 70.9365 87.8974 70.7953C90.0867 70.2235 92.4038 70.3946 94.4852 71.2822C95.5359 71.563 96.6481 71.5083 97.6661 71.1255C98.684 70.7426 99.5567 70.0511 100.162 69.1475C101.074 67.8575 101.774 66.43 102.236 64.9191C102.635 63.582 103.168 62.3029 103.608 60.9871C103.708 60.6869 103.785 60.2187 104.27 60.2577C104.721 60.294 104.781 60.7256 104.861 61.0491C105.127 62.4987 105.045 63.9904 104.623 65.4024C104.28 66.6112 103.771 67.7666 103.111 68.8361C102.319 70.234 101.139 71.3725 99.7134 72.1134C98.5283 72.8826 97.1237 73.2417 95.7149 73.1358C94.5784 73.0434 93.4589 72.8027 92.3849 72.4198C90.5311 71.8844 88.5491 72.0077 86.7759 72.7686C85.2529 73.2176 85.0388 74.6854 84.2437 75.6791C83.1792 77.0418 81.8788 78.2022 80.4044 79.1056C79.0383 80.0044 77.5863 80.7656 76.0699 81.3777C73.9462 82.2244 71.774 82.9439 69.5648 83.5323C68.4991 83.7755 67.4584 84.126 66.3991 84.3996C63.0524 85.2641 59.708 86.1396 56.3496 86.9564C55.3858 87.1501 54.4108 87.2829 53.4304 87.3534C53.1808 87.3813 52.8539 87.4178 52.8359 86.9946C52.8197 86.6135 53.0175 86.4947 53.3736 86.4226C58.1645 85.4517 62.7971 83.8753 67.5371 82.708C70.4738 81.9549 73.3342 80.9307 76.0813 79.6483C78.0582 78.7037 79.8862 77.4746 81.5069 76.0003C81.6013 75.9175 81.6098 75.7371 81.7632 75.3103ZM81.7159 68.6135C81.3389 68.6143 80.9675 68.705 80.6327 68.8783C79.8334 69.3008 79.1423 69.9023 78.6132 70.6355C78.0842 71.3687 77.7313 72.214 77.5823 73.1058C77.3526 74.0454 77.7565 74.529 78.7446 74.6198C79.6756 74.6715 80.5962 74.4044 81.3552 73.8628C82.324 73.2428 83.684 73.07 83.7288 71.3724C83.7788 69.473 83.4467 68.7183 81.7159 68.6135Z" fill="#212222"/>
<path d="M95.3976 97.7142C95.3312 97.9655 96.5175 97.8884 95.5821 98.3473C93.8702 99.355 92.2837 100.562 90.856 101.943C89.3666 103.172 87.9605 104.5 86.5145 105.768C84.6791 107.368 82.582 108.64 80.3152 109.528C78.7376 110.152 77.0598 110.483 75.3636 110.507C75.0056 110.514 74.585 110.538 74.5641 110.154C74.5439 109.784 75.0434 109.779 75.3212 109.733C77.2063 109.414 79.038 108.836 80.7643 108.014C82.9444 106.827 84.9418 105.332 86.6945 103.575C87.8289 102.57 88.9234 101.52 90.0552 100.512C90.6726 99.962 91.3625 99.4934 91.9565 98.9098C92.3472 98.488 92.8271 98.1588 93.3612 97.9461C93.8953 97.7333 94.4701 97.6425 95.0438 97.6802L95.3976 97.7142Z" fill="#212222"/>
<path d="M50.1219 121.364C49.3704 121.749 48.5701 121.466 47.7946 121.524C47.1749 121.57 46.5477 121.515 45.9238 121.505C47.3158 121.327 48.7212 121.28 50.1219 121.364V121.364Z" fill="#F1F6FC"/>
<path d="M132.202 40.6187L130.904 42.4712C130.954 42.0804 131.099 41.7076 131.325 41.385C131.551 41.0623 131.852 40.7994 132.202 40.6187V40.6187Z" fill="#F1F6FC"/>
<path d="M95.3974 97.714L95.0437 97.6799C94.9847 97.2068 94.5973 96.7267 95.0741 96.2651C95.0656 97.4861 95.1064 97.5346 96.1352 97.5297C95.9407 97.7969 95.6511 97.6834 95.3974 97.714Z" fill="#F1F6FC"/>
<path d="M133.427 39.3301L132.365 40.4992C132.595 39.9977 132.746 39.4237 133.427 39.3301Z" fill="#F1F6FC"/>
<path d="M138.328 57.5104L139.256 56.4302C139.267 57.0656 138.828 57.3139 138.328 57.5104Z" fill="#F1F6FC"/>
<path d="M134.931 37.5273C134.593 37.8529 134.496 38.398 133.983 38.5633C134.268 38.1897 134.327 37.6092 134.931 37.5273Z" fill="#F1F6FC"/>
<path d="M152.996 41.8473C152.96 41.5612 152.49 41.1133 153.264 41.1288C153.165 41.365 153.749 41.8554 152.996 41.8473Z" fill="#F1F6FC"/>
<path d="M156.824 32.9419C156.979 32.4744 156.965 31.968 156.787 31.5093C156.894 31.5937 156.982 31.7007 157.044 31.823C157.105 31.9453 157.139 32.0798 157.143 32.2167C157.146 32.3535 157.12 32.4895 157.065 32.6148C157.01 32.7402 156.928 32.8519 156.824 32.9419Z" fill="#F1F6FC"/>
<path d="M155.972 37.3229C156.093 36.8755 156.285 36.4504 156.541 36.064C156.543 36.5701 156.499 37.0556 155.972 37.3229Z" fill="#F1F6FC"/>
<path d="M119.095 54.9849C118.694 55.2155 118.571 55.6553 118.331 56.0066C118.306 55.4571 118.444 55.0288 119.095 54.9849Z" fill="#F1F6FC"/>
<path d="M140.47 32.418C140.241 32.7098 139.95 32.9469 139.618 33.1118C139.779 32.7291 139.996 32.4165 140.47 32.418Z" fill="#F1F6FC"/>
<path d="M156.545 36.059C156.688 35.7043 156.613 35.2774 156.904 34.9712C156.782 35.333 157.191 35.87 156.545 36.059Z" fill="#F1F6FC"/>
<path d="M51.5813 121.179C51.1331 121.558 50.5931 121.244 50.1118 121.373C50.5565 120.968 51.0931 121.256 51.5813 121.179Z" fill="#F1F6FC"/>
<path d="M143.442 74.6436L144.709 74.6509C144.515 74.7607 144.297 74.8178 144.074 74.8165C143.852 74.8152 143.634 74.7556 143.442 74.6436V74.6436Z" fill="#F1F6FC"/>
<path d="M141.922 30.9746C141.979 31.4497 141.424 31.247 141.307 31.5291C141.15 30.9431 141.791 31.242 141.922 30.9746Z" fill="#F1F6FC"/>
<path d="M125.222 75.3323C125.325 74.9842 125.521 74.6706 125.789 74.4253C125.786 74.6138 125.732 74.7981 125.632 74.958C125.532 75.1178 125.39 75.2472 125.222 75.3323V75.3323Z" fill="#F1F6FC"/>
<path d="M154.363 39.8778L154.897 38.9536C154.9 39.3659 154.969 39.8167 154.363 39.8778Z" fill="#F1F6FC"/>
<path d="M127.737 46.0584L127.064 46.7525C127.142 46.3786 127.239 46.0243 127.737 46.0584Z" fill="#F1F6FC"/>
<path d="M122.066 78.9521C122.208 78.5696 122.658 78.5374 122.877 78.2427C122.851 78.7584 122.451 78.8461 122.066 78.9521Z" fill="#F1F6FC"/>
<path d="M121.574 52.2424C121.282 52.452 121.051 52.7356 120.905 53.0639C120.83 52.5475 120.979 52.2139 121.574 52.2424Z" fill="#F1F6FC"/>
<path d="M120.296 53.6975L119.605 54.3804C119.685 54.0003 119.799 53.6546 120.296 53.6975Z" fill="#F1F6FC"/>
<path d="M129.813 69.157C130 68.862 130.051 68.4421 130.511 68.3989C130.364 68.7305 130.291 69.1293 129.813 69.157Z" fill="#F1F6FC"/>
<path d="M114.484 61.1544L113.965 61.8378C113.949 61.4666 113.942 61.1021 114.484 61.1544Z" fill="#F1F6FC"/>
<path d="M144.511 50.0531C144.764 49.8373 144.666 49.3826 145.053 49.2583C144.907 49.5467 145.02 50.0124 144.511 50.0531Z" fill="#F1F6FC"/>
<path d="M117.926 84.0551C117.987 83.7062 118.274 83.534 118.503 83.3159C118.505 83.4864 118.45 83.6528 118.345 83.7872C118.24 83.9217 118.092 84.0161 117.926 84.0551V84.0551Z" fill="#F1F6FC"/>
<path d="M145.622 48.6053L146.155 47.8452C146.191 48.2486 146.115 48.5726 145.622 48.6053Z" fill="#F1F6FC"/>
<path d="M126.114 47.7007C126.108 48.1633 125.798 48.2467 125.426 48.2531L126.114 47.7007Z" fill="#F1F6FC"/>
<path d="M153.46 75.0536L154.534 75.0098C154.375 75.1124 154.192 75.1708 154.003 75.1785C153.814 75.1862 153.627 75.143 153.46 75.0536Z" fill="#F1F6FC"/>
<path d="M137.435 35.1468L136.889 35.639C136.972 35.3652 137.019 35.0517 137.435 35.1468Z" fill="#F1F6FC"/>
<path d="M153.985 28.8019C153.649 28.771 153.331 28.6385 153.073 28.4218C153.245 28.3965 153.421 28.4186 153.581 28.4856C153.742 28.5526 153.881 28.6618 153.985 28.8019Z" fill="#F1F6FC"/>
<path d="M156.649 74.9529C157.011 74.6829 157.42 74.8505 157.809 74.8268C157.448 75.1026 157.038 74.936 156.649 74.9529Z" fill="#F1F6FC"/>
<path d="M162.103 74.2255C162.415 74.1018 162.752 74.0588 163.085 74.1003C162.785 74.3574 162.435 74.2172 162.103 74.2255Z" fill="#F1F6FC"/>
<path d="M126.26 74.0434L126.699 73.5181C126.915 73.9953 126.631 74.056 126.26 74.0434Z" fill="#F1F6FC"/>
<path d="M120.843 80.2366C121.027 80.0413 121.081 79.7166 121.41 79.6646C121.307 79.9406 121.241 80.253 120.843 80.2366Z" fill="#F1F6FC"/>
<path d="M127.176 72.7696C127.328 72.5537 127.255 72.1903 127.611 72.1084C127.618 72.4284 127.565 72.709 127.176 72.7696Z" fill="#F1F6FC"/>
<path d="M175.647 71.0194L176.547 71.0161C176.419 71.1178 176.261 71.1736 176.098 71.1742C175.934 71.1748 175.776 71.1202 175.647 71.0194V71.0194Z" fill="#F1F6FC"/>
<path d="M99.9126 96.0563C99.9959 95.9334 100.113 95.837 100.249 95.7784C100.386 95.7198 100.536 95.7016 100.682 95.7257C100.587 95.8351 100.468 95.9217 100.335 95.9789C100.202 96.0361 100.057 96.0626 99.9126 96.0563V96.0563Z" fill="#F1F6FC"/>
<path d="M152.896 28.3894C152.564 28.3669 152.214 28.4722 151.908 28.2569C152.241 28.2721 152.596 28.1221 152.896 28.3894Z" fill="#F1F6FC"/>
<path d="M141.722 53.6732L142.142 52.9038C142.177 53.2558 142.175 53.5879 141.722 53.6732Z" fill="#F1F6FC"/>
<path d="M53.1675 120.807C52.9302 121.174 52.5857 120.921 52.2915 120.959C52.5482 120.704 52.8734 120.845 53.1675 120.807Z" fill="#F1F6FC"/>
<path d="M128.91 44.7966C128.777 45.021 128.577 45.1986 128.338 45.3055C128.336 45.2324 128.35 45.1599 128.378 45.0927C128.407 45.0256 128.45 44.9655 128.505 44.9169C128.56 44.8683 128.624 44.8323 128.694 44.8115C128.764 44.7907 128.838 44.7857 128.91 44.7966Z" fill="#F1F6FC"/>
<path d="M44.8222 121.556L43.9224 121.504C43.9831 121.445 44.0556 121.4 44.135 121.37C44.2144 121.34 44.299 121.328 44.3837 121.333C44.4683 121.337 44.5511 121.36 44.6265 121.398C44.702 121.437 44.7686 121.491 44.8222 121.556V121.556Z" fill="#F1F6FC"/>
<path d="M129.739 43.6943L129.267 44.2904C129.251 44.2193 129.252 44.1456 129.268 44.0747C129.285 44.0038 129.317 43.9377 129.362 43.8806C129.407 43.8236 129.464 43.7772 129.529 43.745C129.595 43.7128 129.666 43.6955 129.739 43.6943V43.6943Z" fill="#F1F6FC"/>
<path d="M137.432 58.7907C137.398 58.4075 137.744 58.3429 137.956 58.1655C137.928 58.3056 137.866 58.4365 137.774 58.5459C137.683 58.6553 137.565 58.7394 137.432 58.7907V58.7907Z" fill="#F1F6FC"/>
<path d="M150.136 41.0041C146.818 39.0775 142.989 38.1416 139.876 35.8006C141.47 34.2456 143.15 32.781 144.907 31.4135C145.635 30.966 146.424 30.6254 147.249 30.4022C148.781 29.77 150.458 29.5712 152.096 29.8275C152.452 29.8375 152.802 29.9208 153.124 30.0723C153.446 30.2237 153.733 30.4398 153.968 30.7074C154.202 30.975 154.379 31.2883 154.487 31.6274C154.595 31.9665 154.632 32.3242 154.596 32.6782C154.716 33.6556 154.597 34.6476 154.249 35.5688C153.601 37.2579 152.532 38.7534 151.143 39.913C150.716 40.1808 150.369 40.5575 150.136 41.0041V41.0041Z" fill="#F1F6FC"/>
<path d="M107.902 78.2385C107.905 78.919 107.798 79.5957 107.586 80.2422C107.243 81.2031 107.594 82.1994 107.2 83.1296C107.03 83.5326 107.97 84.0615 108.638 84.0124C110.012 83.8441 111.345 83.4327 112.575 82.797C112.942 82.6313 113.523 82.3112 113.285 83.245C113.268 83.4807 113.306 83.7171 113.396 83.9357C113.722 85.1771 112.482 85.2782 111.971 85.911C110.71 87.4715 108.755 88.1303 107.333 89.4969C106.731 89.9393 106.072 90.2996 105.374 90.568C105.214 90.6524 105.003 90.7017 104.908 90.8336C104.229 91.7716 103.486 91.5211 102.688 91.0142C101.816 90.4093 100.899 89.8714 99.9446 89.4055C99.7213 89.3072 99.5525 89.1458 99.6872 88.8321C100.626 86.7256 101.374 84.5392 101.922 82.299C102.245 80.8963 103.357 80.2347 104.433 79.5328C105.316 78.9562 106.203 78.3836 107.11 77.8465C107.316 77.725 107.495 77.38 107.795 77.5653C108.042 77.7179 107.854 78.0097 107.902 78.2385Z" fill="#F1F6FC"/>
<path d="M81.7154 68.6123C83.4466 68.7182 83.7789 69.4729 83.7288 71.3723C83.6841 73.0699 82.3241 73.2427 81.3552 73.8627C80.5963 74.4043 79.6755 74.6713 78.7446 74.6197C77.7564 74.5289 77.3526 74.0453 77.5823 73.1057C77.7314 72.2139 78.0841 71.3686 78.6132 70.6354C79.1422 69.9022 79.8334 69.3007 80.6328 68.8782C80.9675 68.7051 81.3386 68.6141 81.7154 68.6123V68.6123Z" fill="#F1F6FC"/>
</svg>
